<?xml version="1.0" encoding="UTF-8" standalone="no"?>
<!-- Created with Inkscape (http://www.inkscape.org/) -->

<svg
   version="1.1"
   id="svg2"
   xml:space="preserve"
   width="3838.8176"
   height="3838.8176"
   viewBox="0 0 3838.8176 3838.8176"
   sodipodi:docname="Analyst.svg"
   inkscape:version="1.1.2 (0a00cf5339, 2022-02-04)"
   inkscape:export-filename="/mnt/18E09909E098EE6E/Projects/Freelancer/files/SVG/Analyst.png"
   inkscape:export-xdpi="260.02701"
   inkscape:export-ydpi="260.02701"
   xmlns:inkscape="http://www.inkscape.org/namespaces/inkscape"
   xmlns:sodipodi="http://sodipodi.sourceforge.net/DTD/sodipodi-0.dtd"
   xmlns="http://www.w3.org/2000/svg"
   xmlns:svg="http://www.w3.org/2000/svg"><defs
     id="defs6" /><sodipodi:namedview
     id="namedview4"
     pagecolor="#ffffff"
     bordercolor="#999999"
     borderopacity="1"
     inkscape:pageshadow="0"
     inkscape:pageopacity="0"
     inkscape:pagecheckerboard="0"
     showgrid="false"
     fit-margin-top="0"
     fit-margin-left="0"
     fit-margin-right="0"
     fit-margin-bottom="0"
     inkscape:zoom="0.052018987"
     inkscape:cx="1441.7812"
     inkscape:cy="-1143.8131"
     inkscape:window-width="1440"
     inkscape:window-height="790"
     inkscape:window-x="0"
     inkscape:window-y="0"
     inkscape:window-maximized="1"
     inkscape:current-layer="g8" /><g
     id="g8"
     inkscape:groupmode="layer"
     inkscape:label="ink_ext_XXXXXX"
     transform="matrix(1.3333333,0,0,-1.3333333,1447.6313,3455.2909)"><g
       id="g461"
       transform="translate(-1097.1107,123.95662)"><path
         d="m 2373.73,1121.24 c -97.86,83.48 -215.84,586.9 -619.99,324.7 -208.8,-135.46 -560.9,116.3 -852.325,29.34 C 633.773,1395.42 607.974,1132.3 633.871,1046.57 686.181,873.38 523.394,847.61 372.381,773.2 135.502,656.48 311.052,241.93 534.833,239.97 c 223.782,-1.97 1577.747,0 1577.747,0 0,0 325.47,7.43 460.66,186.86 145.48,193.08 53.26,478.79 -199.51,694.41"
         style="fill:#ebf2f9;fill-opacity:1;fill-rule:nonzero;stroke:none;stroke-width:0.1"
         id="path14" /><path
         d="m 1043.09,286.42 c 0,0 2.83,-45.71 11.68,-46.37 1.18,-0.08 44.86,-0.08 44.86,-0.08 l 55.76,0.32 c 0,0 -0.37,13.43 -16.67,16.28 -16.3,2.84 -43.58,14.29 -53.45,35.83 -10.39,22.67 -42.18,-5.98 -42.18,-5.98"
         style="fill:#163560;fill-opacity:1;fill-rule:nonzero;stroke:none;stroke-width:0.1"
         id="path16" /><path
         d="m 1022.99,819.91 c 0,0 24.3,-6.24 39.74,-1.58 15.44,4.65 42.02,-2.99 46.3,-8.62 4.28,-5.63 2.71,-7.87 -4.93,-9.81 -7.64,-1.95 -34.7,-13.49 -52.48,-6.81 -17.78,6.68 -40.98,6.92 -40.98,6.92 l 12.35,19.9"
         style="fill:#e49963;fill-opacity:1;fill-rule:nonzero;stroke:none;stroke-width:0.1"
         id="path18" /><path
         d="m 813.045,1030.94 c 0,0 27.29,-193.96 72.476,-211.33 22.297,-8.57 120.839,-28 149.989,-29.96 0,0 7.14,5.8 5.4,29.38 0,0 -103.243,37.9 -117.909,58.51 -21.828,30.68 13.551,125.32 -13.839,154.14 -27.391,28.81 -73.521,41.19 -96.117,-0.74"
         style="fill:#4a75cb;fill-opacity:1;fill-rule:nonzero;stroke:none;stroke-width:0.1"
         id="path20" /><path
         d="m 816.531,283.61 v 42.29 h -66.577 c -1.798,0 -3.266,1.47 -3.266,3.27 v 6.77 c 0,1.8 1.468,3.27 3.266,3.27 h 66.577 v 240.72 c 0,6.76 5.527,12.28 12.282,12.28 h 13.174 c 6.755,0 12.282,-5.52 12.282,-12.28 V 339.21 h 66.577 c 1.797,0 3.267,-1.47 3.267,-3.27 v -6.77 c 0,-1.8 -1.47,-3.27 -3.267,-3.27 h -66.577 v -42.29 c 48.17,-3.64 86.764,-20.98 97.591,-43.39 H 718.939 c 10.827,22.41 49.421,39.75 97.592,43.39"
         style="fill:#a6c7f9;fill-opacity:1;fill-rule:nonzero;stroke:none;stroke-width:0.1"
         id="path22" /><path
         d="m 822.242,622.31 c 7.96,-13.5 17.167,-26.16 26.657,-38.14 29.33,-37.03 61.257,-67.56 66.82,-96.41 1.105,-5.76 2.861,-11.95 5.156,-18.47 2.322,-6.62 5.193,-13.57 8.508,-20.75 12.446,-27.04 31.058,-57.33 49.642,-84.87 32.125,-47.6 62.335,-87.32 62.335,-87.32 l 55.4,2.36 c -2.22,5.55 -26.38,71.28 -58.71,151.6 -13.12,32.61 -27.08,67.29 -40.545,100.74 -1.794,4.47 -3.588,8.92 -5.363,13.33 -4.118,10.23 -8.169,20.31 -12.125,30.12 -30.351,75.42 -54.525,135.48 -54.525,135.48 0,0 -121.304,45.95 -133.902,16.18 -10.388,-24.56 -1.927,-48.61 30.652,-103.85"
         style="fill:#e58638;fill-opacity:1;fill-rule:nonzero;stroke:none;stroke-width:0.1"
         id="path24" /><path
         d="m 914.809,417.02 c 0,0 -38.534,-24.76 -34.794,-32.8 0.497,-1.07 21.792,-39.21 21.792,-39.21 l 27.465,-48.53 c 0,0 11.554,6.87 6.088,22.49 -5.465,15.61 -8.764,45.02 5.233,64.14 14.723,20.12 -25.784,33.91 -25.784,33.91"
         style="fill:#163560;fill-opacity:1;fill-rule:nonzero;stroke:none;stroke-width:0.1"
         id="path26" /><path
         d="m 966.945,731.79 c 0,0 152.265,-94.84 169.255,-158.58 17,-63.74 -202.541,-199.71 -202.541,-199.71 0,0 -24.079,21.24 -28.328,36.82 0,0 99.239,118.89 120.759,145.55 13.22,16.36 -195.471,56.66 -220.965,96.31 -25.495,39.66 -16.368,73.03 -16.368,73.03 l 178.188,6.58"
         style="fill:#ee9849;fill-opacity:1;fill-rule:nonzero;stroke:none;stroke-width:0.1"
         id="path28" /><path
         d="m 679.589,610 h 311.622 c 6.232,0 11.329,-5.1 11.329,-11.33 v -62.32 c 0,-6.24 -5.097,-11.34 -11.329,-11.34 H 679.589 c -6.233,0 -11.332,5.1 -11.332,11.34 v 62.32 c 0,6.23 5.099,11.33 11.332,11.33"
         style="fill:#1c468a;fill-opacity:1;fill-rule:nonzero;stroke:none;stroke-width:0.1"
         id="path30" /><path
         d="m 896.537,1064.18 c 14.955,-9.26 23.195,-21.02 23.195,-21.02 -36.476,-9.43 -96.947,24.37 -96.947,24.37 0,0 23.48,15.78 32.178,50.44 0.44,1.75 0.842,3.54 1.195,5.38 1.14,5.84 1.848,12.16 1.975,18.98 l 16.757,-15.01 27.863,-24.96 c 0,0 -0.632,-10.36 -4.118,-28.18 -0.606,-3.11 -1.301,-6.44 -2.098,-10"
         style="fill:#e49963;fill-opacity:1;fill-rule:nonzero;stroke:none;stroke-width:0.1"
         id="path32" /><path
         d="m 784.331,892.1 c 5.225,-70.28 -3.562,-177.11 2.364,-195.62 5.117,-15.97 65.316,-6.52 88.58,-1.19 8.612,1.98 19.042,4.79 29.815,8.13 30.047,9.3 62.788,22.59 66.301,32.45 0.135,0.39 0.252,0.77 0.324,1.13 0.324,1.44 0.252,2.78 -0.063,4.14 -1.172,5.03 -5.683,10.47 -6.214,22.91 -0.595,13.9 -0.505,30.27 -1.028,47.87 -0.027,1.98 -0.054,4.14 -0.269,6.11 l -0.01,0.72 c -0.009,0.38 -0.018,0.75 -0.027,1.13 -0.504,19.63 -1.531,40.26 -2.72,60.73 -0.757,12.85 -1.63,25.58 -2.639,37.77 -2.621,31.48 -6.152,59.47 -10.826,77.17 -7.639,28.85 -24.481,47.67 -39.813,61.46 l -11.087,9.51 c -12.375,-2.7 -27.003,-0.91 -40.235,5.36 -14.321,6.8 -19.265,11.67 -21.761,9.84 C 801.949,1056.2 778.161,978.01 784.331,892.1"
         style="fill:#739af0;fill-opacity:1;fill-rule:nonzero;stroke:none;stroke-width:0.1"
         id="path34" /><path
         d="m 904.918,703.28 c 30.047,9.3 62.788,22.59 66.301,32.45 0.135,0.39 0.252,0.77 0.324,1.13 -0.018,1.38 -0.035,2.76 -0.063,4.14 -1.17,5.02 -5.683,10.46 -6.214,22.91 -0.595,13.9 -0.505,30.27 -1.028,47.87 -0.027,1.98 -0.053,4.14 -0.27,6.11 l -0.009,0.72 c -0.009,0.38 -0.018,0.75 -0.026,1.13 l -113.499,51.47 c 0,0 -6.539,-91.47 54.484,-167.93"
         style="fill:#4a75cb;fill-opacity:1;fill-rule:nonzero;stroke:none;stroke-width:0.1"
         id="path36" /><path
         d="m 902.753,1102.36 c 0,0 -0.632,-10.36 -4.118,-28.18 -27.207,8.79 -39.551,33.37 -43.672,43.79 -1.172,2.95 -1.681,4.77 -1.681,4.77 0,0 1.056,0.22 2.876,0.61 3.824,0.81 11.027,2.34 18.732,3.97 l 27.863,-24.96"
         style="fill:#d68d5d;fill-opacity:1;fill-rule:nonzero;stroke:none;stroke-width:0.1"
         id="path38" /><path
         d="m 913.768,1102.63 c 0,0 -59.776,-6.74 -63.402,30.55 -3.625,37.29 -13.782,61.53 24.23,67.41 38.011,5.88 46.822,-7.62 51.059,-19.78 4.238,-12.15 3.569,-75.47 -11.887,-78.18"
         style="fill:#e49963;fill-opacity:1;fill-rule:nonzero;stroke:none;stroke-width:0.1"
         id="path40" /><path
         d="m 850.624,1130.6 c 0,0 3.79,49.5 58.202,54.63 37.27,3.51 16.491,35.59 12.519,40.7 0,0 -28.555,-3.91 -57.824,-8.75 -61.433,-10.15 -18.93,-78.87 -12.897,-86.58"
         style="fill:#2b478b;fill-opacity:1;fill-rule:nonzero;stroke:none;stroke-width:0.1"
         id="path42" /><path
         d="m 1139.97,771.31 5.23,-1.7 44.52,137.01 -5.23,1.7 -44.52,-137.01"
         style="fill:#4a75cb;fill-opacity:1;fill-rule:nonzero;stroke:none;stroke-width:0.1"
         id="path44" /><path
         d="m 994.254,781.88 151.136,-3.23 -0.19,-9.04 -151.139,3.23 0.193,9.04"
         style="fill:#4a75cb;fill-opacity:1;fill-rule:nonzero;stroke:none;stroke-width:0.1"
         id="path46" /><path
         d="m 1010.49,790.1 c 0,0 23.46,-8.88 39.32,-5.96 15.86,2.92 41.43,-7.6 45.07,-13.67 3.63,-6.07 1.82,-8.12 -5.98,-9.21 -7.81,-1.09 -35.98,-9.58 -52.91,-0.98 -16.94,8.6 -39.969,11.4 -39.969,11.4 l 14.469,18.42"
         style="fill:#e49963;fill-opacity:1;fill-rule:nonzero;stroke:none;stroke-width:0.1"
         id="path48" /><path
         d="m 825.088,1022.98 c 0,0 5.74,-195.78 48.737,-218.03 21.215,-10.98 117.012,-41.16 145.765,-46.31 0,0 7.74,4.97 8.61,28.6 0,0 -98.433,49.05 -110.738,71.15 -18.313,32.9 27.285,123.07 3.238,154.73 -24.046,31.65 -68.531,49.04 -95.612,9.86"
         style="fill:#739af0;fill-opacity:1;fill-rule:nonzero;stroke:none;stroke-width:0.1"
         id="path50" /><path
         d="m 1372.97,555.37 h 779.97 c 54.43,0 98.56,44.13 98.56,98.56 v 1066.45 c 0,54.43 -44.13,98.55 -98.56,98.55 h -779.97 c -54.43,0 -98.56,-44.12 -98.56,-98.55 V 653.93 c 0,-54.43 44.13,-98.56 98.56,-98.56"
         style="fill:#d2e4ff;fill-opacity:1;fill-rule:nonzero;stroke:none;stroke-width:0.1"
         id="path52" /><path
         d="m 1370.42,683.28 h 786.67 V 1686.51 H 1370.42 V 683.28"
         style="fill:#f3f9ff;fill-opacity:1;fill-rule:nonzero;stroke:none;stroke-width:0.1"
         id="path54" /><path
         d="m 2045.54,727.31 v 0 c -22.93,0 -41.51,18.59 -41.51,41.51 v 573.86 c 0,22.92 18.58,41.51 41.51,41.51 v 0 c 22.92,0 41.5,-18.59 41.5,-41.51 V 768.82 c 0,-22.92 -18.58,-41.51 -41.5,-41.51"
         style="fill:#ee9849;fill-opacity:1;fill-rule:nonzero;stroke:none;stroke-width:0.1"
         id="path56" /><path
         d="m 1909.54,727.31 v 0 c -22.93,0 -41.51,18.59 -41.51,41.51 v 756.96 c 0,22.92 18.58,41.51 41.51,41.51 v 0 c 22.92,0 41.5,-18.59 41.5,-41.51 V 768.82 c 0,-22.92 -18.58,-41.51 -41.5,-41.51"
         style="fill:#ee9849;fill-opacity:1;fill-rule:nonzero;stroke:none;stroke-width:0.1"
         id="path58" /><path
         d="m 1761.14,727.31 v 0 c -22.92,0 -41.5,18.59 -41.5,41.51 v 415.01 c 0,22.92 18.58,41.51 41.5,41.51 v 0 c 22.93,0 41.51,-18.59 41.51,-41.51 V 768.82 c 0,-22.92 -18.58,-41.51 -41.51,-41.51"
         style="fill:#ee9849;fill-opacity:1;fill-rule:nonzero;stroke:none;stroke-width:0.1"
         id="path60" /><path
         d="m 1616.75,727.31 v 0 c -22.93,0 -41.51,18.59 -41.51,41.51 v 644.82 c 0,22.92 18.58,41.5 41.51,41.5 v 0 c 22.92,0 41.5,-18.58 41.5,-41.5 V 768.82 c 0,-22.92 -18.58,-41.51 -41.5,-41.51"
         style="fill:#ee9849;fill-opacity:1;fill-rule:nonzero;stroke:none;stroke-width:0.1"
         id="path62" /><path
         d="M 1513.1,1086.35 V 768.82 c 0,-22.92 -18.58,-41.51 -41.5,-41.51 v 0 c -22.93,0 -41.51,18.59 -41.51,41.51 v 317.53 c 0,22.93 18.58,41.51 41.51,41.51 v 0 c 22.92,0 41.5,-18.58 41.5,-41.51"
         style="fill:#ee9849;fill-opacity:1;fill-rule:nonzero;stroke:none;stroke-width:0.1"
         id="path64" /><path
         d="m 1579.18,1506.55 h 70.3 c 4,0 7.27,-3.27 7.27,-7.27 0,-4 -3.27,-7.28 -7.27,-7.28 h -70.3 c -4,0 -7.28,3.28 -7.28,7.28 0,4 3.28,7.27 7.28,7.27"
         style="fill:#a6c7f9;fill-opacity:1;fill-rule:nonzero;stroke:none;stroke-width:0.1"
         id="path66" /><path
         d="m 1633.47,1480.08 h 16.01 c 4,0 7.27,-3.27 7.27,-7.27 0,-4 -3.27,-7.27 -7.27,-7.27 h -16.01 c -4,0 -7.28,3.27 -7.28,7.27 0,4 3.28,7.27 7.28,7.27"
         style="fill:#a6c7f9;fill-opacity:1;fill-rule:nonzero;stroke:none;stroke-width:0.1"
         id="path68" /><path
         d="m 1868.87,1618.17 h 70.3 c 4,0 7.27,-3.27 7.27,-7.27 0,-4 -3.27,-7.27 -7.27,-7.27 h -70.3 c -4,0 -7.28,3.27 -7.28,7.27 0,4 3.28,7.27 7.28,7.27"
         style="fill:#a6c7f9;fill-opacity:1;fill-rule:nonzero;stroke:none;stroke-width:0.1"
         id="path70" /><path
         d="m 1923.16,1591.71 h 16.01 c 4,0 7.27,-3.27 7.27,-7.27 v 0 c 0,-4 -3.27,-7.28 -7.27,-7.28 h -16.01 c -4,0 -7.28,3.28 -7.28,7.28 v 0 c 0,4 3.28,7.27 7.28,7.27"
         style="fill:#a6c7f9;fill-opacity:1;fill-rule:nonzero;stroke:none;stroke-width:0.1"
         id="path72" /><path
         d="m 2009.47,1435.2 h 70.3 c 4,0 7.27,-3.28 7.27,-7.28 0,-4 -3.27,-7.27 -7.27,-7.27 h -70.3 c -4,0 -7.27,3.27 -7.27,7.27 0,4 3.27,7.28 7.27,7.28"
         style="fill:#a6c7f9;fill-opacity:1;fill-rule:nonzero;stroke:none;stroke-width:0.1"
         id="path74" /><path
         d="m 2063.76,1408.73 h 16.01 c 4,0 7.27,-3.27 7.27,-7.27 v 0 c 0,-4 -3.27,-7.27 -7.27,-7.27 h -16.01 c -4,0 -7.27,3.27 -7.27,7.27 v 0 c 0,4 3.27,7.27 7.27,7.27"
         style="fill:#a6c7f9;fill-opacity:1;fill-rule:nonzero;stroke:none;stroke-width:0.1"
         id="path76" /><path
         d="m 1725.99,1276.27 h 70.3 c 4,0 7.28,-3.27 7.28,-7.27 0,-4 -3.28,-7.27 -7.28,-7.27 h -70.3 c -4,0 -7.27,3.27 -7.27,7.27 0,4 3.27,7.27 7.27,7.27"
         style="fill:#a6c7f9;fill-opacity:1;fill-rule:nonzero;stroke:none;stroke-width:0.1"
         id="path78" /><path
         d="m 1780.28,1249.81 h 16.01 c 4,0 7.28,-3.28 7.28,-7.28 v 0 c 0,-4 -3.28,-7.27 -7.28,-7.27 h -16.01 c -4,0 -7.27,3.27 -7.27,7.27 v 0 c 0,4 3.27,7.28 7.27,7.28"
         style="fill:#a6c7f9;fill-opacity:1;fill-rule:nonzero;stroke:none;stroke-width:0.1"
         id="path80" /><path
         d="m 1436.45,1179.09 h 70.3 c 4,0 7.27,-3.27 7.27,-7.27 0,-4 -3.27,-7.28 -7.27,-7.28 h -70.3 c -4,0 -7.28,3.28 -7.28,7.28 0,4 3.28,7.27 7.28,7.27"
         style="fill:#a6c7f9;fill-opacity:1;fill-rule:nonzero;stroke:none;stroke-width:0.1"
         id="path82" /><path
         d="m 1490.74,1152.63 h 16.01 c 4,0 7.27,-3.28 7.27,-7.28 0,-4 -3.27,-7.27 -7.27,-7.27 h -16.01 c -4,0 -7.28,3.27 -7.28,7.27 0,4 3.28,7.28 7.28,7.28"
         style="fill:#a6c7f9;fill-opacity:1;fill-rule:nonzero;stroke:none;stroke-width:0.1"
         id="path84" /><path
         d="m 1471.6,1241.44 c -8.73,0 -15.84,-7.1 -15.84,-15.83 0,-8.73 7.11,-15.83 15.84,-15.83 8.73,0 15.83,7.1 15.83,15.83 0,8.73 -7.1,15.83 -15.83,15.83 z m 0,-41.66 c -14.25,0 -25.84,11.59 -25.84,25.83 0,14.25 11.59,25.83 25.84,25.83 14.24,0 25.83,-11.58 25.83,-25.83 0,-14.24 -11.59,-25.83 -25.83,-25.83"
         style="fill:#2b478b;fill-opacity:1;fill-rule:nonzero;stroke:none;stroke-width:0.1"
         id="path86" /><path
         d="m 1460.6,1241.44 c -1.28,0 -2.56,0.49 -3.54,1.47 l -77.63,77.63 H 748.727 c -2.762,0 -5,2.24 -5,5 0,2.76 2.238,5 5,5 h 634.843 l 80.56,-80.56 c 1.96,-1.95 1.96,-5.12 0,-7.07 -0.97,-0.98 -2.25,-1.47 -3.53,-1.47"
         style="fill:#2b478b;fill-opacity:1;fill-rule:nonzero;stroke:none;stroke-width:0.1"
         id="path88" /><path
         d="m 1620.16,696.72 c -8.73,0 -15.84,-7.1 -15.84,-15.83 0,-8.73 7.11,-15.84 15.84,-15.84 8.73,0 15.83,7.11 15.83,15.84 0,8.73 -7.1,15.83 -15.83,15.83 z m 0,-41.67 c -14.25,0 -25.84,11.59 -25.84,25.84 0,14.24 11.59,25.83 25.84,25.83 14.24,0 25.83,-11.59 25.83,-25.83 0,-14.25 -11.59,-25.84 -25.83,-25.84"
         style="fill:#2b478b;fill-opacity:1;fill-rule:nonzero;stroke:none;stroke-width:0.1"
         id="path90" /><path
         d="m 2333.03,575.96 h -624.85 l -80.56,80.56 c -1.95,1.95 -1.95,5.11 0,7.07 1.95,1.95 5.12,1.95 7.07,0 l 77.63,-77.63 h 620.71 c 2.76,0 5,-2.24 5,-5 0,-2.77 -2.24,-5 -5,-5"
         style="fill:#2b478b;fill-opacity:1;fill-rule:nonzero;stroke:none;stroke-width:0.1"
         id="path92" /><path
         d="m 1905.92,1679.84 c -8.73,0 -15.84,-7.11 -15.84,-15.84 0,-8.73 7.11,-15.83 15.84,-15.83 8.73,0 15.83,7.1 15.83,15.83 0,8.73 -7.1,15.84 -15.83,15.84 z m 0,-41.67 c -14.25,0 -25.84,11.59 -25.84,25.83 0,14.25 11.59,25.84 25.84,25.84 14.24,0 25.83,-11.59 25.83,-25.84 0,-14.24 -11.59,-25.83 -25.83,-25.83"
         style="fill:#2b478b;fill-opacity:1;fill-rule:nonzero;stroke:none;stroke-width:0.1"
         id="path94" /><path
         d="m 1894.92,1679.84 c -1.28,0 -2.56,0.48 -3.54,1.46 l -77.63,77.63 h -630.7 c -2.77,0 -5,2.24 -5,5 0,2.76 2.23,5 5,5 h 634.84 l 80.56,-80.56 c 1.95,-1.95 1.95,-5.12 0,-7.07 -0.98,-0.98 -2.25,-1.46 -3.53,-1.46"
         style="fill:#2b478b;fill-opacity:1;fill-rule:nonzero;stroke:none;stroke-width:0.1"
         id="path96" /><path
         d="M 1170.24,1342.11 H 755.894 c -6.996,0 -12.667,5.67 -12.667,12.67 v 0 c 0,6.99 5.671,12.66 12.667,12.66 h 414.346 c 6.99,0 12.66,-5.67 12.66,-12.66 v 0 c 0,-7 -5.67,-12.67 -12.66,-12.67"
         style="fill:#739af0;fill-opacity:1;fill-rule:nonzero;stroke:none;stroke-width:0.1"
         id="path98" /><path
         d="M 1170.24,1382.11 H 915.894 c -6.996,0 -12.667,5.67 -12.667,12.67 v 0 c 0,6.99 5.671,12.66 12.667,12.66 h 254.346 c 6.99,0 12.66,-5.67 12.66,-12.66 v 0 c 0,-7 -5.67,-12.67 -12.66,-12.67"
         style="fill:#739af0;fill-opacity:1;fill-rule:nonzero;stroke:none;stroke-width:0.1"
         id="path100" /><path
         d="M 1170.24,1422.11 H 915.894 c -6.996,0 -12.667,5.67 -12.667,12.67 v 0 c 0,6.99 5.671,12.66 12.667,12.66 h 254.346 c 6.99,0 12.66,-5.67 12.66,-12.66 v 0 c 0,-7 -5.67,-12.67 -12.66,-12.67"
         style="fill:#739af0;fill-opacity:1;fill-rule:nonzero;stroke:none;stroke-width:0.1"
         id="path102" /><path
         d="m 1601.66,1783.09 h -414.34 c -7,0 -12.67,5.67 -12.67,12.67 v 0 c 0,6.99 5.67,12.66 12.67,12.66 h 414.34 c 7,0 12.67,-5.67 12.67,-12.66 v 0 c 0,-7 -5.67,-12.67 -12.67,-12.67"
         style="fill:#739af0;fill-opacity:1;fill-rule:nonzero;stroke:none;stroke-width:0.1"
         id="path104" /><path
         d="m 1998.53,450.79 c 0,49.8 -40.37,90.17 -90.17,90.17 -49.79,0 -90.16,-40.37 -90.16,-90.17 0,-49.79 40.37,-90.16 90.16,-90.16 49.8,0 90.17,40.37 90.17,90.16"
         style="fill:#82b378;fill-opacity:1;fill-rule:nonzero;stroke:none;stroke-width:0.1"
         id="path106" /><path
         d="m 1908.36,527.02 c 42.1,0 76.22,-34.13 76.22,-76.23 0,-20.83 -8.35,-39.7 -21.9,-53.46 l -54.32,53.46 -71.22,-27.18 c -3.22,8.44 -4.99,17.6 -4.99,27.18 0,42.1 34.12,76.23 76.21,76.23"
         style="fill:#ffffff;fill-opacity:1;fill-rule:nonzero;stroke:none;stroke-width:0.1"
         id="path108" /><path
         d="m 1919.5,489.49 h 32.45 c 1.27,0 2.31,-1.04 2.31,-2.32 v 0 c 0,-1.27 -1.04,-2.32 -2.31,-2.32 h -32.45 c -1.27,0 -2.32,1.05 -2.32,2.32 v 0 c 0,1.28 1.05,2.32 2.32,2.32"
         style="fill:#82b378;fill-opacity:1;fill-rule:nonzero;stroke:none;stroke-width:0.1"
         id="path110" /><path
         d="m 1919.5,482.15 h 32.45 c 1.27,0 2.31,-1.04 2.31,-2.32 0,-1.27 -1.04,-2.32 -2.31,-2.32 h -32.45 c -1.27,0 -2.32,1.05 -2.32,2.32 0,1.28 1.05,2.32 2.32,2.32"
         style="fill:#82b378;fill-opacity:1;fill-rule:nonzero;stroke:none;stroke-width:0.1"
         id="path112" /><path
         d="m 1938.55,474.81 h 13.4 c 1.27,0 2.31,-1.04 2.31,-2.32 0,-1.27 -1.04,-2.31 -2.31,-2.31 h -13.4 c -1.28,0 -2.32,1.04 -2.32,2.31 0,1.28 1.04,2.32 2.32,2.32"
         style="fill:#82b378;fill-opacity:1;fill-rule:nonzero;stroke:none;stroke-width:0.1"
         id="path114" /><path
         d="m 1829.4,493.11 35.67,35.67 h -35.67 z"
         style="fill:#82b378;fill-opacity:1;fill-rule:nonzero;stroke:none;stroke-width:0.1"
         id="path116" /><path
         d="m 2303.03,450.79 c 0,49.8 -40.37,90.17 -90.17,90.17 -49.8,0 -90.17,-40.37 -90.17,-90.17 0,-49.79 40.37,-90.16 90.17,-90.16 49.8,0 90.17,40.37 90.17,90.16"
         style="fill:#82b378;fill-opacity:1;fill-rule:nonzero;stroke:none;stroke-width:0.1"
         id="path118" /><path
         d="m 2136.64,450.79 c 0,42.1 34.12,76.23 76.22,76.23 42.1,0 76.22,-34.13 76.22,-76.23 0,-42.09 -34.12,-76.22 -76.22,-76.22 -17.39,0 -33.41,5.82 -46.23,15.62 l 46.23,60.6 -71.23,-27.18 c -3.22,8.44 -4.99,17.6 -4.99,27.18"
         style="fill:#ffffff;fill-opacity:1;fill-rule:nonzero;stroke:none;stroke-width:0.1"
         id="path120" /><path
         d="m 2224.62,489.49 h 32.45 c 1.27,0 2.31,-1.04 2.31,-2.32 v 0 c 0,-1.27 -1.04,-2.32 -2.31,-2.32 h -32.45 c -1.27,0 -2.32,1.05 -2.32,2.32 v 0 c 0,1.28 1.05,2.32 2.32,2.32"
         style="fill:#82b378;fill-opacity:1;fill-rule:nonzero;stroke:none;stroke-width:0.1"
         id="path122" /><path
         d="m 2224.62,482.15 h 32.45 c 1.27,0 2.31,-1.04 2.31,-2.32 0,-1.27 -1.04,-2.32 -2.31,-2.32 h -32.45 c -1.27,0 -2.32,1.05 -2.32,2.32 0,1.28 1.05,2.32 2.32,2.32"
         style="fill:#82b378;fill-opacity:1;fill-rule:nonzero;stroke:none;stroke-width:0.1"
         id="path124" /><path
         d="m 2243.67,474.81 h 13.4 c 1.27,0 2.31,-1.04 2.31,-2.32 0,-1.27 -1.04,-2.31 -2.31,-2.31 h -13.4 c -1.28,0 -2.32,1.04 -2.32,2.31 0,1.28 1.04,2.32 2.32,2.32"
         style="fill:#82b378;fill-opacity:1;fill-rule:nonzero;stroke:none;stroke-width:0.1"
         id="path126" /><path
         d="m 2134.4,493.11 35.67,35.67 h -35.67 z"
         style="fill:#82b378;fill-opacity:1;fill-rule:nonzero;stroke:none;stroke-width:0.1"
         id="path128" /><path
         d="M 2542.95,236.98 H 458.332 c -1.644,0 -2.99,1.34 -2.99,2.98 v 0 c 0,1.65 1.346,3 2.99,3 H 2542.95 c 1.65,0 2.99,-1.35 2.99,-3 v 0 c 0,-1.64 -1.34,-2.98 -2.99,-2.98"
         style="fill:#202f4e;fill-opacity:1;fill-rule:nonzero;stroke:none;stroke-width:0.1"
         id="path130" /></g></g></svg>
