<?xml version="1.0" encoding="UTF-8" standalone="no"?>
<!-- Created with Inkscape (http://www.inkscape.org/) -->

<svg
   version="1.1"
   id="svg2"
   xml:space="preserve"
   width="666.66669"
   height="510.50668"
   viewBox="0 0 666.66669 510.50668"
   sodipodi:docname="communication.svg"
   inkscape:export-filename="/mnt/18E09909E098EE6E/Projects/Freelancer/files/communication.png"
   inkscape:export-xdpi="260.02701"
   inkscape:export-ydpi="260.02701"
   inkscape:version="1.1.2 (0a00cf5339, 2022-02-04)"
   xmlns:inkscape="http://www.inkscape.org/namespaces/inkscape"
   xmlns:sodipodi="http://sodipodi.sourceforge.net/DTD/sodipodi-0.dtd"
   xmlns="http://www.w3.org/2000/svg"
   xmlns:svg="http://www.w3.org/2000/svg"><defs
     id="defs6" /><sodipodi:namedview
     id="namedview4"
     pagecolor="#ffffff"
     bordercolor="#999999"
     borderopacity="1"
     inkscape:pageshadow="0"
     inkscape:pageopacity="0"
     inkscape:pagecheckerboard="0"
     showgrid="false"
     inkscape:zoom="0.36776739"
     inkscape:cx="222.96702"
     inkscape:cy="594.12554"
     inkscape:window-width="1440"
     inkscape:window-height="790"
     inkscape:window-x="0"
     inkscape:window-y="0"
     inkscape:window-maximized="1"
     inkscape:current-layer="g8" /><g
     id="g8"
     inkscape:groupmode="layer"
     inkscape:label="ink_ext_XXXXXX"
     transform="matrix(1.3333333,0,0,-1.3333333,0,510.50667)"><g
       id="g10"
       transform="scale(0.1)"><path
         d="m 2639.62,3826.29 c -30.95,0 -56.12,-25.18 -56.12,-56.12 V 1137.44 c 0,-30.95 25.17,-56.12 56.12,-56.12 h 1807.46 c 30.95,0 56.12,25.17 56.12,56.12 v 2632.73 c 0,30.94 -25.17,56.12 -56.12,56.12 H 2639.62 M 4447.08,1078.82 H 2639.62 c -32.33,0 -58.62,26.3 -58.62,58.62 v 2632.73 c 0,32.33 26.29,58.62 58.62,58.62 h 1807.46 c 32.32,0 58.62,-26.29 58.62,-58.62 V 1137.44 c 0,-32.32 -26.3,-58.62 -58.62,-58.62"
         style="fill:#ededeb;fill-opacity:1;fill-rule:nonzero;stroke:none"
         id="path12" /><path
         d="m 555.336,3826.29 c -30.941,0 -56.117,-25.18 -56.117,-56.12 V 1137.44 c 0,-30.95 25.176,-56.12 56.117,-56.12 H 2362.8 c 30.95,0 56.13,25.17 63.45,61.68 v 2632.73 c -7.32,25.38 -32.5,50.56 -63.45,50.56 H 555.336 M 2362.8,1078.82 H 555.336 c -32.324,0 -58.617,26.3 -58.617,58.62 v 2632.73 c 0,32.33 26.293,58.62 58.617,58.62 H 2362.8 c 32.33,0 58.63,-26.29 58.63,-58.62 V 1137.44 c 0,-32.32 -26.3,-58.62 -58.63,-58.62"
         style="fill:#ededeb;fill-opacity:1;fill-rule:nonzero;stroke:none"
         id="path14" /><path
         d="m 0,465.621 h 5000 v 2.5 H 0 Z"
         style="fill:#ededeb;fill-opacity:1;fill-rule:nonzero;stroke:none"
         id="path16" /><path
         d="m 840.375,699.859 c 0,0 -86.758,-19.23 -73.867,41.313 12.89,60.539 11.949,82.848 -23.317,110.359 -35.261,27.52 -70.75,41.117 -43.742,84.68 27,43.559 -24.234,77.429 -50.715,100.879 -26.476,23.45 3.414,41.13 10.426,85.46 7.012,44.32 -40.676,37.66 -44.418,93.5 -3.746,55.84 52.973,121.1 4.207,197.94 0,0 65.504,-33.96 87.02,-93.63 21.515,-59.67 4.144,-105.76 42.84,-128.45 38.695,-22.67 62.918,-61.9 49.777,-102.16 -13.152,-40.27 5.531,-61.62 37.25,-90.98 31.723,-29.372 23.273,-41.032 19.332,-76.93 -3.945,-35.899 3.977,-27.418 40.293,-76.461 36.316,-49.047 37.238,-129.43 -55.086,-145.52"
         style="fill:#ededeb;fill-opacity:1;fill-rule:nonzero;stroke:none"
         id="path18" /><path
         d="m 852.738,702.539 -0.441,0.941 -173.606,526.93 c -0.746,2.26 0.489,4.71 2.739,5.45 l 0.09,0.03 c 2.242,0.69 4.64,-0.54 5.378,-2.79 l 173.606,-526.92 0.219,-1.282 -7.985,-2.359"
         style="fill:#dadbd8;fill-opacity:1;fill-rule:nonzero;stroke:none"
         id="path20" /><path
         d="m 996.938,700.961 c 0,0 86.302,-19.121 73.482,41.09 -12.83,60.211 -11.89,82.41 23.19,109.777 35.08,27.363 70.37,40.883 43.51,84.223 -26.86,43.328 24.1,77.029 50.45,100.349 26.34,23.32 -3.4,40.91 -10.37,85.01 -6.98,44.09 40.46,37.47 44.18,93 3.72,55.54 -52.7,120.45 -4.19,196.9 0,0 -65.15,-33.79 -86.56,-93.15 -21.4,-59.35 -4.12,-105.2 -42.61,-127.76 -38.49,-22.56 -62.59,-61.58 -49.51,-101.63 13.08,-40.05 -5.5,-61.28 -37.06,-90.489 -31.548,-29.211 -23.149,-40.812 -19.223,-76.519 3.925,-35.723 -3.954,-27.27 -40.079,-76.063 -36.125,-48.789 -37.046,-128.75 54.79,-144.738"
         style="fill:#ededeb;fill-opacity:1;fill-rule:nonzero;stroke:none"
         id="path22" /><path
         d="m 976.703,705.969 0.215,1.281 172.682,524.13 c 0.74,2.22 3.12,3.44 5.36,2.76 l 0.08,-0.03 c 2.25,-0.74 3.47,-3.17 2.73,-5.42 l -172.688,-524.139 -0.437,-0.93 -7.942,2.348"
         style="fill:#dadbd8;fill-opacity:1;fill-rule:nonzero;stroke:none"
         id="path24" /><path
         d="m 901.102,711.91 c 0,0 -99.309,8.231 -65.399,68.781 33.914,60.559 40.313,84.778 11.68,125.957 -28.633,41.184 -62.129,67.524 -18.735,105.212 43.387,37.7 -0.242,90.99 -20.816,124.9 -20.57,33.91 17.32,42.93 39.551,88.07 22.234,45.15 -31.055,53.85 -16.524,114.91 14.532,61.04 96.957,112.1 70.243,210.6 0,0 58.878,-58.13 62.105,-129.19 3.234,-71.05 -30.68,-114.66 3.234,-151.8 33.909,-37.13 46.829,-87.2 19.379,-125.95 -27.457,-38.76 -14.535,-67.83 9.688,-109.82 24.222,-41.99 11.302,-51.682 -4.844,-88.81 -16.152,-37.149 -4.844,-30.688 17.766,-95.29 22.61,-64.589 -3.1,-150.992 -107.328,-137.57"
         style="fill:#f3f2f1;fill-opacity:1;fill-rule:nonzero;stroke:none"
         id="path26" /><path
         d="m 915.234,710.68 -0.16,1.16 -10.953,622.03 c -0.051,2.66 2.086,4.88 4.746,4.92 h 0.098 c 2.633,0 4.797,-2.11 4.844,-4.76 l 10.953,-622.018 -0.196,-1.453 -9.332,0.121"
         style="fill:#dadbd8;fill-opacity:1;fill-rule:nonzero;stroke:none"
         id="path28" /><path
         d="M 1171.52,759.961 H 685.801 c -13.969,0 -23.629,-13.941 -18.696,-27.02 l 7.188,-19.07 4.539,-12.082 13.039,-34.609 4.555,-12.078 13.394,-35.551 4.535,-12.063 53.434,-141.867 h 321.751 l 53.43,141.867 4.54,12.063 13.38,35.551 4.56,12.078 13.04,34.609 4.54,12.082 7.19,19.07 c 4.91,13.079 -4.75,27.02 -18.7,27.02"
         style="fill:#e2e2e0;fill-opacity:1;fill-rule:nonzero;stroke:none"
         id="path30" /><path
         d="m 819.84,1744.08 h 315.71 c 8.29,0 15,6.72 15,15 v 71.27 c 0,8.28 -6.71,15 -15,15 H 819.84 c -8.281,0 -15,-6.72 -15,-15 v -71.27 c 0,-8.28 6.719,-15 15,-15"
         style="fill:#f3f2f1;fill-opacity:1;fill-rule:nonzero;stroke:none"
         id="path32" /><path
         d="m 631.27,1614.92 h 315.71 c 8.29,0 15,6.72 15,15 v 71.27 c 0,8.28 -6.71,15 -15,15 H 631.27 c -8.282,0 -15,-6.72 -15,-15 v -71.27 c 0,-8.28 6.718,-15 15,-15"
         style="fill:#f3f2f1;fill-opacity:1;fill-rule:nonzero;stroke:none"
         id="path34" /><path
         d="m 3003.57,1902.74 h -315.71 c -8.29,0 -15,6.71 -15,15 v 71.27 c 0,8.28 6.71,15 15,15 h 315.71 c 8.29,0 15,-6.72 15,-15 v -71.27 c 0,-8.29 -6.71,-15 -15,-15"
         style="fill:#f3f2f1;fill-opacity:1;fill-rule:nonzero;stroke:none"
         id="path36" /><path
         d="m 3192.14,1773.58 h -315.71 c -8.29,0 -15,6.72 -15,15 v 71.27 c 0,8.28 6.71,15 15,15 h 315.71 c 8.29,0 15,-6.72 15,-15 v -71.27 c 0,-8.28 -6.71,-15 -15,-15"
         style="fill:#f3f2f1;fill-opacity:1;fill-rule:nonzero;stroke:none"
         id="path38" /><path
         d="m 2151.57,2653.03 h -315.72 c -8.28,0 -15,6.72 -15,15 v 71.27 c 0,8.28 6.72,15 15,15 h 315.72 c 8.28,0 15,-6.72 15,-15 v -71.27 c 0,-8.28 -6.72,-15 -15,-15"
         style="fill:#f3f2f1;fill-opacity:1;fill-rule:nonzero;stroke:none"
         id="path40" /><path
         d="m 2340.14,2523.87 h -315.72 c -8.28,0 -15,6.72 -15,15 v 71.27 c 0,8.29 6.72,15 15,15 h 315.72 c 8.28,0 15,-6.71 15,-15 v -71.27 c 0,-8.28 -6.72,-15 -15,-15"
         style="fill:#f3f2f1;fill-opacity:1;fill-rule:nonzero;stroke:none"
         id="path42" /><path
         d="M 1868.71,3381.71 H 1553 c -8.29,0 -15,6.72 -15,15 v 71.27 c 0,8.29 6.71,15 15,15 h 315.71 c 8.28,0 15,-6.71 15,-15 v -71.27 c 0,-8.28 -6.72,-15 -15,-15"
         style="fill:#f3f2f1;fill-opacity:1;fill-rule:nonzero;stroke:none"
         id="path44" /><path
         d="m 2245.85,3381.71 h -315.71 c -8.28,0 -15,6.72 -15,15 v 71.27 c 0,8.29 6.72,15 15,15 h 315.71 c 8.29,0 15,-6.71 15,-15 v -71.27 c 0,-8.28 -6.71,-15 -15,-15"
         style="fill:#f3f2f1;fill-opacity:1;fill-rule:nonzero;stroke:none"
         id="path46" /><path
         d="m 2057.28,3252.55 h -315.71 c -8.29,0 -15,6.72 -15,15 v 71.27 c 0,8.29 6.71,15 15,15 h 315.71 c 8.28,0 15,-6.71 15,-15 v -71.27 c 0,-8.28 -6.72,-15 -15,-15"
         style="fill:#f3f2f1;fill-opacity:1;fill-rule:nonzero;stroke:none"
         id="path48" /><path
         d="m 4318.96,2844.36 h -750.22 v 750.21 h 750.22 v -750.21"
         style="fill:#e2e2e0;fill-opacity:1;fill-rule:nonzero;stroke:none"
         id="path50" /><path
         d="m 3606.72,2882.33 v 674.26 h 674.26 v -674.26 h -674.26"
         style="fill:#fafaf9;fill-opacity:1;fill-rule:nonzero;stroke:none"
         id="path52" /><path
         d="m 3898.65,3035.45 c 0,0 123.81,253.84 382.33,258.93 v -412.05 h -337.13 l -45.2,153.12"
         style="fill:#ededeb;fill-opacity:1;fill-rule:nonzero;stroke:none"
         id="path54" /><path
         d="m 3606.72,3106.72 c 0,0 111.33,58.37 224.49,15.53 142.09,-53.8 224.48,-239.92 224.48,-239.92 h -448.97 v 224.39"
         style="fill:#f3f2f1;fill-opacity:1;fill-rule:nonzero;stroke:none"
         id="path56" /><path
         d="m 3956.98,3342.84 c 0,-65.7 -53.26,-118.96 -118.96,-118.96 -65.7,0 -118.96,53.26 -118.96,118.96 0,65.7 53.26,118.96 118.96,118.96 65.7,0 118.96,-53.26 118.96,-118.96"
         style="fill:#ffffff;fill-opacity:1;fill-rule:nonzero;stroke:none"
         id="path58" /><path
         d="M 665.707,2250.87 H 1358.98 V 3593.01 H 665.707 Z"
         style="fill:#e2e2e0;fill-opacity:1;fill-rule:nonzero;stroke:none"
         id="path60" /><path
         d="M 705.707,2290.87 V 3553.01 H 1318.98 V 2290.87 H 705.707"
         style="fill:#fafaf9;fill-opacity:1;fill-rule:nonzero;stroke:none"
         id="path62" /><path
         d="m 1043.36,3161.92 c 0,-69.21 -56.098,-125.3 -125.301,-125.3 -69.204,0 -125.305,56.09 -125.305,125.3 0,69.2 56.101,125.3 125.305,125.3 69.203,0 125.301,-56.1 125.301,-125.3"
         style="fill:#ffffff;fill-opacity:1;fill-rule:nonzero;stroke:none"
         id="path64" /><path
         d="m 820.355,2290.87 c 0,0 155.211,746.31 498.625,813.31 V 2290.87 H 1012.34 820.355"
         style="fill:#ededeb;fill-opacity:1;fill-rule:nonzero;stroke:none"
         id="path66" /><path
         d="m 705.707,2733.79 c 0,0 79.004,76.18 204.188,30.63 235.215,-85.58 366.505,-473.55 366.505,-473.55 H 705.707 v 442.92"
         style="fill:#f3f2f1;fill-opacity:1;fill-rule:nonzero;stroke:none"
         id="path68" /><path
         d="m 4324.79,593.539 56.59,844.091 h -651.36 l 56.58,-844.091 h 538.19"
         style="fill:#f3f2f1;fill-opacity:1;fill-rule:nonzero;stroke:none"
         id="path70" /><path
         d="m 4375.95,1358.22 -637.99,-36.76 -4.57,66.88 h 644.62 l -2.06,-30.12"
         style="fill:#e2e2e0;fill-opacity:1;fill-rule:nonzero;stroke:none"
         id="path72" /><path
         d="m 4416.05,1388.34 h -720.72 c -2.42,0 -4.38,1.97 -4.38,4.39 v 65.17 c 0,2.42 1.96,4.38 4.38,4.38 h 720.72 c 2.43,0 4.39,-1.96 4.39,-4.38 v -65.17 c 0,-2.42 -1.96,-4.39 -4.39,-4.39"
         style="fill:#f3f2f1;fill-opacity:1;fill-rule:nonzero;stroke:none"
         id="path74" /><path
         d="M 4308.41,1252.55 4292.4,970.359 h -473.41 l -16.01,282.191 h 505.43"
         style="fill:#e2e2e0;fill-opacity:1;fill-rule:nonzero;stroke:none"
         id="path76" /><path
         d="m 4079.33,1099.81 c 0,-13.05 -10.59,-23.63 -23.64,-23.63 -13.04,0 -23.62,10.58 -23.62,23.63 0,13.05 10.58,23.63 23.62,23.63 13.05,0 23.64,-10.58 23.64,-23.63"
         style="fill:#dadbd8;fill-opacity:1;fill-rule:nonzero;stroke:none"
         id="path78" /><path
         d="m 4286.12,904.27 -14.6,-257.301 h -431.66 l -14.6,257.301 h 460.86"
         style="fill:#e2e2e0;fill-opacity:1;fill-rule:nonzero;stroke:none"
         id="path80" /><path
         d="m 4079.33,766.27 c 0,-13.051 -10.59,-23.622 -23.64,-23.622 -13.04,0 -23.62,10.571 -23.62,23.622 0,13.058 10.58,23.628 23.62,23.628 13.05,0 23.64,-10.57 23.64,-23.628"
         style="fill:#dadbd8;fill-opacity:1;fill-rule:nonzero;stroke:none"
         id="path82" /><path
         d="m 3986.29,593.531 c -1.29,0 -2.57,-0.011 -3.84,-0.011 -65.32,-0.86 -121.36,-45.872 -135.91,-108.122 l -4.04,-17.277 h -50.6 l -4.87,125.41 h 199.26"
         style="fill:#e2e2e0;fill-opacity:1;fill-rule:nonzero;stroke:none"
         id="path84" /><path
         d="m 4125.26,593.531 c 1.29,0 2.57,-0.011 3.84,-0.011 65.33,-0.86 121.36,-45.872 135.92,-108.122 l 4.03,-17.277 h 50.38 l 5.09,125.41 h -199.26"
         style="fill:#e2e2e0;fill-opacity:1;fill-rule:nonzero;stroke:none"
         id="path86" /><path
         d="m 3926.02,1884.04 c 0,0 -57.07,-16.26 -120.02,65.32 -45.5,58.97 -126.03,184.78 -237.15,186.94 0,0 131.86,57.15 248.24,-1.06 116.38,-58.2 178.47,-208.86 108.93,-251.2"
         style="fill:#ededeb;fill-opacity:1;fill-rule:nonzero;stroke:none"
         id="path88" /><path
         d="m 3960.03,1648.49 -0.16,0.01 c -1.66,0.07 -2.94,1.49 -2.86,3.15 0.04,0.79 3.7,79.48 -11.94,169.06 -14.38,82.33 -48.46,190.98 -129.17,241.06 -1.42,0.88 -1.85,2.74 -0.97,4.15 0.87,1.42 2.74,1.85 4.15,0.97 36.56,-22.68 66.89,-58.74 90.11,-107.15 18.51,-38.57 32.58,-85.02 41.84,-138.1 15.74,-90.23 12.05,-169.49 12.01,-170.28 -0.08,-1.61 -1.42,-2.87 -3.01,-2.87"
         style="fill:#dadbd8;fill-opacity:1;fill-rule:nonzero;stroke:none"
         id="path90" /><path
         d="m 3969.23,2063.68 c 0,0 57.78,13.53 73.15,115.42 11.12,73.64 20.36,222.74 116.44,278.61 0,0 -143.03,-14.13 -216.46,-121.55 -73.41,-107.43 -54.48,-269.27 26.87,-272.48"
         style="fill:#ededeb;fill-opacity:1;fill-rule:nonzero;stroke:none"
         id="path92" /><path
         d="m 4048.73,1641.84 c -1.23,0 -2.38,0.76 -2.83,1.98 -0.38,1.04 -38.45,106 -66.23,235.52 -16.33,76.1 -25.97,145.69 -28.65,206.83 -3.37,76.62 4.24,140.17 22.63,188.89 0.59,1.56 2.34,2.34 3.89,1.76 1.55,-0.6 2.34,-2.33 1.76,-3.89 -41.06,-108.75 -19.26,-273.34 6.25,-392.26 27.69,-129.11 65.64,-233.75 66.01,-234.78 0.58,-1.57 -0.23,-3.3 -1.79,-3.87 l -1.04,-0.18"
         style="fill:#dadbd8;fill-opacity:1;fill-rule:nonzero;stroke:none"
         id="path94" /><path
         d="m 4070.28,2013.79 c 0,0 58.79,-8.03 109.59,81.63 36.71,64.8 98.66,200.73 208.36,218.56 0,0 -138.62,37.95 -245.6,-36.11 -106.99,-74.07 -147.17,-231.99 -72.35,-264.08"
         style="fill:#ededeb;fill-opacity:1;fill-rule:nonzero;stroke:none"
         id="path96" /><path
         d="m 4079.29,1641.84 c -1.42,0 -2.68,0.99 -2.96,2.43 -0.2,0.98 -19.44,100.03 -19.99,218.46 -0.33,69.64 5.76,132.29 18.09,186.2 15.48,67.63 40.9,121.69 75.56,160.68 1.11,1.25 3.02,1.36 4.26,0.26 1.25,-1.11 1.36,-3.02 0.25,-4.26 -77.09,-86.73 -92.65,-234.31 -92.14,-342.85 0.56,-117.88 19.69,-216.34 19.89,-217.32 0.32,-1.64 -0.75,-3.22 -2.38,-3.55 l -0.58,-0.05"
         style="fill:#dadbd8;fill-opacity:1;fill-rule:nonzero;stroke:none"
         id="path98" /><path
         d="m 4171.29,1876.66 c 0,0 56.02,-19.54 123.62,58.23 48.85,56.21 136.57,177.13 247.64,172.8 0,0 -128.32,64.74 -247.89,13.41 -119.56,-51.34 -190.33,-198.12 -123.37,-244.44"
         style="fill:#ededeb;fill-opacity:1;fill-rule:nonzero;stroke:none"
         id="path100" /><path
         d="m 4116.75,1641.84 c -1.63,0 -2.97,1.29 -3.02,2.92 -0.02,0.69 -1.7,68.75 18.88,152.54 12.08,49.25 29.38,94.26 51.4,133.76 27.57,49.47 62.67,90.4 104.31,121.68 1.34,1 3.22,0.74 4.22,-0.59 1,-1.34 0.73,-3.22 -0.6,-4.23 -92.83,-69.72 -134.7,-175.55 -153.48,-252.05 -20.38,-83.01 -18.72,-150.27 -18.7,-150.93 0.04,-1.67 -1.26,-3.06 -2.92,-3.1 h -0.09"
         style="fill:#dadbd8;fill-opacity:1;fill-rule:nonzero;stroke:none"
         id="path102" /><path
         d="m 4298.34,1571.87 c -0.17,-8.87 -1.58,-17.86 -4.19,-26.89 -11.4,-39.51 -45.43,-68.5 -86.13,-74.32 -99.39,-14.2 -201.92,-13.19 -307.08,0.64 -46.04,6.05 -83.6,41.05 -90.89,86.9 -1.24,7.75 -1.55,15.45 -0.92,23.1 2.17,26.42 15.73,52.21 42.35,77.2 h 404.22 c 29.77,-27.96 43.2,-56.87 42.64,-86.63"
         style="fill:#dadbd8;fill-opacity:1;fill-rule:nonzero;stroke:none"
         id="path104" /><path
         d="M 4503.2,61.4102 C 4503.2,27.4883 3625.59,0 2543,0 1460.4,0 582.781,27.4883 582.781,61.4102 c 0,33.9101 877.619,61.3988 1960.219,61.3988 1082.59,0 1960.2,-27.4887 1960.2,-61.3988"
         style="fill:#ededeb;fill-opacity:1;fill-rule:nonzero;stroke:none"
         id="path106" /><path
         d="m 2279.15,448.07 6.42,-36.39 1.34,-7.649 18.15,-102.922 1.5,-8.468 32.85,-186.282 c 0.56,-3.117 1.34,-6.121 2.33,-9.0074 1.01,-2.9219 2.26,-5.7305 3.67,-8.4024 9.96,-18.6797 29.58,-31.0078 51.7,-31.0078 h 262.47 c 28.43,0 52.75,20.3984 57.7,48.4176 l 12.67,71.813 1.34,7.68 v 0.027 l 18.7,106.031 2.59,14.621 v 0.028 l 8.05,45.671 1.54,8.7 15.35,87.14 h -498.37"
         style="fill:#17282f;fill-opacity:1;fill-rule:nonzero;stroke:none"
         id="path108" /><path
         d="m 2527.44,872.68 c 0,0 69.47,98.332 68.91,159.48 -0.65,68.93 -36.99,59.04 -36.99,59.04 0,0 14.25,209.47 -35.71,219.61 0,0 -8.84,172.42 -81,149.35 -72.18,-23.08 -39.52,-171.57 -39.52,-171.57 0,0 -19.93,-22.37 -23.81,-52.86 -7.47,-58.72 47.23,-156.7 47.23,-156.7 0,0 -32.74,-18.36 -22.58,-68.88 10.18,-50.529 123.47,-137.47 123.47,-137.47"
         style="fill:#406fbf;fill-opacity:1;fill-rule:nonzero;stroke:none"
         id="path110" /><path
         d="m 2532.73,499.121 c 0,0 -153.09,37.25 -168.55,90.508 -15.45,53.25 -0.11,75.492 -0.11,75.492 0,0 -113.06,156.09 -75.37,190.449 0,0 -80.72,152.53 -6.9,169.76 73.82,17.13 121.85,-127.189 121.85,-127.189 0,0 28.58,-9 47.48,-33.121 36.46,-46.59 39.69,-158.77 39.69,-158.77 0,0 20.79,11.559 38.02,-37.02 17.13,-48.589 3.89,-170.109 3.89,-170.109"
         style="fill:#406fbf;fill-opacity:1;fill-rule:nonzero;stroke:none"
         id="path112" /><path
         d="m 2564.57,630.332 c 0,0 144.22,61.188 154.75,115.629 10.52,54.43 -6.72,75.16 -6.72,75.16 0,0 98.37,165.75 57.67,196.479 0,0 66.53,159.31 -8.53,169.68 -75.06,10.37 -109.76,-137.66 -109.76,-137.66 0,0 -27.63,-11.56 -44.3,-37.38 -32.11,-49.728 -25.1,-161.728 -25.1,-161.728 0,0 -21.78,9.668 -34.44,-40.301 -12.65,-49.961 16.43,-179.879 16.43,-179.879"
         style="fill:#406fbf;fill-opacity:1;fill-rule:nonzero;stroke:none"
         id="path114" /><path
         d="m 2551.7,424.379 c -2.15,0 -3.91,1.723 -3.96,3.883 -8,378.617 -72.23,783.318 -72.87,787.358 -0.34,2.16 1.13,4.19 3.28,4.54 2.2,0.3 4.19,-1.12 4.54,-3.29 0.64,-4.04 64.95,-409.28 72.96,-788.448 0.04,-2.184 -1.69,-3.992 -3.87,-4.043 h -0.08"
         style="fill:#17282f;fill-opacity:1;fill-rule:nonzero;stroke:none"
         id="path116" /><path
         d="m 2547.76,538 -0.49,0.031 c -2.17,0.27 -3.71,2.25 -3.43,4.418 13.46,107.449 124.14,370.543 125.25,373.172 0.85,2.027 3.2,2.938 5.19,2.117 2.02,-0.859 2.96,-3.179 2.11,-5.179 -1.12,-2.649 -111.36,-264.727 -124.7,-371.098 -0.24,-2 -1.96,-3.461 -3.93,-3.461"
         style="fill:#17282f;fill-opacity:1;fill-rule:nonzero;stroke:none"
         id="path118" /><path
         d="m 2551.7,428.52 c -1.53,0 -3.01,0.91 -3.65,2.421 -35.35,83.61 -94.77,204.809 -152.24,322.02 -12.61,25.719 -25.21,51.418 -37.58,76.789 -0.96,1.961 -0.15,4.332 1.81,5.289 1.98,0.981 4.33,0.152 5.3,-1.828 12.37,-25.352 24.98,-51.051 37.58,-76.77 57.51,-117.3 116.97,-238.601 152.43,-322.41 0.84,-2.019 -0.1,-4.34 -2.11,-5.191 l -1.54,-0.32"
         style="fill:#17282f;fill-opacity:1;fill-rule:nonzero;stroke:none"
         id="path120" /><path
         d="m 3365.88,2532.16 c -32.8,-58 -67.71,-112.9 -105.4,-167.7 -15.4,-22.3 -31.3,-44.5 -48.3,-66.4 -3.8,-5 -7.6,-9.9 -11.51,-14.8 -3.69,-4.7 -7.39,-9.3 -11.19,-14 -7.21,-8.7 -14.61,-17.4 -22.5,-26.2 -12.3,-13.5 -24.7,-26.8 -42.2,-41.3 -9.51,-7.3 -18.2,-15.3 -39.91,-24.29 -3.29,-1.21 -6.19,-2.21 -9.79,-3.11 -4.01,-1 -8.61,-1.9 -12.2,-2.29 -3.2,-0.31 -6.41,-0.61 -9.5,-0.61 -2.8,0 -5.5,0.2 -8.3,0.41 -10.4,0.8 -18.5,2.79 -25.7,4.89 -13.8,4.5 -24.11,9.7 -33.5,14.9 -9.3,5.2 -17.6,10.5 -25.5,16.01 -30.9,21.49 -55.9,44.8 -80.51,68.19 -48.4,47.4 -91.09,112.7 -111.91,150.92 l 29.6,45.09 c 24.9,-19.3 52.4,-39.69 77.8,-58.69 25.21,-19.3 49.08,-37.72 74.58,-55.42 25,-17.9 52.43,-31.2 76.24,-43.9 4.8,-2.4 9.49,-4.7 13.8,-6.59 6.3,6.49 14.1,15.79 21.4,25.2 8.8,11.29 17.7,23.29 26.5,35.69 17.5,24.8 34.8,50.9 51.8,77.2 34.1,52.6 67.69,107.31 100.9,160.3 l 125.3,-73.5"
         style="fill:#406fbf;fill-opacity:1;fill-rule:nonzero;stroke:none"
         id="path122" /><path
         d="m 2731.38,2457.71 c 0,0 -21.97,19.23 -41.58,34.85 -19.6,15.61 16.94,16.51 33.88,7.92 22.85,-11.59 38,-26.5 38,-26.5 l -30.3,-16.27"
         style="fill:#f9a8b3;fill-opacity:1;fill-rule:nonzero;stroke:none"
         id="path124" /><path
         d="m 2731.38,2457.71 c 0,0 -21.97,19.23 -41.58,34.85 -3.97,3.16 -5.64,5.72 -5.63,7.72 0.02,3.85 6.25,5.62 14.19,5.62 8.28,0 18.42,-1.92 25.32,-5.42 22.85,-11.59 38,-26.5 38,-26.5 l -30.3,-16.27"
         style="fill:#d8898c;fill-opacity:1;fill-rule:nonzero;stroke:none"
         id="path126" /><path
         d="m 2767.96,2426.78 c 0,0 -30.88,-3.74 -77.27,-5.78 -46.39,-2.04 -75.98,41.6 -99.09,54.18 -23.1,12.6 31.65,20.86 50.43,2.91 18.79,-17.96 70.18,-2.04 89.85,4.4 19.69,6.44 54.26,5.1 65.68,-10.62 0.43,-15.55 -11.78,-49.81 -29.6,-45.09"
         style="fill:#f9a8b3;fill-opacity:1;fill-rule:nonzero;stroke:none"
         id="path128" /><path
         d="M 3430.18,280.309 V 128.922 l -61.15,-4.883 -29.94,141.75 91.09,14.52"
         style="fill:#f9a8b3;fill-opacity:1;fill-rule:nonzero;stroke:none"
         id="path130" /><path
         d="m 3386.8,138.301 c 0,0 -19.22,36.898 -30.57,32.969 -11.35,-3.95 -15.98,-48.711 -15.98,-48.711 0,0 -61.62,-20.618 -78.84,-21.7 -17.22,-1.0895 -31.16,-10.8473 -33.36,-44.4684 h 210.44 c 0,0 -1.42,75.9184 -1.8,88.9414 -0.39,13.02 -18.92,-3.25 -18.92,-3.25 l -30.97,-3.781"
         style="fill:#406fbf;fill-opacity:1;fill-rule:nonzero;stroke:none"
         id="path132" /><path
         d="m 3438.49,56.3906 h -210.44 c 2.2,33.6211 16.14,43.3789 33.36,44.4684 17.22,1.082 78.84,21.7 78.84,21.7 0,0 4.63,44.761 15.98,48.711 0.57,0.199 1.17,0.289 1.78,0.289 11.46,0 28.79,-33.258 28.79,-33.258 l 30.97,3.781 c 0,0 9.45,8.297 15,8.297 2.21,0 3.81,-1.328 3.92,-5.047 0.38,-13.023 1.8,-88.9414 1.8,-88.9414"
         style="fill:#5d87cd;fill-opacity:1;fill-rule:nonzero;stroke:none"
         id="path134" /><path
         d="m 3436.16,116.469 c -14.71,-8.969 -21.62,-26.8206 -11.43,-44.3596 1.13,-1.9375 -1.54,-3.6485 -2.67,-1.6875 -11.16,19.207 -4.28,38.9761 12.05,48.9371 1.74,1.063 3.79,-1.82 2.05,-2.89"
         style="fill:#ffffff;fill-opacity:1;fill-rule:nonzero;stroke:none"
         id="path136" /><path
         d="m 3436.47,68.4805 c -55.02,-0.5821 -110.04,-1.1602 -165.07,-1.7305 -12.8,-0.1289 -25.59,-0.2695 -38.38,-0.3984 -2.15,-0.0196 -2.58,3.3203 -0.43,3.3398 55.03,0.5703 110.06,1.1484 165.08,1.7305 12.79,0.1289 25.58,0.2578 38.37,0.3984 2.15,0.0195 2.58,-3.3203 0.43,-3.3398"
         style="fill:#ffffff;fill-opacity:1;fill-rule:nonzero;stroke:none"
         id="path138" /><path
         d="m 3349.36,109.32 c -8.64,10.301 -21.22,13.192 -30.69,5.43 -1.57,-1.281 -3.6,1.621 -2.06,2.891 10.85,8.879 25.63,5.039 35.43,-6.629 1.48,-1.762 -1.21,-3.43 -2.68,-1.692"
         style="fill:#ffffff;fill-opacity:1;fill-rule:nonzero;stroke:none"
         id="path140" /><path
         d="m 3331.93,103.852 c -8.64,10.296 -21.22,13.187 -30.69,5.429 -1.57,-1.281 -3.6,1.617 -2.06,2.879 10.85,8.879 25.62,5.059 35.43,-6.621 1.47,-1.758 -1.21,-3.43 -2.68,-1.687"
         style="fill:#ffffff;fill-opacity:1;fill-rule:nonzero;stroke:none"
         id="path142" /><path
         d="m 3313.92,98.3789 c -8.65,10.2931 -21.23,13.1911 -30.71,5.4301 -1.56,-1.289 -3.6,1.613 -2.05,2.882 10.84,8.887 25.62,5.059 35.42,-6.632 1.48,-1.7504 -1.21,-3.4301 -2.66,-1.6801"
         style="fill:#ffffff;fill-opacity:1;fill-rule:nonzero;stroke:none"
         id="path144" /><path
         d="m 3466.89,1780.77 c -1.74,-27.01 1.97,-109.98 -1.7,-154.51 -6.88,-84.88 -16.12,-194.94 -23.43,-305.19 -8.55,-127.66 -28.22,-249.6 -25.17,-338.308 7.84,-227.801 19.67,-749.973 19.67,-749.973 h -98.82 c 0,0 -116.08,513.121 -137.78,744.063 -18.13,191.458 -8.51,684.698 -5.46,803.918 h 272.69"
         style="fill:#17282f;fill-opacity:1;fill-rule:nonzero;stroke:none"
         id="path146" /><path
         d="m 3441.76,1321.07 c -32.54,96.32 -23.1,225.56 -13.29,300.56 7.62,-39.31 16.45,-82.93 25.94,-128.64 -4.33,-54.75 -8.76,-113.31 -12.65,-171.92 v 0"
         style="fill:#111d23;fill-opacity:1;fill-rule:nonzero;stroke:none"
         id="path148" /><path
         d="m 3444.86,229.289 h -115.97 l -8.52,36.992 129.88,4.52 -5.39,-41.512"
         style="fill:#406fbf;fill-opacity:1;fill-rule:nonzero;stroke:none"
         id="path150" /><path
         d="M 3568.83,961.84 C 3616.59,734.891 3793,239.719 3793,239.719 l 98.21,11.179 c 0,0 -71.53,508.594 -105.04,733.993 -30.24,203.429 -49.2,667.679 -56.02,805.969 l -328.01,-10.09 c 10.43,-118.74 127.06,-630.68 166.69,-818.93"
         style="fill:#17282f;fill-opacity:1;fill-rule:nonzero;stroke:none"
         id="path152" /><path
         d="M 3882.91,280.309 V 128.922 l -61.15,-4.883 -29.93,141.75 91.08,14.52"
         style="fill:#f9a8b3;fill-opacity:1;fill-rule:nonzero;stroke:none"
         id="path154" /><path
         d="m 3839.53,138.301 c 0,0 -19.23,36.898 -30.58,32.969 -11.34,-3.95 -15.96,-48.711 -15.96,-48.711 0,0 -61.63,-20.618 -78.85,-21.7 -17.22,-1.0895 -31.16,-10.8473 -33.37,-44.4684 h 210.44 c 0,0 -1.42,75.9184 -1.8,88.9414 -0.38,13.02 -18.91,-3.25 -18.91,-3.25 l -30.97,-3.781"
         style="fill:#406fbf;fill-opacity:1;fill-rule:nonzero;stroke:none"
         id="path156" /><path
         d="m 3891.21,56.3906 h -210.44 c 2.21,33.6211 16.15,43.3789 33.37,44.4684 17.22,1.082 78.85,21.7 78.85,21.7 0,0 4.62,44.761 15.96,48.711 0.58,0.199 1.17,0.289 1.79,0.289 11.46,0 28.79,-33.258 28.79,-33.258 l 30.97,3.781 c 0,0 9.45,8.297 15,8.297 2.21,0 3.81,-1.328 3.91,-5.047 0.38,-13.023 1.8,-88.9414 1.8,-88.9414"
         style="fill:#5d87cd;fill-opacity:1;fill-rule:nonzero;stroke:none"
         id="path158" /><path
         d="m 3888.9,116.469 c -14.73,-8.969 -21.63,-26.8206 -11.45,-44.3596 1.13,-1.9375 -1.53,-3.6485 -2.66,-1.6875 -11.17,19.207 -4.28,38.9761 12.05,48.9371 1.73,1.063 3.79,-1.82 2.06,-2.89"
         style="fill:#ffffff;fill-opacity:1;fill-rule:nonzero;stroke:none"
         id="path160" /><path
         d="m 3889.2,68.4805 c -55.02,-0.5821 -110.05,-1.1602 -165.08,-1.7305 -12.79,-0.1289 -25.59,-0.2695 -38.38,-0.3984 -2.15,-0.0196 -2.58,3.3203 -0.43,3.3398 55.03,0.5703 110.06,1.1484 165.09,1.7305 12.79,0.1289 25.59,0.2578 38.38,0.3984 2.15,0.0195 2.58,-3.3203 0.42,-3.3398"
         style="fill:#ffffff;fill-opacity:1;fill-rule:nonzero;stroke:none"
         id="path162" /><path
         d="m 3802.1,109.32 c -8.65,10.301 -21.23,13.192 -30.7,5.43 -1.57,-1.281 -3.61,1.621 -2.06,2.891 10.85,8.879 25.62,5.039 35.43,-6.629 1.47,-1.762 -1.22,-3.43 -2.67,-1.692"
         style="fill:#ffffff;fill-opacity:1;fill-rule:nonzero;stroke:none"
         id="path164" /><path
         d="m 3784.67,103.852 c -8.64,10.296 -21.23,13.187 -30.71,5.429 -1.56,-1.281 -3.6,1.617 -2.05,2.879 10.84,8.879 25.62,5.059 35.42,-6.621 1.48,-1.758 -1.21,-3.43 -2.66,-1.687"
         style="fill:#ffffff;fill-opacity:1;fill-rule:nonzero;stroke:none"
         id="path166" /><path
         d="m 3766.64,98.3789 c -8.64,10.2931 -21.22,13.1911 -30.7,5.4301 -1.57,-1.289 -3.61,1.613 -2.05,2.882 10.85,8.887 25.61,5.059 35.42,-6.632 1.47,-1.7504 -1.2,-3.4301 -2.67,-1.6801"
         style="fill:#ffffff;fill-opacity:1;fill-rule:nonzero;stroke:none"
         id="path168" /><path
         d="m 3900.13,248.352 -115.24,-13.122 -12.63,35.79 128.53,19.191 -0.66,-41.859"
         style="fill:#406fbf;fill-opacity:1;fill-rule:nonzero;stroke:none"
         id="path170" /><path
         d="m 3753.28,1768.56 c -232,-26.1 -453.6,-8.49 -573.7,12.2 6,59.31 43.1,778.4 58.19,819.9 14.01,38.6 79.6,57.4 126.51,65.1 11.3,1.91 21.39,3.2 29.6,3.9 41.1,3.8 86.5,4.1 132.9,3.01 22.19,-0.61 44.69,-1.51 67,-2.61 32.5,-1.5 47.4,-2.7 71.89,-5.7 37.41,-4.6 63.41,-34.1 59.91,-81.89 -4.7,-62.41 -6.9,-124.71 -7.3,-185.71 -0.11,-16.1 -0.11,-31.99 0,-47.9 2.1,-278.6 37.79,-518.79 35,-580.3"
         style="fill:#406fbf;fill-opacity:1;fill-rule:nonzero;stroke:none"
         id="path172" /><path
         d="m 3512.14,1755.47 c -136.61,0 -255.48,12.01 -332.56,25.29 6,59.31 43.1,778.4 58.19,819.9 14.01,38.6 79.6,57.4 126.51,65.1 6.46,1.09 12.53,1.98 18.08,2.68 0.09,-3.71 0,-7.39 -0.26,-11.02 -0.4,-5.94 -1.3,-11.7 -2.49,-17.24 -4.04,-11.99 -5.89,-35.13 14.28,-35.13 0.72,0 1.46,0.03 2.23,0.09 34.97,2.71 99.08,51.78 101.28,67.27 -0.08,0.25 -0.17,0.5 -0.26,0.75 9.81,-0.09 19.7,-0.26 29.64,-0.49 22.19,-0.61 44.69,-1.51 67,-2.61 32.5,-1.5 47.4,-2.7 71.89,-5.7 35.14,-4.32 60.22,-30.62 60.22,-73.41 0,-2.76 -0.1,-5.59 -0.31,-8.48 -4.7,-62.41 -6.9,-124.71 -7.3,-185.71 -0.05,-8.05 -0.08,-16.05 -0.08,-24.02 0,-7.98 0.03,-15.93 0.08,-23.88 2.02,-267.99 35.12,-500.44 35.16,-572.5 0,-2.85 -0.05,-5.45 -0.16,-7.8 -83.11,-9.35 -164.89,-13.09 -241.14,-13.09"
         style="fill:#90b4e3;fill-opacity:1;fill-rule:nonzero;stroke:none"
         id="path174" /><path
         d="m 3729.58,2051.09 45.97,-63.13 c 62.43,36.07 121.44,74.78 179.41,119.96 14.44,11.3 28.99,23.03 43.17,36.17 14.36,13.3 28.45,26.61 43.43,45.96 3.76,4.91 7.62,10.51 11.47,17.08 3.85,6.83 8.05,14.8 11.47,27.23 0.87,2.89 1.66,6.74 2.19,10.68 0.61,3.42 0.97,8.67 0.97,13.31 0,2.19 -0.18,5.17 -0.53,8.06 -0.35,2.8 -0.7,5.6 -1.32,8.49 -0.69,3.15 -1.57,6.31 -2.71,9.37 l -1.58,4.55 -1.14,2.54 -2.36,4.99 -2.01,3.68 -1.93,3.42 -1.67,2.71 c -2.27,3.68 -4.11,6.31 -6.03,9.2 -7.36,10.24 -13.67,18.12 -20.06,25.74 -6.39,7.62 -12.61,14.79 -18.82,21.8 -24.96,27.58 -50.09,52.97 -75.3,78.19 -25.48,24.87 -50.88,49.65 -76.98,73.47 -50.45,46.79 -101.66,92.09 -155.14,135.49 -2.84,2.3 -6.39,3.74 -10.04,3.79 l -2.17,0.01 c -80.18,-0.63 -114.39,-103.09 -54,-155.85 38.78,-33.9 78.25,-67.35 117.42,-100.6 l 78.81,-67.07 c 26.18,-22.16 52.1,-44.66 76.27,-66.81 5.87,-5.34 11.64,-10.68 16.89,-15.85 -4.2,-5.61 -8.92,-11.47 -13.74,-17.16 -10.16,-11.91 -21.19,-24.17 -32.66,-36.25 -46.06,-48.34 -97.28,-95.97 -147.28,-143.17"
         style="fill:#406fbf;fill-opacity:1;fill-rule:nonzero;stroke:none"
         id="path176" /><path
         d="m 3764.01,2076.94 c 0,0 -74.42,-4.31 -87.44,-13.94 -13.02,-9.62 29.88,-95.83 51.2,-112.05 21.32,-16.22 16.8,15.97 16.8,15.97 0,0 39.57,12.94 60.37,32.51 20.81,19.57 15.83,57.91 -40.93,77.51"
         style="fill:#f9a8b3;fill-opacity:1;fill-rule:nonzero;stroke:none"
         id="path178" /><path
         d="m 3526.78,2672.67 c -17,-29.01 -63.49,-90.99 -131,-91.21 -50,-0.16 -45,58.6 -31.5,84.3 11.3,1.91 21.39,3.2 29.6,3.9 41.1,3.8 86.5,4.1 132.9,3.01"
         style="fill:#406fbf;fill-opacity:1;fill-rule:nonzero;stroke:none"
         id="path180" /><path
         d="m 3355.12,3029.18 c 63.16,6.63 83.12,-2.15 115.23,-23.23 20.97,-13.77 51.26,-41.52 56.43,-74.85 15.78,-101.84 -56.84,-139.17 -56.84,-139.17 l -198.08,112.22 c 0,0 -53.21,68.8 -2.03,116.11 25.71,23.75 53.82,5.62 85.29,8.92"
         style="fill:#17282f;fill-opacity:1;fill-rule:nonzero;stroke:none"
         id="path182" /><path
         d="m 3371.68,2715.26 -0.01,-0.08 0.3,-0.74 9.67,-35.5 c 0.82,-7.26 0.97,-14.49 0.46,-21.52 -0.4,-5.94 -1.3,-11.7 -2.49,-17.24 -4.18,-12.42 -6.02,-36.79 16.51,-35.04 34.97,2.71 99.08,51.78 101.28,67.27 -16.58,47.83 -30.57,103.79 -28.29,149.62 l -39.73,-43.59 -57.7,-63.18"
         style="fill:#f9a8b3;fill-opacity:1;fill-rule:nonzero;stroke:none"
         id="path184" /><path
         d="m 3381.64,2678.94 v 0 l -9.67,35.5 48.48,53.25 c 6.81,-0.81 14.52,-16.52 10.97,-33.41 -5.09,-23.4 -27.9,-45.17 -49.78,-55.34"
         style="fill:#d8898c;fill-opacity:1;fill-rule:nonzero;stroke:none"
         id="path186" /><path
         d="m 3282.61,2788.3 c 2.13,-7.71 4.51,-15.32 7.05,-22.82 22.62,-66.2 104.54,-71.61 155.1,-22.35 l 0.15,0.2 c 4.48,4.37 8.74,9.16 12.68,14.44 32.05,42.81 23.68,75.47 18.25,149.72 -5.43,74.17 -85.14,119.95 -152.2,81.46 -61.89,-35.52 -62.49,-123.44 -41.03,-200.65"
         style="fill:#f9a8b3;fill-opacity:1;fill-rule:nonzero;stroke:none"
         id="path188" /><path
         d="m 3281.19,2793.59 c 0,0 2.15,-82.69 51.67,-96.66 38.81,-10.95 102.85,6.17 108.09,61.25 4.75,50 5.52,98.55 5.52,98.55 l -18.29,-3.92 c 0,0 -25.32,-40.16 -35.74,-41.98 -10.41,-1.82 -14.07,10.62 -64.59,1.86 -36.86,-6.39 -46.66,-19.1 -46.66,-19.1"
         style="fill:#17282f;fill-opacity:1;fill-rule:nonzero;stroke:none"
         id="path190" /><path
         d="m 3314.29,2783.44 c 15.84,4.86 26.32,9.31 50.51,19.38 0,0 3.16,-25.73 -22.67,-31.2 -18.98,-4.03 -27.84,11.82 -27.84,11.82"
         style="fill:#ffffff;fill-opacity:1;fill-rule:nonzero;stroke:none"
         id="path192" /><path
         d="m 3428.28,2925.89 c 18.73,-4.64 -0.1,-73.08 -0.1,-73.08 l 26.44,5.67 c 0,0 -2,2.51 -1.16,21.7 0.84,19.19 23.25,20.38 23.25,20.38 0,0 5.46,55.63 -23.47,90.42 -28.93,34.8 -100.05,29.43 -135.28,5.4 -35.24,-24.03 -42.62,-68.33 -42.62,-68.33 0,0 24.19,34.71 34.82,34.71 10.62,0 0.62,-14.69 11.87,-14.37 21.56,0.6 31.67,33.75 66.14,25.62 34.49,-8.12 -4.15,-37.15 40.11,-48.12"
         style="fill:#17282f;fill-opacity:1;fill-rule:nonzero;stroke:none"
         id="path194" /><path
         d="m 3514.08,2862.66 c -2.83,-19.86 -14.57,-36.56 -27.92,-46.24 -20.07,-14.56 -38.69,1.31 -40.3,24.76 -1.46,21.09 7.24,54.09 30.85,59.38 23.25,5.21 40.61,-15.2 37.37,-37.9"
         style="fill:#f9a8b3;fill-opacity:1;fill-rule:nonzero;stroke:none"
         id="path196" /><path
         d="m 3366.14,2857.04 c 0.78,-5.81 -1.65,-10.93 -5.45,-11.45 -3.8,-0.51 -7.51,3.78 -8.3,9.59 -0.78,5.8 1.65,10.92 5.45,11.44 3.8,0.51 7.51,-3.78 8.3,-9.58"
         style="fill:#17282f;fill-opacity:1;fill-rule:nonzero;stroke:none"
         id="path198" /><path
         d="m 3302.4,2849.18 c 0.79,-5.8 -1.65,-10.92 -5.45,-11.44 -3.79,-0.51 -7.5,3.78 -8.29,9.58 -0.79,5.81 1.65,10.93 5.45,11.45 3.79,0.51 7.51,-3.78 8.29,-9.59"
         style="fill:#17282f;fill-opacity:1;fill-rule:nonzero;stroke:none"
         id="path200" /><path
         d="m 3277.73,2871.35 c 1.03,0.14 1.95,0.81 2.35,1.84 1.81,4.58 4.52,7.65 8.02,9.11 5.76,2.4 12.08,-0.16 12.14,-0.19 1.46,-0.64 3.24,0.04 3.87,1.56 0.65,1.49 -0.06,3.23 -1.56,3.87 -0.33,0.14 -8.62,3.6 -16.73,0.21 -5.03,-2.09 -8.81,-6.26 -11.23,-12.38 -0.61,-1.52 0.14,-3.24 1.65,-3.84 l 1.49,-0.18"
         style="fill:#17282f;fill-opacity:1;fill-rule:nonzero;stroke:none"
         id="path202" /><path
         d="m 3380.13,2883.15 1.24,0.48 c 1.34,0.9 1.72,2.73 0.81,4.08 -0.21,0.31 -5.25,7.72 -13.88,9.33 -5.36,1 -10.8,-0.42 -16.18,-4.22 -1.34,-0.94 -1.66,-2.78 -0.72,-4.11 0.94,-1.34 2.79,-1.66 4.12,-0.71 4.01,2.83 7.94,3.93 11.65,3.25 6.17,-1.13 10.07,-6.77 10.11,-6.83 0.65,-0.96 1.77,-1.42 2.85,-1.27"
         style="fill:#17282f;fill-opacity:1;fill-rule:nonzero;stroke:none"
         id="path204" /><path
         d="m 3326.86,2869.16 c 0,0 -8.32,-29.79 -22.51,-49.42 -1.55,-2.15 25.27,-6.67 25.27,-6.67 l -2.76,56.09"
         style="fill:#f46878;fill-opacity:1;fill-rule:nonzero;stroke:none"
         id="path206" /><path
         d="m 3377.7,2685.98 0.02,0.13 -0.09,-0.13 z"
         style="fill:#040606;fill-opacity:1;fill-rule:nonzero;stroke:none"
         id="path208" /><path
         d="m 3263.23,3615.95 v -440.21 c 0,-62.73 -40.58,-116.6 -97.04,-135.79 l 9.96,-214.01 -187.08,205.9 h -787.8 c -79.33,0 -143.53,64.57 -143.53,143.9 v 440.21 c 0,79.33 64.2,143.9 143.53,143.9 h 918.06 c 79.33,0 143.9,-64.57 143.9,-143.9"
         style="fill:#406fbf;fill-opacity:1;fill-rule:nonzero;stroke:none"
         id="path210" /><path
         d="m 3176.15,2825.94 -187.08,205.9 h -787.8 c -79.33,0 -143.53,64.57 -143.53,143.9 v 440.21 c 0,79.33 64.2,143.9 143.53,143.9 h 918.06 c 79.33,0 143.9,-64.57 143.9,-143.9 v -440.21 c 0,-62.73 -40.58,-116.6 -97.04,-135.79 v 0 0 l 9.96,-214.01"
         style="fill:#90b4e3;fill-opacity:1;fill-rule:nonzero;stroke:none"
         id="path212" /><path
         d="m 2444.71,3390.8 c 0,-36.64 -29.69,-66.33 -66.32,-66.33 -36.63,0 -66.32,29.69 -66.32,66.33 0,36.62 29.69,66.32 66.32,66.32 36.63,0 66.32,-29.7 66.32,-66.32"
         style="fill:#406fbf;fill-opacity:1;fill-rule:nonzero;stroke:none"
         id="path214" /><path
         d="m 3008.91,3390.8 c 0,-36.64 -29.69,-66.33 -66.32,-66.33 -36.63,0 -66.33,29.69 -66.33,66.33 0,36.62 29.7,66.32 66.33,66.32 36.63,0 66.32,-29.7 66.32,-66.32"
         style="fill:#406fbf;fill-opacity:1;fill-rule:nonzero;stroke:none"
         id="path216" /><path
         d="m 2729.65,3390.8 c 0,-36.64 -29.7,-66.33 -66.32,-66.33 -36.63,0 -66.33,29.69 -66.33,66.33 0,36.62 29.7,66.32 66.33,66.32 36.62,0 66.32,-29.7 66.32,-66.32"
         style="fill:#406fbf;fill-opacity:1;fill-rule:nonzero;stroke:none"
         id="path218" /><path
         d="m 1628.83,226.969 20.9,-99.91 h 52.58 l 5.76,99.91 h -79.24"
         style="fill:#f46b74;fill-opacity:1;fill-rule:nonzero;stroke:none"
         id="path220" /><path
         d="m 1852.63,56.3906 c -1.75,32.5508 -15.72,42.2696 -33.33,43.3789 -18.32,1.1605 -83.12,23.1095 -83.12,23.1095 0,0 -12.99,20.672 -24.92,24.871 -11.92,4.199 -24.01,-8.09 -24.01,-8.09 l -32.87,4.02 c 0,0 -9.39,14.859 -16.65,1.851 -11.22,-20.191 -11.83,-76.0505 -11.29,-89.1404 h 226.19"
         style="fill:#17282f;fill-opacity:1;fill-rule:nonzero;stroke:none"
         id="path222" /><path
         d="m 1848.63,64.8906 c -13.68,0.0586 -27.31,0.1289 -41,0.1914 -59.79,0.2891 -119.58,0.6368 -179.37,0.9375 -2.29,-0.0078 -1.7,3.4922 0.57,3.4297 4.02,-0.0508 8.12,-0.0273 12.15,-0.0703 l 0.21,0.4609 c 11.73,18.7618 4.97,37.8202 -10.64,47.3202 -1.83,1.039 0.49,4.102 2.25,2.988 16.89,-10.296 23.69,-30.6675 11.8,-50.7496 8.45,-0.0781 16.85,-0.1093 25.3,-0.1289 59.73,-0.3007 119.51,-0.6484 179.31,-0.9375 2.28,0.0078 1.7,-3.4922 -0.58,-3.4414"
         style="fill:#406fbf;fill-opacity:1;fill-rule:nonzero;stroke:none"
         id="path224" /><path
         d="m 1725.8,108.809 c 9.69,10.961 23.43,14.062 33.08,5.8 1.56,-1.339 3.82,1.672 2.27,2.993 -11.08,9.488 -27.07,5.367 -38.05,-7.043 -1.61,-1.829 1.1,-3.559 2.7,-1.75"
         style="fill:#ffffff;fill-opacity:1;fill-rule:nonzero;stroke:none"
         id="path226" /><path
         d="m 1744.15,102.98 c 9.69,10.95 23.42,14.059 33.08,5.801 1.56,-1.34 3.81,1.668 2.27,3 -11.09,9.481 -27.07,5.36 -38.05,-7.051 -1.62,-1.832 1.1,-3.558 2.7,-1.75"
         style="fill:#ffffff;fill-opacity:1;fill-rule:nonzero;stroke:none"
         id="path228" /><path
         d="m 1763.12,97.1484 c 9.7,10.9536 23.43,14.0626 33.09,5.8006 1.56,-1.34 3.81,1.672 2.27,3 -11.09,9.481 -27.07,5.36 -38.06,-7.0506 -1.61,-1.8281 1.1,-3.5586 2.7,-1.75"
         style="fill:#ffffff;fill-opacity:1;fill-rule:nonzero;stroke:none"
         id="path230" /><path
         d="m 1024.24,303.832 -22.43,-103.102 47.84,-21.378 44.84,95.679 -70.25,28.801"
         style="fill:#f46b74;fill-opacity:1;fill-rule:nonzero;stroke:none"
         id="path232" /><path
         d="m 1157.69,53.8711 c 11.65,30.3398 2.9,44.8594 -12.68,53.0389 -16.2,8.512 -66.24,54.86 -66.24,54.86 0,0 -3.4,24.089 -12.54,32.761 -9.15,8.668 -25.15,2.399 -25.15,2.399 l -28.28,17.039 c 0,0 -2.5,17.363 -14.394,8.453 C 979.98,208.621 956.699,158.051 951.855,145.91 L 1157.69,53.8711"
         style="fill:#17282f;fill-opacity:1;fill-rule:nonzero;stroke:none"
         id="path234" /><path
         d="m 1157.51,63.2305 c -12.43,5.6406 -24.8,11.2304 -37.24,16.8711 -54.29,24.5894 -108.55,49.2384 -162.836,73.8284 -2.086,0.91 -0.129,3.859 1.921,2.898 3.637,-1.68 7.379,-3.328 11.02,-5.008 l 0.383,0.328 c 18.305,12.293 19.91,32.391 9.574,47.383 -1.25,1.699 2.106,3.539 3.258,1.809 11.18,-16.231 9.082,-37.551 -9.902,-50.988 7.652,-3.512 15.277,-6.954 22.96,-10.411 54.232,-24.57 108.492,-49.2222 162.782,-73.8121 2.09,-0.918 0.13,-3.8594 -1.92,-2.8984"
         style="fill:#406fbf;fill-opacity:1;fill-rule:nonzero;stroke:none"
         id="path236" /><path
         d="m 1063.6,153.172 c 13.28,6.027 27.04,3.269 32.47,-8.184 0.87,-1.847 4.15,-0.019 3.28,1.813 -6.23,13.14 -22.45,15.89 -37.49,9.07 -2.21,-1.012 -0.44,-3.68 1.74,-2.699"
         style="fill:#ffffff;fill-opacity:1;fill-rule:nonzero;stroke:none"
         id="path238" /><path
         d="m 1077.92,140.41 c 13.29,6.02 27.05,3.262 32.47,-8.18 0.87,-1.859 4.15,-0.031 3.28,1.801 -6.22,13.141 -22.44,15.891 -37.49,9.071 -2.21,-1 -0.44,-3.692 1.74,-2.692"
         style="fill:#ffffff;fill-opacity:1;fill-rule:nonzero;stroke:none"
         id="path240" /><path
         d="m 1092.82,127.379 c 13.28,6.031 27.04,3.262 32.47,-8.18 0.88,-1.847 4.15,-0.027 3.28,1.813 -6.22,13.129 -22.45,15.879 -37.49,9.058 -2.21,-1 -0.45,-3.679 1.74,-2.691"
         style="fill:#ffffff;fill-opacity:1;fill-rule:nonzero;stroke:none"
         id="path242" /><path
         d="m 1439.6,1642.29 c 7.83,-107.93 25.66,-247.55 60.43,-427.25 10.09,-52.21 21.63,-107.82 34.79,-167.04 -21.96,-357.828 92.65,-838.168 92.65,-838.168 l 87.05,1.949 c 0,0 29.57,553.528 29.1,843.309 -0.75,474.8 -43.31,927.08 -43.31,927.08 l -236.88,0.94 c 0,0 -43.32,-71.38 -23.83,-340.82"
         style="fill:#406fbf;fill-opacity:1;fill-rule:nonzero;stroke:none"
         id="path244" /><path
         d="m 1627.47,209.832 c 0,0 -95.45,400.039 -95.44,741.938 0,32.742 0.87,64.95 2.79,96.23 v 0 0 c -13.16,59.22 -24.7,114.83 -34.79,167.04 37.96,128.13 15.46,354.34 -3.19,487.92 5.29,65.14 9.48,119.95 12.19,156.4 30.35,-1.95 59.18,-2.93 85.31,-2.93 50.13,0 90.34,3.59 112.31,10.77 1.07,0.34 2.11,0.75 3.12,1.22 12.59,-163.88 33.33,-483.17 33.85,-813.33 0.01,-2.27 0.01,-4.55 0.01,-6.84 0,-160.93 -8.87,-399.059 -16.82,-580.129 -0.04,-0.82 -0.07,-1.672 -0.11,-2.5 -6.41,-145.711 -12.18,-253.84 -12.18,-253.84 l -7.33,-0.172 -74.8,-1.668 -4.92,-0.109"
         style="fill:#5d87cd;fill-opacity:1;fill-rule:nonzero;stroke:none"
         id="path246" /><path
         d="m 1500.03,1215.04 v 0 c -12.3,63.58 -22.48,122.15 -30.85,176.06 10.73,109.63 20.27,220.83 27.66,311.86 18.65,-133.58 41.15,-359.79 3.19,-487.92"
         style="fill:#4872c1;fill-opacity:1;fill-rule:nonzero;stroke:none"
         id="path248" /><path
         d="m 1512.56,1907.65 c 0,0 -46.78,-663.01 -91.38,-900.87 l -326.72,-748.69 -79.6,44.75 c 0,0 122.98,584.09 221.32,764.09 0,0 -71.2,596.91 11.97,864.51 l 264.41,-23.79"
         style="fill:#406fbf;fill-opacity:1;fill-rule:nonzero;stroke:none"
         id="path250" /><path
         d="m 1094.46,258.09 -6.26,3.512 -65.18,36.648 -8.16,4.59 c 0,0 122.98,584.09 221.32,764.09 v 0 0 c 0,0 -7.41,62.1 -14.65,155.2 -0.27,3.35 -0.52,6.7 -0.78,10.13 -3.75,49.43 -7.38,106.93 -9.84,168.11 -0.09,2.39 -0.19,4.78 -0.28,7.18 -1.75,45.35 -2.83,92.62 -2.83,140.08 0.01,128.4 7.95,258.16 32.24,354.78 3.27,-2.5 7.1,-4.38 11.36,-5.42 81.29,-19.78 175.08,-32.32 257.63,-37.63 -2.71,-36.45 -6.9,-91.26 -12.19,-156.4 -7.39,-91.03 -16.93,-202.23 -27.66,-311.86 -11.05,-112.9 -23.35,-224.13 -35.83,-309.78 -0.12,-0.84 -0.24,-1.67 -0.37,-2.5 -3.93,-26.83 -7.87,-51.08 -11.8,-72.04 l -235.06,-538.659 -1.09,-2.5 -90.57,-207.531"
         style="fill:#5d87cd;fill-opacity:1;fill-rule:nonzero;stroke:none"
         id="path252" /><path
         d="m 1088.59,228.898 20.58,31.332 -103.23,52.981 -12.303,-35.582 94.953,-48.731"
         style="fill:#17282f;fill-opacity:1;fill-rule:nonzero;stroke:none"
         id="path254" /><path
         d="m 1723.81,191.301 4.01,37.269 h -116.04 l 5.3,-37.269 h 106.73"
         style="fill:#17282f;fill-opacity:1;fill-rule:nonzero;stroke:none"
         id="path256" /><path
         d="m 1721.21,2238.62 c -2.58,-27.3 0.1,-63.03 3.74,-103.46 1.25,-14.38 2.68,-29.42 3.93,-44.84 5.36,-64 9.1,-135.27 -3.36,-201.37 -1.91,-10.07 -9.1,-18.6 -18.87,-21.75 -64.57,-21.09 -286.74,-11.21 -455.25,29.79 -16.1,3.93 -26.16,19.92 -22.62,36.12 12.84,58.53 22.62,135.65 25.11,228.49 0.38,12.26 0.57,24.71 0.67,37.55 0.47,82.01 -4.7,174.94 -17.92,277.06 -7.28,56.24 32.57,107.97 88.91,114.58 15.9,1.82 32.76,3.45 50.01,4.51 67.63,4.3 123.1,7.37 182.59,2.87 19.84,-1.44 40.24,-3.64 59.69,-6.04 70.42,-8.81 123.49,-69.84 120.81,-140.73 -3.45,-92.93 68.98,-146.1 -17.44,-212.78"
         style="fill:#17282f;fill-opacity:1;fill-rule:nonzero;stroke:none"
         id="path258" /><path
         d="m 1389.77,2273.17 -33.01,6.42 c -1.99,15.92 -2.92,33.71 -3.27,51.57 -0.22,24.44 0.33,49.69 1.8,75.1 0.42,8.82 1.03,17.67 1.65,26.52 0.05,-1.41 4.17,-115.9 32.83,-159.61"
         style="fill:#111d23;fill-opacity:1;fill-rule:nonzero;stroke:none"
         id="path260" /><path
         d="m 1728.88,2090.32 c -55.94,15.46 -139.87,59.26 -163.24,71.75 1.12,-0.42 2.24,-0.83 3.34,-1.24 28.55,-10.54 57.48,-20.12 87.09,-29.22 14.85,-4.6 29.98,-8.62 45.6,-12.55 8.24,-1.96 16.49,-3.87 25.21,-5.57 0.68,-7.6 1.36,-15.34 2,-23.17"
         style="fill:#111d23;fill-opacity:1;fill-rule:nonzero;stroke:none"
         id="path262" /><path
         d="m 1368.67,2088.04 c -4.26,0 -8.29,0.3 -12.08,0.93 -43.59,7.29 -80,43.6 -102.7,72.63 0.34,11.21 0.54,22.58 0.64,34.26 2.42,-4.97 5.21,-10.07 8.48,-15.31 6.16,-9.71 14.13,-20.18 26.03,-29.89 2.86,-2.4 6.16,-4.72 9.51,-6.91 3.22,-2.08 5.16,-3 7.82,-4.51 4.98,-2.63 10.03,-4.96 15.05,-6.93 20.16,-7.94 39.67,-10.82 57.57,-11.36 2.34,-0.07 4.65,-0.1 6.95,-0.1 15.3,0 29.7,1.45 43.43,3.68 31.54,5.36 59.95,14.64 87.02,25.45 12.75,5.16 25.18,10.71 37.33,16.61 0.01,-0.01 0.02,-0.01 0.03,-0.01 v 0 0 c 1.34,-0.67 2.78,-1.15 4.21,-1.63 l 0.42,-0.14 c -52.58,-31.43 -137.48,-76.77 -189.71,-76.77"
         style="fill:#111d23;fill-opacity:1;fill-rule:nonzero;stroke:none"
         id="path264" /><path
         d="m 1569.18,2436.05 c 5.53,0 10.73,1.4 15.56,4.2 48.17,27.9 -4.08,155.97 -6.33,161.41 -0.7,1.69 -2.64,2.47 -4.32,1.8 -1.69,-0.7 -2.49,-2.64 -1.8,-4.32 0.53,-1.29 52.33,-128.14 9.14,-153.16 -6.41,-3.71 -13.43,-4.29 -21.46,-1.83 -52.88,16.27 -120.85,156.27 -121.53,157.68 -0.79,1.65 -2.78,2.34 -4.42,1.55 -1.65,-0.8 -2.34,-2.78 -1.54,-4.42 2.82,-5.87 69.91,-144.02 125.54,-161.13 3.85,-1.19 7.58,-1.78 11.16,-1.78"
         style="fill:#ffffff;fill-opacity:1;fill-rule:nonzero;stroke:none"
         id="path266" /><path
         d="m 1667.79,2787.8 c 0,0 43.45,80.66 -18.64,135.31 -62.09,54.65 -167.18,40.44 -212.55,-27.14 -45.37,-67.59 -28.06,-154.22 14.04,-184.63 35.03,-25.3 30.13,-52.38 30.13,-52.38 l 187.02,128.84"
         style="fill:#17282f;fill-opacity:1;fill-rule:nonzero;stroke:none"
         id="path268" /><path
         d="m 1528.95,2950.44 c 0,56.47 -92.35,91.08 -145.92,57.38 -74.31,-46.75 -9.1,-114.11 -22.77,-153.02 -13.66,-38.91 -68.31,-9.27 -68.31,-9.27 0,0 40.08,-85.35 103.84,-61.96 57.32,21.03 73.27,93.09 73.27,93.09 0,0 59.89,17.3 59.89,73.78"
         style="fill:#17282f;fill-opacity:1;fill-rule:nonzero;stroke:none"
         id="path270" /><path
         d="m 1424.18,2884.4 c 1.13,0 2.19,0.71 2.58,1.84 24.89,72.24 98.45,67.91 101.59,67.72 1.47,-0.08 2.82,1.02 2.91,2.53 0.11,1.5 -1.02,2.81 -2.52,2.92 -0.82,0.04 -80.88,4.89 -107.15,-71.38 -0.49,-1.43 0.27,-2.99 1.7,-3.48 l 0.89,-0.15"
         style="fill:#406fbf;fill-opacity:1;fill-rule:nonzero;stroke:none"
         id="path272" /><path
         d="m 1424.18,2884.4 -0.89,0.15 c -1.13,0.39 -1.84,1.44 -1.85,2.57 0,0.3 0.05,0.61 0.15,0.91 23.23,67.43 88.51,71.45 103.88,71.45 2.01,0 3.17,-0.07 3.27,-0.07 1.43,-0.11 2.53,-1.3 2.53,-2.71 0,-0.07 0,-0.14 -0.01,-0.21 -0.09,-1.45 -1.35,-2.54 -2.76,-2.54 -0.05,0 -0.1,0 -0.15,0.01 -0.38,0.02 -1.81,0.1 -4.09,0.1 -16.31,0 -75.65,-4.42 -97.5,-67.82 -0.39,-1.13 -1.45,-1.84 -2.58,-1.84"
         style="fill:#90b4e3;fill-opacity:1;fill-rule:nonzero;stroke:none"
         id="path274" /><path
         d="m 1569.42,2593.13 1.23,-2.47 c 15.15,-67.97 -77.15,-50.8 -114.64,8.12 24.89,33.14 29.74,90.96 23.99,132.72 l 75.28,-62.18 14.6,-13.98 c -3.27,-10.6 -5.9,-21.44 -6.45,-31.75 -0.73,-10.96 0.77,-21.37 5.99,-30.46"
         style="fill:#f46b74;fill-opacity:1;fill-rule:nonzero;stroke:none"
         id="path276" /><path
         d="m 1563.43,2623.59 c -28.8,8.96 -47.16,46.66 -47.16,46.66 l 39.01,-0.93 14.6,-13.98 c -3.27,-10.6 -5.9,-21.44 -6.45,-31.75 v 0"
         style="fill:#ea5b5b;fill-opacity:1;fill-rule:nonzero;stroke:none"
         id="path278" /><path
         d="m 1451.67,2809.57 c 10.26,-75.45 13.59,-94.74 54.06,-130.81 60.88,-54.27 148.94,-38.05 160.98,38.94 10.84,69.31 -7.77,181.06 -82.8,205.74 -73.92,24.33 -142.51,-38.4 -132.24,-113.87"
         style="fill:#f46b74;fill-opacity:1;fill-rule:nonzero;stroke:none"
         id="path280" /><path
         d="m 1603.88,2724.58 c 0,-7.11 -4.47,-12.86 -10,-12.86 -5.52,0 -10,5.75 -10,12.86 0,7.1 4.48,12.86 10,12.86 5.53,0 10,-5.76 10,-12.86"
         style="fill:#ffffff;fill-opacity:1;fill-rule:nonzero;stroke:none"
         id="path282" /><path
         d="m 1587.26,2832.25 c -0.64,-0.73 -1.59,-1.19 -2.64,-1.18 -14.44,0.18 -21.45,-14.96 -21.52,-15.12 -0.8,-1.73 -2.81,-2.5 -4.55,-1.72 -1.72,0.78 -2.49,2.82 -1.71,4.55 0.36,0.79 8.98,19.4 27.87,19.17 1.9,-0.04 3.42,-1.59 3.39,-3.49 l -0.84,-2.21"
         style="fill:#17282f;fill-opacity:1;fill-rule:nonzero;stroke:none"
         id="path284" /><path
         d="m 1656.54,2818.05 c -0.92,0.3 -1.72,0.99 -2.13,1.96 -5.47,13.37 -22.15,13.9 -22.33,13.9 -1.89,0.06 -3.39,1.62 -3.34,3.52 0.03,1.89 1.61,3.4 3.51,3.36 0.87,-0.02 21.36,-0.69 28.53,-18.16 0.71,-1.77 -0.12,-3.77 -1.88,-4.49 l -2.36,-0.09"
         style="fill:#17282f;fill-opacity:1;fill-rule:nonzero;stroke:none"
         id="path286" /><path
         d="m 1601.02,2928.77 c 0,0 -8.72,-91.53 -100.26,-82.64 -91.54,8.89 -17.76,82 22.54,92.92 40.31,10.93 77.72,-10.28 77.72,-10.28"
         style="fill:#17282f;fill-opacity:1;fill-rule:nonzero;stroke:none"
         id="path288" /><path
         d="m 1501.18,2914.84 c 0,0 34.71,-94.63 6.95,-126.3 -27.76,-31.67 -76.23,14.41 -76.23,14.41 0,0 4.47,103.73 69.28,111.89"
         style="fill:#17282f;fill-opacity:1;fill-rule:nonzero;stroke:none"
         id="path290" /><path
         d="m 1573.1,2799.18 c 0.46,-6.17 4.11,-10.92 8.14,-10.63 4.03,0.31 6.93,5.56 6.47,11.73 -0.47,6.17 -4.11,10.93 -8.15,10.63 -4.03,-0.31 -6.93,-5.56 -6.46,-11.73"
         style="fill:#17282f;fill-opacity:1;fill-rule:nonzero;stroke:none"
         id="path292" /><path
         d="m 1635.3,2802.4 c 0.47,-6.17 4.12,-10.93 8.15,-10.62 4.03,0.3 6.93,5.55 6.46,11.72 -0.46,6.17 -4.11,10.93 -8.14,10.63 -4.04,-0.31 -6.93,-5.56 -6.47,-11.73"
         style="fill:#17282f;fill-opacity:1;fill-rule:nonzero;stroke:none"
         id="path294" /><path
         d="m 1640.01,2813.65 14.5,5.39 c 0,0 -6.73,-12.15 -14.5,-5.39"
         style="fill:#17282f;fill-opacity:1;fill-rule:nonzero;stroke:none"
         id="path296" /><path
         d="m 1609.95,2799.51 c 0,0 11.87,-15.56 24.48,-28.88 4.1,-4.34 3.28,-11.39 -1.89,-14.41 -8.86,-5.19 -18.68,-7.97 -18.68,-7.97 l -3.91,51.26"
         style="fill:#f14358;fill-opacity:1;fill-rule:nonzero;stroke:none"
         id="path298" /><path
         d="m 1577.8,2810.43 14.5,5.39 c 0,0 -6.73,-12.15 -14.5,-5.39"
         style="fill:#17282f;fill-opacity:1;fill-rule:nonzero;stroke:none"
         id="path300" /><path
         d="m 1428.66,2755.05 c 7.87,-14 20.43,-22.21 31.87,-24.5 17.2,-3.44 24.18,15.67 18.04,34.06 -5.53,16.56 -21.14,38.3 -37.75,33.36 -16.37,-4.86 -21.16,-26.92 -12.16,-42.92"
         style="fill:#f46b74;fill-opacity:1;fill-rule:nonzero;stroke:none"
         id="path302" /><path
         d="m 1463.88,2722.95 c -5.59,-4.02 -13.37,-2.75 -17.38,2.84 -4.02,5.59 -2.75,13.36 2.84,17.38 5.58,4.01 13.37,2.74 17.37,-2.84 4.02,-5.59 2.75,-13.37 -2.83,-17.38"
         style="fill:#ffffff;fill-opacity:1;fill-rule:nonzero;stroke:none"
         id="path304" /><path
         d="m 1360.79,2481.92 -3.04,-37.44 c -0.85,-12.76 -1.86,-25.51 -2.46,-38.22 -1.47,-25.41 -2.02,-50.66 -1.8,-75.1 0.47,-24.24 2.02,-48.35 5.84,-67.81 1.79,-9.58 4.76,-17.91 6.29,-21.61 0.72,-1.86 1.02,-2.26 -0.52,-1.23 l -1.47,0.8 0.79,-0.78 c 0.88,-0.69 1.86,-1.41 3.03,-2.1 4.62,-2.75 11.87,-5.39 20.79,-7.11 8.95,-1.64 19.35,-2.36 30.36,-2.12 22.12,0.26 46.39,3.64 70.85,8.56 48.93,9.96 99.97,25.79 149.07,42.63 l 25.97,-46.48 c -23.09,-17.56 -46.37,-32.2 -70.99,-46.39 -24.58,-13.92 -50.1,-26.62 -77.11,-37.54 -27.07,-10.81 -55.48,-20.09 -87.02,-25.45 -15.79,-2.56 -32.45,-4.1 -50.38,-3.58 -17.9,0.54 -37.41,3.42 -57.57,11.36 -5.02,1.97 -10.07,4.3 -15.05,6.93 -2.66,1.51 -4.6,2.43 -7.82,4.51 -3.35,2.19 -6.65,4.51 -9.51,6.91 -11.9,9.71 -19.87,20.18 -26.03,29.89 -12.2,19.56 -17.75,37.14 -22.42,53.67 -8.86,33.01 -11.76,62.94 -13.36,92.51 -1.63,29.46 -1.01,58.16 0.49,86.59 0.89,14.19 1.83,28.33 3.37,42.43 1.44,14.31 3.17,27.7 5.57,42.96 l 124.13,-16.79"
         style="fill:#17282f;fill-opacity:1;fill-rule:nonzero;stroke:none"
         id="path306" /><path
         d="m 1846.43,2169.45 c -0.77,-8.62 -3.45,-18.68 -8.14,-26.44 -2.21,-3.93 -5.27,-8.33 -7.96,-11.11 -2.49,-2.78 -5.27,-5.27 -8.14,-7.67 -3.26,-2.59 -5.08,-3.64 -7.47,-5.08 -2.3,-1.34 -4.6,-2.58 -7,-3.73 -3.45,-1.44 -6.9,-2.69 -10.44,-3.74 -2.59,-0.67 -5.17,-1.25 -7.86,-1.72 -9.19,-1.53 -15.71,-1.63 -21.55,-1.53 -5.84,0.09 -10.92,0.57 -15.71,1.05 -19.07,2.3 -34.78,5.84 -50.49,9.58 -15.62,3.93 -30.75,7.95 -45.6,12.55 -29.61,9.1 -58.54,18.68 -87.09,29.22 -3.35,1.24 -6.8,2.49 -10.15,3.83 l -0.87,0.29 c -1.43,0.48 -2.87,0.96 -4.21,1.63 -2.97,0.95 -5.94,2.11 -8.81,3.25 -48.77,18.3 -96.58,38.04 -143.9,60.17 l 18.3,54.7 174.45,-36.69 c 28.94,-5.75 57.77,-11.79 86.13,-16.58 9.77,-1.62 32.77,-10.15 42.25,-11.59 -8.04,19.55 -29.89,46.18 -38.03,65.92 -22.9,54.41 -45.99,109.31 -67.45,164.3 l 115.35,48.95 c 25,-54.99 47.32,-110.65 68.4,-167.46 10.63,-28.36 20.41,-57 30.09,-86.8 4.69,-15.52 9,-29.03 13.5,-49.91 l 1.54,-8.24 0.19,-1.05 0.29,-1.92 0.28,-2.78 c 0.29,-3.74 0.38,-7.57 0.1,-11.4"
         style="fill:#17282f;fill-opacity:1;fill-rule:nonzero;stroke:none"
         id="path308" /><path
         d="m 1728.88,2247.63 -7.75,13.29 c 0,0 37.28,41.19 20.14,85.51 -17.14,44.3 -56.51,110.17 -56.51,110.17 0,0 60.67,-81.63 70.25,-114.77 13.31,-46.03 -26.13,-94.2 -26.13,-94.2"
         style="fill:#111d23;fill-opacity:1;fill-rule:nonzero;stroke:none"
         id="path310" /><path
         d="m 1558.83,2164.66 v 0 l -0.45,0.15 -0.42,0.14 c -1.43,0.48 -2.87,0.96 -4.21,1.63 4.4,2.58 78.84,46.27 105,64.19 -12.46,-8.82 -68.5,-48.19 -99.92,-66.11"
         style="fill:#111d23;fill-opacity:1;fill-rule:nonzero;stroke:none"
         id="path312" /><path
         d="m 1638.8,2279.43 c 0,0 17.71,10.51 58.33,-1.07 52.69,-29.42 40.63,-62.67 28.39,-59.15 l -61.23,14.72 -25.49,45.5"
         style="fill:#f46b74;fill-opacity:1;fill-rule:nonzero;stroke:none"
         id="path314" /><path
         d="m 1436.68,2280.3 c 0,0 -45.57,22.05 -62.69,26.83 -17.12,4.77 -20.56,-0.47 -20.56,-0.47 l 1.74,-17.15 c 0,0 -31.08,-33.9 -36.13,-63.05 -5.05,-29.14 52.5,-3.28 72.69,-0.92 20.19,2.35 39.79,1.19 39.79,1.19 7.35,3.93 13.74,42.88 5.16,53.57"
         style="fill:#f46b74;fill-opacity:1;fill-rule:nonzero;stroke:none"
         id="path316" /><path
         d="m 1659.54,3170.87 v -106.24 c 0,-15.15 9.8,-28.15 23.42,-32.78 l -2.4,-51.65 45.15,49.69 h 190.13 c 19.16,0 34.65,15.58 34.65,34.74 v 106.24 c 0,19.15 -15.49,34.73 -34.65,34.73 h -221.57 c -19.14,0 -34.73,-15.58 -34.73,-34.73"
         style="fill:#406fbf;fill-opacity:1;fill-rule:nonzero;stroke:none"
         id="path318" /><path
         d="m 1680.56,2980.2 2.4,51.65 v 0 c -13.62,4.63 -23.42,17.63 -23.42,32.78 v 106.24 c 0,19.15 15.59,34.73 34.73,34.73 h 221.57 c 19.16,0 34.65,-15.58 34.65,-34.73 v -106.24 c 0,-19.16 -15.49,-34.74 -34.65,-34.74 h -190.13 l -45.15,-49.69"
         style="fill:#90b4e3;fill-opacity:1;fill-rule:nonzero;stroke:none"
         id="path320" /><path
         d="m 1857.09,3116.53 c 0,-8.85 7.17,-16.01 16.01,-16.01 8.84,0 16.01,7.16 16.01,16.01 0,8.84 -7.17,16.01 -16.01,16.01 -8.84,0 -16.01,-7.17 -16.01,-16.01"
         style="fill:#406fbf;fill-opacity:1;fill-rule:nonzero;stroke:none"
         id="path322" /><path
         d="m 1720.92,3116.53 c 0,-8.85 7.17,-16.01 16.01,-16.01 8.84,0 16,7.16 16,16.01 0,8.84 -7.16,16.01 -16,16.01 -8.84,0 -16.01,-7.17 -16.01,-16.01"
         style="fill:#406fbf;fill-opacity:1;fill-rule:nonzero;stroke:none"
         id="path324" /><path
         d="m 1788.32,3116.53 c 0,-8.85 7.17,-16.01 16.01,-16.01 8.84,0 16.01,7.16 16.01,16.01 0,8.84 -7.17,16.01 -16.01,16.01 -8.84,0 -16.01,-7.17 -16.01,-16.01"
         style="fill:#406fbf;fill-opacity:1;fill-rule:nonzero;stroke:none"
         id="path326" /></g></g></svg>
