<?xml version="1.0" encoding="UTF-8" standalone="no"?>
<svg
   width="705.6"
   height="720"
   viewBox="0 0 186.69 190.5"
   version="1.1"
   id="svg12"
   sodipodi:docname="google.svg"
   inkscape:version="1.1.2 (0a00cf5339, 2022-02-04)"
   xmlns:inkscape="http://www.inkscape.org/namespaces/inkscape"
   xmlns:sodipodi="http://sodipodi.sourceforge.net/DTD/sodipodi-0.dtd"
   xmlns="http://www.w3.org/2000/svg"
   xmlns:svg="http://www.w3.org/2000/svg">
  <defs
     id="defs16" />
  <sodipodi:namedview
     id="namedview14"
     pagecolor="#ffffff"
     bordercolor="#999999"
     borderopacity="1"
     inkscape:pageshadow="0"
     inkscape:pageopacity="0"
     inkscape:pagecheckerboard="0"
     showgrid="false"
     inkscape:zoom="0.038007774"
     inkscape:cx="1683.866"
     inkscape:cy="-1460.2276"
     inkscape:window-width="1440"
     inkscape:window-height="790"
     inkscape:window-x="0"
     inkscape:window-y="0"
     inkscape:window-maximized="1"
     inkscape:current-layer="svg12" />
  <rect
     style="fill:#000736;stroke-width:8.08871;stroke-linecap:square;paint-order:fill markers stroke"
     id="rect855"
     width="2246.3669"
     height="307.81461"
     x="-821.22833"
     y="-51.784107" />
  <rect
     style="fill:#ffffff;stroke-width:7.18863;stroke-linecap:square;paint-order:fill markers stroke"
     id="rect959"
     width="2386.2283"
     height="337.48428"
     x="-76.620117"
     y="-75.258987" />
  <g
     transform="translate(1400.5113,760.32738)"
     id="g10"
     inkscape:export-filename="/mnt/18E09909E098EE6E/Projects/Freelancer/files/google.png"
     inkscape:export-xdpi="260.02701"
     inkscape:export-ydpi="260.02701">
    <path
       clip-path="none"
       mask="none"
       d="m -1089.333,-687.239 v 36.888 h 51.262 c -2.251,11.863 -9.006,21.908 -19.137,28.662 l 30.913,23.986 c 18.011,-16.625 28.402,-41.044 28.402,-70.052 0,-6.754 -0.606,-13.249 -1.732,-19.483 z"
       fill="#4285f4"
       id="path2" />
    <path
       clip-path="none"
       mask="none"
       d="m -1142.714,-651.791 -6.972,5.337 -24.679,19.223 v 0 c 15.673,31.086 47.796,52.561 85.03,52.561 25.717,0 47.278,-8.486 63.038,-23.033 l -30.913,-23.986 c -8.486,5.715 -19.31,9.179 -32.125,9.179 -24.765,0 -45.806,-16.712 -53.34,-39.226 z"
       fill="#34a853"
       id="path4" />
    <path
       clip-path="none"
       mask="none"
       d="m -1174.365,-712.61 c -6.494,12.815 -10.217,27.276 -10.217,42.689 0,15.413 3.723,29.874 10.217,42.689 0,0.086 31.693,-24.592 31.693,-24.592 -1.905,-5.715 -3.031,-11.776 -3.031,-18.098 0,-6.322 1.126,-12.383 3.031,-18.098 z"
       fill="#fbbc05"
       id="path6" />
    <path
       d="m -1089.333,-727.244 c 14.028,0 26.497,4.849 36.455,14.201 l 27.276,-27.276 c -16.539,-15.413 -38.013,-24.852 -63.731,-24.852 -37.234,0 -69.359,21.388 -85.032,52.561 l 31.692,24.592 c 7.533,-22.514 28.575,-39.226 53.34,-39.226 z"
       fill="#ea4335"
       clip-path="none"
       mask="none"
       id="path8" />
  </g>
  <text
     xml:space="preserve"
     style="font-size:160.224px;line-height:1.25;font-family:Sawasdee;-inkscape-font-specification:Sawasdee;letter-spacing:0px;word-spacing:0px;stroke-width:4.00561"
     x="489.2196"
     y="147.71329"
     id="text5545"
     inkscape:export-filename="/mnt/18E09909E098EE6E/Projects/Freelancer/files/google.png"
     inkscape:export-xdpi="260.02701"
     inkscape:export-ydpi="260.02701"><tspan
       sodipodi:role="line"
       id="tspan5543"
       style="font-style:normal;font-variant:normal;font-weight:normal;font-stretch:normal;font-family:AnjaliOldLipi;-inkscape-font-specification:AnjaliOldLipi;stroke-width:4.00561"
       x="489.2196"
       y="147.71329">Continue with Google</tspan></text>
</svg>
