<?xml version="1.0" encoding="UTF-8" standalone="no"?>
<!-- Generator: Adobe Illustrator 25.0.0, SVG Export Plug-In . SVG Version: 6.00 Build 0)  -->

<svg
   version="1.1"
   id="Capa_1"
   x="0px"
   y="0px"
   viewBox="0 0 512 512"
   style="enable-background:new 0 0 512 512;"
   xml:space="preserve"
   width="512"
   height="512"
   sodipodi:docname="home.svg"
   inkscape:version="1.1.2 (0a00cf5339, 2022-02-04)"
   xmlns:inkscape="http://www.inkscape.org/namespaces/inkscape"
   xmlns:sodipodi="http://sodipodi.sourceforge.net/DTD/sodipodi-0.dtd"
   xmlns="http://www.w3.org/2000/svg"
   xmlns:svg="http://www.w3.org/2000/svg"><defs
   id="defs15" /><sodipodi:namedview
   id="namedview13"
   pagecolor="#ffffff"
   bordercolor="#999999"
   borderopacity="1"
   inkscape:pageshadow="0"
   inkscape:pageopacity="0"
   inkscape:pagecheckerboard="0"
   showgrid="false"
   inkscape:zoom="0.30146831"
   inkscape:cx="-268.68496"
   inkscape:cy="-14.926942"
   inkscape:window-width="1440"
   inkscape:window-height="790"
   inkscape:window-x="0"
   inkscape:window-y="0"
   inkscape:window-maximized="1"
   inkscape:current-layer="g10" />
<g
   id="g10">
	<g
   id="g8"
   style="fill:#000736;fill-opacity:1"
   inkscape:export-filename="/mnt/18E09909E098EE6E/Projects/Freelancer/files/SVG/home.png"
   inkscape:export-xdpi="260.02701"
   inkscape:export-ydpi="260.02701">
		<path
   d="M362.667,383.841v128H448c35.346,0,64-28.654,64-64V253.26c0.005-11.083-4.302-21.733-12.011-29.696l-181.29-195.99    c-31.988-34.61-85.976-36.735-120.586-4.747c-1.644,1.52-3.228,3.103-4.747,4.747L12.395,223.5    C4.453,231.496-0.003,242.31,0,253.58v194.261c0,35.346,28.654,64,64,64h85.333v-128c0.399-58.172,47.366-105.676,104.073-107.044    C312.01,275.383,362.22,323.696,362.667,383.841z"
   id="path4"
   style="fill:#000736;fill-opacity:1" />
		<path
   d="M256,319.841c-35.346,0-64,28.654-64,64v128h128v-128C320,348.495,291.346,319.841,256,319.841z"
   id="path6"
   style="fill:#000736;fill-opacity:1" />
	</g>
	
</g>















</svg>
