<?xml version="1.0" encoding="UTF-8" standalone="no"?>
<!-- Created with Inkscape (http://www.inkscape.org/) -->

<svg
   version="1.1"
   id="svg2"
   xml:space="preserve"
   width="666.66669"
   height="666.66669"
   viewBox="0 0 666.66669 666.66669"
   sodipodi:docname="ios.svg"
   inkscape:version="1.1.2 (0a00cf5339, 2022-02-04)"
   inkscape:export-filename="/mnt/18E09909E098EE6E/Projects/Freelancer/files/SVG/ios.png"
   inkscape:export-xdpi="260.02701"
   inkscape:export-ydpi="260.02701"
   xmlns:inkscape="http://www.inkscape.org/namespaces/inkscape"
   xmlns:sodipodi="http://sodipodi.sourceforge.net/DTD/sodipodi-0.dtd"
   xmlns="http://www.w3.org/2000/svg"
   xmlns:svg="http://www.w3.org/2000/svg"><defs
     id="defs6"><clipPath
       clipPathUnits="userSpaceOnUse"
       id="clipPath142"><path
         d="m 3116.49,3817.36 c 0,0 28.46,-6.16 29.45,-34.58 0.99,-28.41 -29.96,-26.48 -29.96,-26.48 0,0 -26.71,34.39 0.51,61.06 z"
         id="path140" /></clipPath></defs><sodipodi:namedview
     id="namedview4"
     pagecolor="#ffffff"
     bordercolor="#999999"
     borderopacity="1"
     inkscape:pageshadow="0"
     inkscape:pageopacity="0"
     inkscape:pagecheckerboard="0"
     showgrid="false"
     inkscape:zoom="0.29512601"
     inkscape:cx="-159.25401"
     inkscape:cy="171.11335"
     inkscape:window-width="1440"
     inkscape:window-height="790"
     inkscape:window-x="0"
     inkscape:window-y="0"
     inkscape:window-maximized="1"
     inkscape:current-layer="g8" /><g
     id="g8"
     inkscape:groupmode="layer"
     inkscape:label="ink_ext_XXXXXX"
     transform="matrix(1.3333333,0,0,-1.3333333,0,666.66667)"><g
       id="g419"
       transform="translate(7.5,-6)"><path
         d="m 391.587,349.648 c 0,0 3.095,8.934 12.382,9.163 9.286,0.229 5.952,-5.498 15.715,-4.582 9.762,0.917 6.191,11.913 21.43,14.204 15.239,2.29 21.668,-18.785 21.668,-18.785 h -71.195"
         style="fill:#ffffff;fill-opacity:1;fill-rule:nonzero;stroke:none;stroke-width:0.1"
         id="path14" /><path
         d="m 230.576,456.469 c 0,0 2.311,6.672 9.246,6.844 6.935,0.171 4.446,-4.106 11.737,-3.422 7.29,0.684 4.623,8.896 16.002,10.606 11.381,1.711 16.182,-14.028 16.182,-14.028 h -53.167"
         style="fill:#ffffff;fill-opacity:1;fill-rule:nonzero;stroke:none;stroke-width:0.1"
         id="path16" /><path
         d="m 25.6848,389.171 c 0,0 2.0656,5.962 8.2632,6.115 6.1973,0.153 3.9731,-3.669 10.4883,-3.057 6.5153,0.611 4.1317,7.949 14.3024,9.478 10.1707,1.529 14.4609,-12.536 14.4609,-12.536 H 25.6848"
         style="fill:#ffffff;fill-opacity:1;fill-rule:nonzero;stroke:none;stroke-width:0.1"
         id="path18" /><path
         d="M 266.569,38.1941 H 124.792 c -15.722,0 -28.4666,12.745 -28.4666,28.468 V 399.292 c 0,15.722 12.7446,28.467 28.4666,28.467 h 141.777 c 15.723,0 28.468,-12.745 28.468,-28.467 V 66.6621 c 0,-15.723 -12.745,-28.468 -28.468,-28.468"
         style="fill:#e5edfd;fill-opacity:1;fill-rule:nonzero;stroke:none;stroke-width:0.1"
         id="path20" /><path
         d="M 266.569,427.759 H 124.792 c -15.722,0 -28.4666,-12.745 -28.4666,-28.467 V 66.6621 c 0,-15.723 12.7446,-28.468 28.4666,-28.468 h 141.777 c 15.723,0 28.468,12.745 28.468,28.468 V 399.292 c 0,15.722 -12.745,28.467 -28.468,28.467 z m 0,-9.748 c 10.323,0 18.72,-8.398 18.72,-18.719 V 66.6621 c 0,-10.3223 -8.397,-18.7199 -18.72,-18.7199 H 124.792 c -10.322,0 -18.719,8.3976 -18.719,18.7199 V 399.292 c 0,10.321 8.397,18.719 18.719,18.719 h 141.777"
         style="fill:#060000;fill-opacity:1;fill-rule:nonzero;stroke:none;stroke-width:0.1"
         id="path22" /><path
         d="m 240.037,426.775 h -88.711 v -10.319 c 0,-4.573 3.707,-8.28 8.279,-8.28 h 72.151 c 4.573,0 8.281,3.707 8.281,8.28 v 10.319 0"
         style="fill:#060000;fill-opacity:1;fill-rule:nonzero;stroke:none;stroke-width:0.1"
         id="path24" /><path
         d="m 179.168,419.043 h 34.017"
         style="fill:none;stroke:#ffffff;stroke-width:0.763983;stroke-linecap:round;stroke-linejoin:round;stroke-miterlimit:10;stroke-dasharray:none;stroke-opacity:1"
         id="path26" /><path
         d="M 231.108,80.998 H 129.786 c -4.377,0 -7.926,3.5489 -7.926,7.9262 v 84.6248 c 0,4.377 3.549,7.926 7.926,7.926 h 101.322 c 4.377,0 7.926,-3.549 7.926,-7.926 V 88.9242 c 0,-4.3773 -3.549,-7.9262 -7.926,-7.9262"
         style="fill:#9bbdf9;fill-opacity:1;fill-rule:nonzero;stroke:none;stroke-width:0.1"
         id="path28" /><path
         d="m 164.687,137.827 h -23.283 c -1.74,0 -3.152,1.411 -3.152,3.152 v 23.284 c 0,1.74 1.412,3.151 3.152,3.151 h 23.283 c 1.741,0 3.152,-1.411 3.152,-3.151 v -23.284 c 0,-1.741 -1.411,-3.152 -3.152,-3.152"
         style="fill:#ffffff;fill-opacity:1;fill-rule:nonzero;stroke:none;stroke-width:0.1"
         id="path30" /><path
         d="m 177.938,158.08 h 26.743"
         style="fill:none;stroke:#000000;stroke-width:1.3;stroke-linecap:round;stroke-linejoin:round;stroke-miterlimit:10;stroke-dasharray:none;stroke-opacity:1"
         id="path32" /><path
         d="m 177.938,148.558 h 43.126"
         style="fill:none;stroke:#000000;stroke-width:1.3;stroke-linecap:round;stroke-linejoin:round;stroke-miterlimit:10;stroke-dasharray:none;stroke-opacity:1"
         id="path34" /><path
         d="m 138.252,125.51 h 29.587"
         style="fill:none;stroke:#ffffff;stroke-width:1.3;stroke-linecap:round;stroke-linejoin:round;stroke-miterlimit:10;stroke-dasharray:none;stroke-opacity:1"
         id="path36" /><path
         d="m 138.252,115.678 h 82.812"
         style="fill:none;stroke:#ffffff;stroke-width:1.3;stroke-linecap:round;stroke-linejoin:round;stroke-miterlimit:10;stroke-dasharray:none;stroke-opacity:1"
         id="path38" /><path
         d="m 138.252,104.846 h 82.812"
         style="fill:none;stroke:#ffffff;stroke-width:1.3;stroke-linecap:round;stroke-linejoin:round;stroke-miterlimit:10;stroke-dasharray:none;stroke-opacity:1"
         id="path40" /><path
         d="m 78.6137,331.396 c 0,-13.106 -10.6242,-23.731 -23.7309,-23.731 -13.1062,0 -23.7312,10.625 -23.7312,23.731 0,13.106 10.625,23.731 23.7312,23.731 13.1067,0 23.7309,-10.625 23.7309,-23.731"
         style="fill:#dc761c;fill-opacity:1;fill-rule:nonzero;stroke:none;stroke-width:0.1"
         id="path42" /><path
         d="m 45.323,330.266 7.4485,-5.517 12.7605,13.241"
         style="fill:none;stroke:#ffffff;stroke-width:2.13607;stroke-linecap:round;stroke-linejoin:round;stroke-miterlimit:10;stroke-dasharray:none;stroke-opacity:1"
         id="path44" /><path
         d="M 147.583,202.794 H 68.1234 c -2.8632,0 -5.1847,2.321 -5.1847,5.185 v 55.362 c 0,2.864 2.3215,5.185 5.1847,5.185 h 79.4596 c 2.863,0 5.185,-2.321 5.185,-5.185 v -55.362 c 0,-2.864 -2.322,-5.185 -5.185,-5.185"
         style="fill:#4479fa;fill-opacity:1;fill-rule:nonzero;stroke:none;stroke-width:0.1"
         id="path46" /><path
         d="m 107.509,234.832 c -3.449,0 -6.245,2.796 -6.245,6.245 0,3.449 2.796,6.246 6.245,6.246 3.449,0 6.246,-2.797 6.246,-6.246 0,-3.449 -2.797,-6.245 -6.246,-6.245 z m 14.192,6.179 c 0,7.838 -6.354,14.191 -14.192,14.191 -7.8375,0 -14.1914,-6.353 -14.1914,-14.191 0,-2.619 0.7219,-5.064 1.959,-7.17 h -0.0078 l 0.0402,-0.053 c 0.5445,-0.917 1.1851,-1.767 1.9144,-2.537 l 10.2856,-13.624 10.275,13.612 c 0.738,0.777 1.385,1.636 1.934,2.564 l 0.03,0.038 h -0.006 c 1.237,2.106 1.959,4.551 1.959,7.17"
         style="fill:#ffffff;fill-opacity:1;fill-rule:nonzero;stroke:none;stroke-width:0.1"
         id="path48" /><path
         d="M 264.165,278.206 H 127.136 c -4.378,0 -7.926,3.548 -7.926,7.925 v 84.625 c 0,4.377 3.548,7.926 7.926,7.926 h 137.029 c 4.377,0 7.926,-3.549 7.926,-7.926 v -84.625 c 0,-4.377 -3.549,-7.925 -7.926,-7.925"
         style="fill:#ffffff;fill-opacity:1;fill-rule:nonzero;stroke:none;stroke-width:0.1"
         id="path50" /><path
         d="m 154.959,328.781 h -20.416 c -1.526,0 -2.763,1.238 -2.763,2.764 v 20.416 c 0,1.526 1.237,2.764 2.763,2.764 h 20.416 c 1.527,0 2.764,-1.238 2.764,-2.764 v -20.416 c 0,-1.526 -1.237,-2.764 -2.764,-2.764"
         style="fill:#9bbdf9;fill-opacity:1;fill-rule:nonzero;stroke:none;stroke-width:0.1"
         id="path52" /><path
         d="m 188.01,328.781 h -20.416 c -1.527,0 -2.764,1.238 -2.764,2.764 v 20.416 c 0,1.526 1.237,2.764 2.764,2.764 h 20.416 c 1.526,0 2.763,-1.238 2.763,-2.764 v -20.416 c 0,-1.526 -1.237,-2.764 -2.763,-2.764"
         style="fill:#9bbdf9;fill-opacity:1;fill-rule:nonzero;stroke:none;stroke-width:0.1"
         id="path54" /><path
         d="m 221.061,328.781 h -20.417 c -1.526,0 -2.764,1.238 -2.764,2.764 v 20.416 c 0,1.526 1.238,2.764 2.764,2.764 h 20.417 c 1.525,0 2.763,-1.238 2.763,-2.764 v -20.416 c 0,-1.526 -1.238,-2.764 -2.763,-2.764"
         style="fill:#9bbdf9;fill-opacity:1;fill-rule:nonzero;stroke:none;stroke-width:0.1"
         id="path56" /><path
         d="m 254.11,328.781 h -20.416 c -1.526,0 -2.763,1.238 -2.763,2.764 v 20.416 c 0,1.526 1.237,2.764 2.763,2.764 h 20.416 c 1.527,0 2.764,-1.238 2.764,-2.764 v -20.416 c 0,-1.526 -1.237,-2.764 -2.764,-2.764"
         style="fill:#dc761c;fill-opacity:1;fill-rule:nonzero;stroke:none;stroke-width:0.1"
         id="path58" /><path
         d="m 154.959,293.786 h -20.416 c -1.526,0 -2.763,1.237 -2.763,2.763 v 20.416 c 0,1.527 1.237,2.764 2.763,2.764 h 20.416 c 1.527,0 2.764,-1.237 2.764,-2.764 v -20.416 c 0,-1.526 -1.237,-2.763 -2.764,-2.763"
         style="fill:#9bbdf9;fill-opacity:1;fill-rule:nonzero;stroke:none;stroke-width:0.1"
         id="path60" /><path
         d="m 188.01,293.786 h -20.416 c -1.527,0 -2.764,1.237 -2.764,2.763 v 20.416 c 0,1.527 1.237,2.764 2.764,2.764 h 20.416 c 1.526,0 2.763,-1.237 2.763,-2.764 v -20.416 c 0,-1.526 -1.237,-2.763 -2.763,-2.763"
         style="fill:#9bbdf9;fill-opacity:1;fill-rule:nonzero;stroke:none;stroke-width:0.1"
         id="path62" /><path
         d="m 221.061,293.786 h -20.417 c -1.526,0 -2.764,1.237 -2.764,2.763 v 20.416 c 0,1.527 1.238,2.764 2.764,2.764 h 20.417 c 1.525,0 2.763,-1.237 2.763,-2.764 v -20.416 c 0,-1.526 -1.238,-2.763 -2.763,-2.763"
         style="fill:#9bbdf9;fill-opacity:1;fill-rule:nonzero;stroke:none;stroke-width:0.1"
         id="path64" /><path
         d="m 254.11,293.786 h -20.416 c -1.526,0 -2.763,1.237 -2.763,2.763 v 20.416 c 0,1.527 1.237,2.764 2.763,2.764 h 20.416 c 1.527,0 2.764,-1.237 2.764,-2.764 v -20.416 c 0,-1.526 -1.237,-2.763 -2.764,-2.763"
         style="fill:#9bbdf9;fill-opacity:1;fill-rule:nonzero;stroke:none;stroke-width:0.1"
         id="path66" /><g
         id="g68"><text
           transform="matrix(1,0,0,-1,131.78,361.099)"
           style="font-variant:normal;font-weight:normal;font-size:14.6968px;font-family:BuiltTitlingRg;-inkscape-font-specification:BuiltTitlingRg-Regular;writing-mode:lr-tb;fill:#dc761c;fill-opacity:1;fill-rule:nonzero;stroke:none"
           id="text72"><tspan
             x="0 5.6435714 11.081562 15.975596 21.619143 27.335941 32.391602"
             y="0"
             sodipodi:role="line"
             id="tspan70">october</tspan></text></g><path
         d="M 266.905,202.794 H 177.26 c -2.864,0 -5.185,2.321 -5.185,5.185 v 55.362 c 0,2.864 2.321,5.185 5.185,5.185 h 89.645 c 2.865,0 5.186,-2.321 5.186,-5.185 v -55.362 c 0,-2.864 -2.321,-5.185 -5.186,-5.185"
         style="fill:#ffffff;fill-opacity:1;fill-rule:nonzero;stroke:none;stroke-width:0.1"
         id="path74" /><path
         d="m 258.492,246.126 h -71.05 c -1.526,0 -2.763,1.237 -2.763,2.764 v 9.416 c 0,1.526 1.237,2.763 2.763,2.763 h 71.05 c 1.527,0 2.764,-1.237 2.764,-2.763 v -9.416 c 0,-1.527 -1.237,-2.764 -2.764,-2.764"
         style="fill:#9bbdf9;fill-opacity:1;fill-rule:nonzero;stroke:none;stroke-width:0.1"
         id="path76" /><path
         d="m 185.679,236.339 h 34.898"
         style="fill:none;stroke:#000000;stroke-width:1.3;stroke-linecap:round;stroke-linejoin:round;stroke-miterlimit:10;stroke-dasharray:none;stroke-opacity:1"
         id="path78" /><path
         d="m 185.679,227.84 h 74.577"
         style="fill:none;stroke:#000000;stroke-width:1.3;stroke-linecap:round;stroke-linejoin:round;stroke-miterlimit:10;stroke-dasharray:none;stroke-opacity:1"
         id="path80" /><path
         d="m 185.679,218.467 h 74.577"
         style="fill:none;stroke:#000000;stroke-width:1.3;stroke-linecap:round;stroke-linejoin:round;stroke-miterlimit:10;stroke-dasharray:none;stroke-opacity:1"
         id="path82" /><path
         d="m 314.978,102.39 h -51.963 c -3.487,0 -6.313,2.826 -6.313,6.312 v 45.069 c 0,3.486 2.826,6.312 6.313,6.312 h 51.963 c 3.486,0 6.312,-2.826 6.312,-6.312 v -45.069 c 0,-3.486 -2.826,-6.312 -6.312,-6.312"
         style="fill:#dc761c;fill-opacity:1;fill-rule:nonzero;stroke:none;stroke-width:0.1"
         id="path84" /><path
         d="m 288.993,125.613 c -3.113,0.001 -5.637,2.525 -5.637,5.637 0,3.112 2.524,5.636 5.637,5.636 3.112,0 5.636,-2.524 5.636,-5.636 0,-0.011 0,-0.021 0,-0.031 -0.018,-3.101 -2.535,-5.606 -5.636,-5.606 z m 12.799,8.137 -2.121,0.372 c -0.249,0.925 -0.617,1.814 -1.096,2.643 l 1.237,1.763 c 0.455,0.648 0.378,1.53 -0.182,2.088 l -1.271,1.271 c -0.567,0.55 -1.448,0.612 -2.088,0.149 l -1.764,-1.237 c -0.829,0.478 -1.717,0.847 -2.642,1.095 l -0.365,2.169 c -0.133,0.77 -0.794,1.337 -1.574,1.352 h -1.832 c -0.794,0.001 -1.474,-0.569 -1.609,-1.352 l -0.371,-2.115 c -0.925,-0.249 -1.813,-0.616 -2.642,-1.095 l -1.757,1.183 c -0.649,0.454 -1.529,0.377 -2.089,-0.182 l -1.271,-1.271 c -0.559,-0.56 -0.636,-1.44 -0.182,-2.089 l 1.237,-1.764 c -0.478,-0.829 -0.847,-1.717 -1.095,-2.642 l -2.115,-0.371 c -0.782,-0.136 -1.353,-0.815 -1.351,-1.609 v -1.797 c -0.002,-0.794 0.569,-1.474 1.351,-1.609 l 2.115,-0.372 c 0.248,-0.925 0.617,-1.812 1.095,-2.642 l -1.237,-1.764 c -0.454,-0.648 -0.377,-1.528 0.182,-2.088 l 1.271,-1.271 c 0.56,-0.56 1.44,-0.636 2.089,-0.182 l 1.763,1.237 c 0.83,-0.478 1.718,-0.847 2.643,-1.095 l 0.371,-2.116 c 0.135,-0.782 0.815,-1.352 1.609,-1.351 h 1.825 c 0.794,-0.001 1.472,0.569 1.608,1.351 l 0.371,2.116 c 0.925,0.248 1.814,0.616 2.643,1.095 l 1.723,-1.21 c 0.648,-0.455 1.529,-0.378 2.088,0.183 l 1.271,1.27 c 0.56,0.559 0.637,1.441 0.182,2.088 l -1.237,1.778 c 0.479,0.829 0.847,1.717 1.096,2.642 l 2.121,0.371 c 0.783,0.136 1.353,0.816 1.352,1.609 v 1.797 c -0.001,0.792 -0.572,1.467 -1.352,1.602"
         style="fill:#ffffff;fill-opacity:1;fill-rule:nonzero;stroke:none;stroke-width:0.1"
         id="path86" /><path
         d="M 40.4031,38.1941 H 450.344"
         style="fill:none;stroke:#000000;stroke-width:0.75;stroke-linecap:butt;stroke-linejoin:miter;stroke-miterlimit:10;stroke-dasharray:none;stroke-opacity:1"
         id="path88" /><path
         d="m 375.47,408.64 h 40.308 c 9.964,0 18.042,8.078 18.042,18.043 v 0 c 0,9.965 -8.078,18.043 -18.042,18.043 H 375.47 c -9.965,0 -18.043,-8.078 -18.043,-18.043 v 0 c 0,-9.965 8.078,-18.043 18.043,-18.043"
         style="fill:#9bbdf9;fill-opacity:1;fill-rule:nonzero;stroke:none;stroke-width:0.1"
         id="path90" /><path
         d="m 389.655,412.617 -13.08,-12.842 -2.378,13.793 z"
         style="fill:#9bbdf9;fill-opacity:1;fill-rule:nonzero;stroke:none;stroke-width:0.1"
         id="path92" /><path
         d="m 389.571,432.41 c -1.881,1.841 -4.892,1.809 -6.731,-0.071 l -1.213,-1.238 -1.248,1.229 c -1.872,1.846 -4.887,1.822 -6.733,-0.051 -1.843,-1.874 -1.821,-4.888 0.053,-6.733 l 4.631,-4.56 c 0.01,-0.01 0.017,-0.022 0.026,-0.031 0.74,-0.725 1.653,-1.158 2.603,-1.304 1.466,-0.225 3.013,0.235 4.129,1.374 l 4.555,4.652 c 1.839,1.879 1.807,4.893 -0.072,6.733"
         style="fill:#ffffff;fill-opacity:1;fill-rule:nonzero;stroke:none;stroke-width:0.1"
         id="path94" /><path
         d="m 398.68,430.809 h 18.545"
         style="fill:none;stroke:#ffffff;stroke-width:1.01864;stroke-linecap:round;stroke-linejoin:round;stroke-miterlimit:10;stroke-dasharray:none;stroke-opacity:1"
         id="path96" /><path
         d="m 398.68,425.664 h 9.781"
         style="fill:none;stroke:#ffffff;stroke-width:1.01864;stroke-linecap:round;stroke-linejoin:round;stroke-miterlimit:10;stroke-dasharray:none;stroke-opacity:1"
         id="path98" /><path
         d="m 337.806,50.6488 -11.861,-6.5277 c -1.257,-0.6922 -2.018,-2.2762 -1.628,-3.7781 0.308,-1.1871 1.321,-2.0942 3.959,-2.1461 5.864,-0.1168 31.808,4.207 31.808,4.207 V 38.675 l 12.125,-0.0641 c 0,0 0.758,17.6352 -2.908,19.8832 l -31.495,-7.8453"
         style="fill:#200902;fill-opacity:1;fill-rule:nonzero;stroke:none;stroke-width:0.1"
         id="path100" /><path
         d="M 353.693,63.6191 337.806,50.6488 c 0,0 2.044,-5.8636 11.098,-1.9539 9.054,3.909 20.397,9.7992 20.397,9.7992 l -1.655,6.786 -13.953,-1.661"
         style="fill:#ecc696;fill-opacity:1;fill-rule:nonzero;stroke:none;stroke-width:0.1"
         id="path102" /><path
         d="m 367.646,65.2801 1.655,47.0799 -15.748,1.281 V 58.4941 l 14.093,6.786"
         style="fill:#ecc696;fill-opacity:1;fill-rule:nonzero;stroke:none;stroke-width:0.1"
         id="path104" /><path
         d="m 339.605,253.715 6.587,-183.338 h 30.542 l 1.561,198.149 -38.69,-14.811"
         style="fill:#3a2222;fill-opacity:1;fill-rule:nonzero;stroke:none;stroke-width:0.1"
         id="path106" /><path
         d="m 343.03,256.929 15.368,-89.326 c 1.864,-11.025 13.166,-17.749 23.745,-14.126 v 0 c 7.78,2.665 12.791,10.234 12.205,18.437 l -2.941,40.574 c -1.483,13.773 1.933,31.583 -13.112,56.038 L 343.03,256.929"
         style="fill:#523332;fill-opacity:1;fill-rule:nonzero;stroke:none;stroke-width:0.1"
         id="path108" /><path
         d="m 423.808,55.15 -6.59,-11.8258 c -0.698,-1.2543 -0.504,-3.0012 0.624,-4.066 0.89,-0.8434 2.229,-1.0742 4.494,0.2809 5.032,3.0121 24.731,20.4398 24.731,20.4398 l 1.979,-3.1617 10.311,6.3789 c 0,0 -8.712,15.3519 -13.013,15.3121 L 423.808,55.15"
         style="fill:#200902;fill-opacity:1;fill-rule:nonzero;stroke:none;stroke-width:0.1"
         id="path110" /><path
         d="M 430.395,74.5719 423.808,55.15 c 0,0 4.843,-3.8859 10.445,4.2309 5.6,8.1171 12.091,19.1273 12.091,19.1273 l -5.001,4.875 -10.948,-8.8113"
         style="fill:#ecc696;fill-opacity:1;fill-rule:nonzero;stroke:none;stroke-width:0.1"
         id="path112" /><path
         d="M 441.343,83.3832 417.768,124.17 403.74,116.9 432.995,70.1531 441.343,83.3832"
         style="fill:#ecc696;fill-opacity:1;fill-rule:nonzero;stroke:none;stroke-width:0.1"
         id="path114" /><path
         d="m 360.686,161.361 56.772,-84.6641 26.456,16.9609 -54.868,92.1172 -28.36,-24.414"
         style="fill:#523332;fill-opacity:1;fill-rule:nonzero;stroke:none;stroke-width:0.1"
         id="path116" /><path
         d="m 318.332,402.007 c 0,0 -12.615,1.643 -14.261,-10.296 -1.224,-8.887 2.866,-13.264 -0.34,-20.412 -3.205,-7.148 2.809,-13.539 2.809,-13.539 0,0 14.944,-6.941 31.179,7.253 l -19.387,36.994"
         style="fill:#dc761c;fill-opacity:1;fill-rule:nonzero;stroke:none;stroke-width:0.1"
         id="path118" /><path
         d="m 323.233,362.068 6.844,-17.78 14.321,3.814 -13.226,25.561 -7.939,-11.595"
         style="fill:#ecc696;fill-opacity:1;fill-rule:nonzero;stroke:none;stroke-width:0.1"
         id="path120" /><path
         d="m 326.504,353.572 2.935,13.027 -5.337,-6.786 z"
         style="fill:#000000;fill-opacity:1;fill-rule:nonzero;stroke:none;stroke-width:0.1"
         id="path122" /><path
         d="m 316.734,399.334 c 0,0 -8.501,-1.794 -8.506,-12.583 0,0 -0.408,-4.123 0.132,-15.363 0.382,-7.961 4.139,-13.474 11.61,-12.713 3.623,0.37 7.417,2.581 10.814,5.444 l 4.759,4.85 c 11.004,13.427 -0.477,33.662 -17.565,30.611 -0.41,-0.073 -0.824,-0.155 -1.244,-0.246"
         style="fill:#ecc696;fill-opacity:1;fill-rule:nonzero;stroke:none;stroke-width:0.1"
         id="path124" /><path
         d="m 308.904,377.661 -3.013,-5.289 c -0.354,-0.56 -0.17,-1.422 0.569,-1.469 l 3.905,-0.508 -1.461,7.266"
         style="fill:#ecc696;fill-opacity:1;fill-rule:nonzero;stroke:none;stroke-width:0.1"
         id="path126" /><path
         d="m 328.997,380.804 c 0.303,2.442 1.964,19.428 -10.762,17.236 -1.974,-0.341 -2.975,2.288 -1.276,3.349 4.547,2.84 11.77,4.797 22.212,0.776 4.239,-1.633 10.08,-7.222 10.082,-12.712 0.006,-11.786 -3.921,-17.762 -10.829,-23.829 -0.355,-0.312 -0.914,-0.206 -1.131,0.214 l -4.451,8.601 c -0.016,0.031 -0.028,0.06 -0.038,0.093 -0.491,1.561 -2.968,4.844 -3.663,5.747 -0.118,0.152 -0.167,0.334 -0.144,0.525"
         style="fill:#dc761c;fill-opacity:1;fill-rule:nonzero;stroke:none;stroke-width:0.1"
         id="path128" /><path
         d="m 320.478,402.211 c -16.004,-7.378 7.417,-24.939 7.417,-24.939 v 0 l 6.59,12.973 c 0,0 -11.334,13.198 -14.007,11.966"
         style="fill:#dc761c;fill-opacity:1;fill-rule:nonzero;stroke:none;stroke-width:0.1"
         id="path130" /><path
         d="m 309.87,387.517 8.462,-2.869 c 0,0 -1.473,2.722 -4.474,4.18 -4.031,1.959 -3.988,-1.311 -3.988,-1.311"
         style="fill:#000000;fill-opacity:1;fill-rule:nonzero;stroke:none;stroke-width:0.1"
         id="path132" /><path
         d="m 311.649,381.736 c 0,0 2.846,-0.616 2.945,-3.458 0.099,-2.841 -2.996,-2.648 -2.996,-2.648 0,0 -2.671,3.439 0.051,6.106"
         style="fill:#ffffff;fill-opacity:1;fill-rule:nonzero;stroke:none;stroke-width:0.1"
         id="path134" /><g
         id="g136"
         transform="scale(0.1)"><g
           id="g138"
           clip-path="url(#clipPath142)"><path
             d="m 3122.25,3824.7 c 0,0 22.1,-41.08 -6.27,-68.4 -28.37,-27.31 0,0 0,0 l -15.92,1.52 -0.76,45.28 22.95,21.6"
             style="fill:#000000;fill-opacity:1;fill-rule:nonzero;stroke:none"
             id="path144" /></g></g><path
         d="m 310.963,382.45 c 0.525,-0.036 0.946,-0.153 1.388,-0.325 0.43,-0.175 0.834,-0.42 1.179,-0.727 0.345,-0.306 0.64,-0.669 0.839,-1.072 0.219,-0.394 0.333,-0.826 0.427,-1.248 0.019,-0.09 -0.037,-0.178 -0.126,-0.197 -0.081,-0.018 -0.161,0.027 -0.19,0.102 l -0.004,0.013 c -0.146,0.379 -0.304,0.75 -0.543,1.061 -0.222,0.323 -0.512,0.584 -0.827,0.791 -0.316,0.207 -0.667,0.356 -1.032,0.444 -0.355,0.087 -0.768,0.126 -1.081,0.1 l -0.021,-0.002 c -0.293,-0.025 -0.55,0.192 -0.576,0.485 -0.024,0.292 0.193,0.55 0.486,0.575 0.026,0.002 0.055,0.002 0.081,0"
         style="fill:#000000;fill-opacity:1;fill-rule:nonzero;stroke:none;stroke-width:0.1"
         id="path146" /><path
         d="m 308.883,368.886 c -1.011,-0.159 -1.087,-1.33 -0.162,-1.709 0,0 -1.223,-1.248 0.633,-1.663 1.857,-0.416 3.596,2.754 3.596,2.754 -2.264,-0.502 -2.734,0.827 -4.067,0.618"
         style="fill:#c7181b;fill-opacity:1;fill-rule:nonzero;stroke:none;stroke-width:0.1"
         id="path148" /><path
         d="m 330.186,373.591 c 0.996,-7.121 0.167,-14.986 0.167,-14.986 0,0 20.197,-6.49 29.374,16.491 0,0 -5.862,2.26 -7.661,7.299 -1.799,5.038 -0.023,22.566 -23.596,22.046 0,0 0.593,-22.827 1.716,-30.85"
         style="fill:#dc761c;fill-opacity:1;fill-rule:nonzero;stroke:none;stroke-width:0.1"
         id="path150" /><path
         d="m 337.943,377.415 c 0.373,-2.982 -1.743,-5.701 -4.724,-6.074 -2.983,-0.372 -5.702,1.743 -6.074,4.726 -0.373,2.982 1.743,5.702 4.725,6.074 2.983,0.372 5.701,-1.744 6.073,-4.726"
         style="fill:#ecc696;fill-opacity:1;fill-rule:nonzero;stroke:none;stroke-width:0.1"
         id="path152" /><path
         d="m 330.186,374.44 c 0,0 0.213,4.143 3.626,4.216"
         style="fill:none;stroke:#000000;stroke-width:0.511053;stroke-linecap:round;stroke-linejoin:round;stroke-miterlimit:10;stroke-dasharray:none;stroke-opacity:1"
         id="path154" /><path
         d="m 365.341,334.448 33.475,-27.11 c 4.793,-4.094 5.158,-11.376 0.796,-15.928 v 0 c -3.988,-4.163 -10.518,-4.529 -14.946,-0.836 l -36.33,28.781 17.005,15.093"
         style="fill:#ecc696;fill-opacity:1;fill-rule:nonzero;stroke:none;stroke-width:0.1"
         id="path156" /><path
         d="m 385.424,324.495 c 0,0 -1.431,-10.794 -20.24,-23.183 l -25.569,19.006 c -7.139,5.308 -8.182,15.6 -2.253,22.232 v 0 c 4.913,5.494 13.07,6.65 19.316,2.738 l 28.746,-20.793"
         style="fill:#467ac9;fill-opacity:1;fill-rule:nonzero;stroke:none;stroke-width:0.1"
         id="path158" /><path
         d="m 384.807,290.185 33.205,-42.66 8.144,9.547 -24.823,47.385 c -4.037,5.446 -12.004,5.951 -16.696,1.058 v 0 c -4.128,-4.304 -4.052,-11.119 0.17,-15.33"
         style="fill:#ecc696;fill-opacity:1;fill-rule:nonzero;stroke:none;stroke-width:0.1"
         id="path160" /><path
         d="m 416.076,249.336 -0.342,-2.136 c -0.458,-2.869 -0.236,-5.806 0.65,-8.574 l 1.557,-4.873 c 0.37,-1.157 1.693,-1.705 2.774,-1.148 v 0 c 0.912,0.471 1.446,1.45 1.35,2.471 l -0.508,5.406 10.8,-15.285 c 0.51,-0.761 1.574,-0.903 2.265,-0.3 l 0.464,0.404 c 0.546,0.475 0.681,1.27 0.322,1.899 l -6.895,10.543 9.595,-11.014 c 0.557,-0.725 1.622,-0.799 2.275,-0.159 l 0.322,0.318 c 0.548,0.539 0.608,1.401 0.141,2.011 l -7.935,10.213 7.727,-6.429 c 0.727,-0.645 1.864,-0.452 2.338,0.398 l 0.095,0.171 c 0.324,0.583 0.232,1.309 -0.227,1.791 l -7.551,7.252 4.741,-2.834 c 0.872,-0.706 2.183,-0.259 2.44,0.833 v 0 c 0.123,0.52 -0.037,1.065 -0.418,1.438 l -19.265,18.033 -3.937,-4.503 c -1.464,-1.675 -2.427,-3.729 -2.778,-5.926"
         style="fill:#ecc696;fill-opacity:1;fill-rule:nonzero;stroke:none;stroke-width:0.1"
         id="path162" /><path
         d="m 339.756,348.644 c 0,0 -13.157,1.275 -13.329,-22.493 -0.173,-23.83 7.346,-35.062 13.178,-72.436 0,0 22.314,2.736 38.69,14.811 0,0 1.018,87.537 -38.539,80.118"
         style="fill:#4479fa;fill-opacity:1;fill-rule:nonzero;stroke:none;stroke-width:0.1"
         id="path164" /><path
         d="m 337.097,316.801 -31.118,-29.786 c -4.667,-4.238 -11.937,-3.68 -15.902,1.221 v 0 c -3.626,4.482 -3.164,11.006 1.058,14.932 l 33.135,32.408 12.827,-18.775"
         style="fill:#ecc696;fill-opacity:1;fill-rule:nonzero;stroke:none;stroke-width:0.1"
         id="path166" /><path
         d="m 328.612,297.915 c 0,0 -10.854,0.375 -22.013,22.504 l 21.881,23.155 c 6.111,6.466 16.455,6.291 22.343,-0.378 v 0 c 4.878,-5.525 5.067,-13.76 0.447,-19.503 l -22.658,-25.778"
         style="fill:#4479fa;fill-opacity:1;fill-rule:nonzero;stroke:none;stroke-width:0.1"
         id="path168" /><path
         d="m 331.617,301.334 14.96,17.021"
         style="fill:none;stroke:#000000;stroke-width:0.511053;stroke-linecap:round;stroke-linejoin:round;stroke-miterlimit:10;stroke-dasharray:none;stroke-opacity:1"
         id="path170" /><path
         d="m 305.434,302.837 -44.341,33.552 -5.822,-9.13 35.04,-39.349 c 4.274,-5.026 12.042,-5.001 16.281,0.054 v 0 c 3.728,4.446 3.214,11.058 -1.158,14.873"
         style="fill:#ecc696;fill-opacity:1;fill-rule:nonzero;stroke:none;stroke-width:0.1"
         id="path172" /><path
         d="m 266.967,327.123 c -1.671,-5.619 -7.093,-5.394 -17.754,-2.406 -5.644,1.582 -7.692,5.582 -6.021,11.2 1.671,5.619 7.581,8.819 13.2,7.148 5.618,-1.671 12.246,-10.324 10.575,-15.942"
         style="fill:#ecc696;fill-opacity:1;fill-rule:nonzero;stroke:none;stroke-width:0.1"
         id="path174" /><path
         d="m 258.346,342.266 -13.549,7.877 c -0.892,0.605 -2.145,0.389 -2.761,-0.476 v 0 c -0.535,-0.75 -0.414,-1.75 0.284,-2.359 l 10.517,-8.891 5.509,3.849"
         style="fill:#ecc696;fill-opacity:1;fill-rule:nonzero;stroke:none;stroke-width:0.1"
         id="path176" /></g></g></svg>
