<?xml version="1.0" encoding="UTF-8" standalone="no"?>
<!-- Created with Inkscape (http://www.inkscape.org/) -->

<svg
   version="1.1"
   id="svg2"
   xml:space="preserve"
   width="4158.1431"
   height="4158.1431"
   viewBox="0 0 4158.1431 4158.1431"
   sodipodi:docname="social.svg"
   inkscape:version="1.1.2 (0a00cf5339, 2022-02-04)"
   inkscape:export-filename="/mnt/18E09909E098EE6E/Projects/Freelancer/files/SVG/social.png"
   inkscape:export-xdpi="260.02701"
   inkscape:export-ydpi="260.02701"
   xmlns:inkscape="http://www.inkscape.org/namespaces/inkscape"
   xmlns:sodipodi="http://sodipodi.sourceforge.net/DTD/sodipodi-0.dtd"
   xmlns="http://www.w3.org/2000/svg"
   xmlns:svg="http://www.w3.org/2000/svg"><defs
     id="defs6"><clipPath
       clipPathUnits="userSpaceOnUse"
       id="clipPath56"><path
         d="m 14746.7,20132.4 h -2319.9 c -110,0 -200,72 -200,160 0,88 90,160 200,160 h 2319.9 c 110,0 200,-72 200,-160 0,-88 -90,-160 -200,-160"
         id="path54" /></clipPath></defs><sodipodi:namedview
     id="namedview4"
     pagecolor="#ffffff"
     bordercolor="#999999"
     borderopacity="1"
     inkscape:pageshadow="0"
     inkscape:pageopacity="0"
     inkscape:pagecheckerboard="0"
     showgrid="false"
     fit-margin-top="0"
     fit-margin-left="0"
     fit-margin-right="0"
     fit-margin-bottom="0"
     inkscape:zoom="0.053237969"
     inkscape:cx="1709.3064"
     inkscape:cy="2488.8252"
     inkscape:window-width="1440"
     inkscape:window-height="790"
     inkscape:window-x="0"
     inkscape:window-y="0"
     inkscape:window-maximized="1"
     inkscape:current-layer="g8" /><g
     id="g8"
     inkscape:groupmode="layer"
     inkscape:label="ink_ext_XXXXXX"
     transform="matrix(1.3333333,0,0,-1.3333333,1831.7833,4199.3834)"><g
       id="g371"
       transform="translate(-1811.8439,124.90389)"><path
         d="m 1664.23,2265.69 c 586.95,279.44 1120.34,98.76 864.49,-490.25 -255.86,-589.01 463.24,-661.28 116.33,-928.68 -346.89,-267.4 -1261.92,-317.99 -1333.79,130.09 -71.87,448.08 354.54,574.55 193.73,1011.79 -160.81,437.24 159.24,277.05 159.24,277.05"
         style="fill:#e8e8f7;fill-opacity:1;fill-rule:nonzero;stroke:none;stroke-width:0.1"
         id="path14" /><path
         d="m 2496,447.24 c 0,-60.75 -183.56,-110 -410,-110 -226.44,0 -410,49.25 -410,110 0,60.75 183.56,110 410,110 226.44,0 410,-49.25 410,-110"
         style="fill:#dedef7;fill-opacity:1;fill-rule:nonzero;stroke:none;stroke-width:0.1"
         id="path16" /><path
         d="m 2688.66,1265.91 55.95,109.96 -40.51,-30.87 z"
         style="fill:#428aeb;fill-opacity:1;fill-rule:nonzero;stroke:none;stroke-width:0.1"
         id="path18" /><path
         d="m 2565.21,1410.59 246.91,138.89 -135.03,-190.97 z"
         style="fill:#6ba9fb;fill-opacity:1;fill-rule:nonzero;stroke:none;stroke-width:0.1"
         id="path20" /><path
         d="m 2704.1,1345 108.02,-50.15 v 254.63 z"
         style="fill:#6ba9fb;fill-opacity:1;fill-rule:nonzero;stroke:none;stroke-width:0.1"
         id="path22" /><path
         d="m 2677.09,1358.51 11.57,-92.6 15.44,79.09 108.02,204.48 -135.03,-190.97"
         style="fill:#428aeb;fill-opacity:1;fill-rule:nonzero;stroke:none;stroke-width:0.1"
         id="path24" /><path
         d="m 1394.03,1276.37 c -172.75,82.45 -56.75,222.74 0,138 h -0.01 c 56.75,84.74 172.75,-55.55 0,-138 h 0.01"
         style="fill:#ff4962;fill-opacity:1;fill-rule:nonzero;stroke:none;stroke-width:0.1"
         id="path26" /><path
         d="m 1648.48,2388.46 c -1.59,0 -3.18,0.63 -4.36,1.88 -2.28,2.41 -2.17,6.21 0.24,8.48 5.87,5.54 11.87,11.04 17.83,16.33 2.48,2.21 6.27,1.99 8.47,-0.49 2.2,-2.48 1.98,-6.27 -0.5,-8.47 -5.87,-5.22 -11.78,-10.64 -17.56,-16.1 -1.16,-1.09 -2.64,-1.63 -4.12,-1.63"
         style="fill:#292f52;fill-opacity:1;fill-rule:nonzero;stroke:none;stroke-width:0.1"
         id="path28" /><path
         d="m 2160.36,2578.81 c -0.2,0 -0.39,0.01 -0.59,0.03 -15.57,1.52 -31.5,2.39 -47.33,2.58 -3.32,0.04 -5.96,2.76 -5.92,6.07 0.03,3.29 2.71,5.93 5.99,5.93 h 0.08 c 16.17,-0.2 32.44,-1.09 48.35,-2.64 3.29,-0.32 5.7,-3.26 5.38,-6.56 -0.3,-3.1 -2.91,-5.41 -5.96,-5.41 m -155.19,-5.97 c -2.87,0 -5.41,2.06 -5.91,4.99 -0.56,3.26 1.64,6.37 4.9,6.93 15.91,2.72 32.05,4.83 47.98,6.28 3.3,0.29 6.22,-2.14 6.52,-5.44 0.29,-3.3 -2.14,-6.22 -5.44,-6.51 -15.61,-1.42 -31.44,-3.49 -47.03,-6.16 -0.35,-0.06 -0.68,-0.09 -1.02,-0.09 m 260.71,-15.28 c -0.6,0 -1.2,0.09 -1.8,0.28 -14.85,4.66 -30.26,8.69 -45.8,11.99 -3.24,0.69 -5.31,3.87 -4.62,7.11 0.69,3.24 3.84,5.32 7.12,4.63 15.9,-3.38 31.68,-7.51 46.89,-12.28 3.16,-0.99 4.92,-4.36 3.93,-7.52 -0.8,-2.56 -3.17,-4.21 -5.72,-4.21 m -364.89,-11.99 c -2.47,0 -4.78,1.54 -5.65,4 -1.11,3.12 0.52,6.55 3.65,7.66 15.17,5.38 30.7,10.24 46.15,14.45 3.2,0.88 6.49,-1.02 7.36,-4.21 0.87,-3.2 -1.01,-6.5 -4.21,-7.37 -15.16,-4.13 -30.4,-8.9 -45.3,-14.18 -0.66,-0.24 -1.33,-0.35 -2,-0.35 m 463.1,-31.86 c -1.06,0 -2.12,0.27 -3.09,0.86 -13.25,7.99 -27.3,15.42 -41.75,22.08 -3.02,1.38 -4.33,4.95 -2.95,7.96 1.39,3.01 4.95,4.32 7.96,2.94 14.86,-6.84 29.31,-14.48 42.94,-22.71 2.84,-1.71 3.75,-5.4 2.03,-8.23 -1.12,-1.87 -3.1,-2.9 -5.14,-2.9 m -561.36,-12.23 c -2.12,0 -4.18,1.12 -5.27,3.11 -1.59,2.91 -0.53,6.56 2.38,8.15 14.15,7.75 28.68,15.07 43.17,21.73 3.02,1.39 6.58,0.07 7.96,-2.94 1.39,-3.01 0.07,-6.58 -2.94,-7.96 -14.24,-6.55 -28.51,-13.73 -42.43,-21.35 -0.91,-0.51 -1.9,-0.74 -2.87,-0.74 m 644.65,-55.63 c -1.64,0 -3.27,0.66 -4.45,1.97 -10.34,11.42 -21.76,22.38 -33.94,32.59 -2.55,2.13 -2.88,5.91 -0.75,8.45 2.12,2.54 5.92,2.88 8.45,0.75 12.61,-10.56 24.43,-21.91 35.13,-33.73 2.23,-2.46 2.04,-6.25 -0.42,-8.48 -1.15,-1.04 -2.59,-1.55 -4.02,-1.55 m -734.96,-3.11 c -1.81,0 -3.6,0.82 -4.78,2.37 -2,2.64 -1.49,6.41 1.15,8.41 12.86,9.78 26.1,19.19 39.37,27.98 2.76,1.83 6.48,1.08 8.31,-1.69 1.83,-2.76 1.08,-6.48 -1.68,-8.31 -13.05,-8.65 -26.09,-17.91 -38.74,-27.53 -1.09,-0.83 -2.36,-1.23 -3.63,-1.23 m 792.05,-87.63 c -2.38,0 -4.64,1.43 -5.58,3.79 -5.68,14.35 -12.7,28.45 -20.85,41.92 -1.71,2.84 -0.81,6.53 2.03,8.24 2.82,1.71 6.52,0.82 8.24,-2.02 8.49,-14.05 15.81,-28.75 21.74,-43.72 1.22,-3.08 -0.28,-6.57 -3.37,-7.79 -0.72,-0.28 -1.47,-0.42 -2.21,-0.42 m 19.59,-105.26 h -0.04 c -3.31,0.02 -5.98,2.72 -5.96,6.04 l 0.01,2.01 c 0,15.04 -1.21,30.07 -3.59,44.67 -0.54,3.27 1.68,6.36 4.95,6.89 3.28,0.54 6.35,-1.68 6.89,-4.95 2.49,-15.25 3.75,-30.93 3.75,-46.61 l -0.01,-2.08 c -0.02,-3.3 -2.7,-5.97 -6,-5.97 m -19.05,-105.57 c -0.66,0 -1.32,0.11 -1.98,0.34 -3.13,1.09 -4.78,4.51 -3.69,7.64 5.27,15.11 9.49,30.37 12.53,45.34 0.66,3.26 3.81,5.33 7.08,4.69 3.24,-0.66 5.34,-3.83 4.68,-7.07 -3.15,-15.51 -7.51,-31.29 -12.96,-46.92 -0.86,-2.47 -3.18,-4.02 -5.66,-4.02 m -47.98,-96.22 c -1.12,0 -2.25,0.31 -3.26,0.97 -2.78,1.8 -3.57,5.51 -1.77,8.29 8.78,13.55 16.8,27.3 23.85,40.86 1.53,2.94 5.16,4.08 8.09,2.56 2.94,-1.53 4.09,-5.15 2.56,-8.09 -7.22,-13.91 -15.44,-27.99 -24.43,-41.85 -1.15,-1.77 -3.07,-2.74 -5.04,-2.74 m -66.37,-84.76 c -1.46,0 -2.91,0.52 -4.07,1.58 -2.43,2.25 -2.59,6.04 -0.35,8.48 10.96,11.9 21.38,24.01 30.99,35.99 2.06,2.59 5.84,3 8.43,0.93 2.59,-2.08 3,-5.85 0.93,-8.44 -9.78,-12.19 -20.38,-24.5 -31.52,-36.6 -1.18,-1.29 -2.8,-1.94 -4.41,-1.94 m -77.88,-74.43 c -1.69,0 -3.38,0.72 -4.57,2.11 -2.15,2.53 -1.84,6.31 0.68,8.46 12.31,10.46 24.25,21.14 35.5,31.71 2.41,2.28 6.22,2.16 8.49,-0.26 2.26,-2.41 2.15,-6.21 -0.27,-8.48 -11.4,-10.71 -23.49,-21.52 -35.94,-32.11 -1.13,-0.96 -2.51,-1.43 -3.89,-1.43 m -85.33,-65.81 c -1.89,0 -3.75,0.89 -4.91,2.55 -1.91,2.71 -1.26,6.45 1.45,8.36 13.19,9.28 26.14,18.75 38.48,28.15 2.63,2.01 6.41,1.5 8.41,-1.14 2.01,-2.63 1.5,-6.4 -1.13,-8.41 -12.47,-9.49 -25.54,-19.05 -38.86,-28.42 -1.05,-0.74 -2.25,-1.09 -3.44,-1.09 m -90.4,-58.69 c -2.04,0 -4.02,1.04 -5.15,2.91 -1.7,2.84 -0.79,6.53 2.05,8.24 13.79,8.29 27.43,16.76 40.54,25.19 2.79,1.79 6.51,0.98 8.3,-1.8 1.79,-2.79 0.98,-6.5 -1.81,-8.29 -13.21,-8.5 -26.96,-17.04 -40.85,-25.39 -0.96,-0.58 -2.03,-0.86 -3.08,-0.86 m -94,-52.76 c -2.16,0 -4.24,1.17 -5.32,3.21 -1.53,2.93 -0.4,6.56 2.53,8.1 14.24,7.48 28.38,15.13 42.02,22.71 2.9,1.62 6.56,0.57 8.16,-2.32 1.61,-2.9 0.57,-6.55 -2.32,-8.16 -13.73,-7.64 -27.95,-15.33 -42.28,-22.85 -0.89,-0.47 -1.85,-0.69 -2.79,-0.69 m -95.13,-50.71 c -2.1,0 -4.13,1.1 -5.23,3.05 -1.63,2.88 -0.62,6.54 2.27,8.17 13.72,7.76 27.9,15.53 42.13,23.13 2.93,1.56 6.56,0.45 8.12,-2.47 1.56,-2.93 0.45,-6.56 -2.47,-8.12 -14.15,-7.55 -28.24,-15.28 -41.88,-22.98 -0.93,-0.53 -1.94,-0.78 -2.94,-0.78 m -92.29,-55.71 c -1.97,0 -3.9,0.96 -5.05,2.74 -1.79,2.78 -1,6.5 1.79,8.29 13.25,8.57 26.96,17.16 40.74,25.53 2.83,1.73 6.52,0.83 8.24,-2.01 1.72,-2.83 0.82,-6.52 -2.01,-8.24 -13.68,-8.32 -27.3,-16.85 -40.46,-25.35 -1.01,-0.65 -2.14,-0.96 -3.25,-0.96 m -88.53,-61.51 c -1.82,0 -3.63,0.84 -4.8,2.41 -1.99,2.65 -1.45,6.41 1.2,8.4 12.66,9.47 25.77,18.95 38.98,28.2 2.72,1.9 6.46,1.24 8.36,-1.48 1.9,-2.71 1.23,-6.45 -1.48,-8.35 -13.1,-9.18 -26.11,-18.59 -38.66,-27.98 -1.08,-0.81 -2.34,-1.2 -3.6,-1.2 m -83.68,-67.93 c -1.66,0 -3.31,0.68 -4.5,2.03 -2.19,2.48 -1.96,6.27 0.53,8.47 11.79,10.42 24.13,20.91 36.67,31.18 2.57,2.09 6.35,1.71 8.45,-0.85 2.1,-2.56 1.72,-6.34 -0.85,-8.44 -12.42,-10.17 -24.64,-20.56 -36.33,-30.89 -1.14,-1 -2.56,-1.5 -3.97,-1.5 m -77.28,-75.11 c -1.46,0 -2.93,0.53 -4.08,1.61 -2.43,2.25 -2.57,6.05 -0.31,8.48 10.7,11.52 22.02,23.13 33.62,34.51 2.36,2.33 6.16,2.29 8.48,-0.08 2.32,-2.36 2.29,-6.16 -0.08,-8.48 -11.47,-11.25 -22.65,-22.73 -33.23,-34.12 -1.18,-1.27 -2.79,-1.92 -4.4,-1.92 m -68.54,-83.13 c -1.21,0 -2.44,0.37 -3.5,1.13 -2.69,1.94 -3.3,5.69 -1.36,8.38 9.2,12.74 19.09,25.62 29.4,38.27 2.09,2.57 5.87,2.96 8.44,0.86 2.57,-2.09 2.96,-5.87 0.86,-8.44 -10.16,-12.47 -19.91,-25.16 -28.97,-37.71 -1.17,-1.63 -3.01,-2.49 -4.87,-2.49 m -56.07,-91.94 c -0.9,0 -1.81,0.2 -2.67,0.63 -2.97,1.48 -4.17,5.08 -2.7,8.05 6.99,14.03 14.83,28.29 23.29,42.39 1.71,2.84 5.39,3.76 8.23,2.06 2.85,-1.71 3.76,-5.39 2.06,-8.24 -8.3,-13.82 -15.99,-27.81 -22.83,-41.57 -1.05,-2.1 -3.18,-3.32 -5.38,-3.32 m -37.35,-100.86 c -0.46,0 -0.92,0.05 -1.39,0.16 -3.22,0.77 -5.22,4 -4.45,7.22 3.62,15.26 8.31,30.91 13.93,46.52 1.12,3.12 4.57,4.73 7.68,3.61 3.11,-1.12 4.73,-4.56 3.61,-7.68 -5.47,-15.18 -10.02,-30.4 -13.54,-45.22 -0.66,-2.76 -3.12,-4.61 -5.84,-4.61 m -8.05,-106.97 c -3.03,0 -5.63,2.29 -5.96,5.37 -1.03,9.7 -1.55,19.75 -1.55,29.85 0,6.24 0.2,12.63 0.59,19 0.21,3.31 3.06,5.81 6.36,5.62 3.31,-0.2 5.82,-3.05 5.62,-6.36 -0.38,-6.12 -0.57,-12.27 -0.57,-18.26 0,-9.68 0.5,-19.3 1.49,-28.58 0.35,-3.3 -2.04,-6.26 -5.33,-6.6 -0.22,-0.03 -0.43,-0.04 -0.65,-0.04 m 34.93,-100.92 c -1.96,0 -3.88,0.96 -5.03,2.72 -8.89,13.62 -16.31,28.4 -22.07,43.91 -1.15,3.11 0.44,6.56 3.54,7.71 3.12,1.14 6.56,-0.43 7.71,-3.53 5.45,-14.68 12.47,-28.66 20.87,-41.53 1.81,-2.78 1.03,-6.49 -1.75,-8.31 -1.01,-0.65 -2.15,-0.97 -3.27,-0.97 m 78.42,-72.42 c -0.99,0 -2.01,0.25 -2.94,0.78 -14.54,8.21 -28.05,17.68 -40.13,28.17 -2.51,2.17 -2.77,5.96 -0.6,8.46 2.17,2.51 5.96,2.77 8.46,0.6 11.48,-9.96 24.32,-18.97 38.17,-26.78 2.88,-1.63 3.9,-5.29 2.27,-8.18 -1.1,-1.95 -3.13,-3.05 -5.23,-3.05"
         style="fill:#292f52;fill-opacity:1;fill-rule:nonzero;stroke:none;stroke-width:0.1"
         id="path30" /><path
         d="m 1628.71,814.24 c -0.45,0 -0.91,0.05 -1.37,0.16 -8.02,1.87 -15.95,4.01 -23.57,6.37 -3.16,0.98 -4.93,4.34 -3.95,7.51 0.98,3.17 4.33,4.94 7.5,3.95 7.35,-2.27 15,-4.34 22.74,-6.14 3.23,-0.76 5.24,-3.98 4.48,-7.21 -0.64,-2.77 -3.11,-4.64 -5.83,-4.64"
         style="fill:#292f52;fill-opacity:1;fill-rule:nonzero;stroke:none;stroke-width:0.1"
         id="path32" /><path
         d="m 2599.48,2164.34 -39.83,-43.76 c -5.12,-5.63 -13.15,-5.33 -17.85,0.67 l -33.7,43.09 h -48.46 c -15.23,0 -27.69,12.46 -27.69,27.69 v 78.32 c 0,15.23 12.46,27.69 27.69,27.69 h 181.38 c 15.23,0 27.69,-12.46 27.69,-27.69 v -78.32 c 0,-15.23 -12.46,-27.69 -27.69,-27.69 h -41.54"
         style="fill:#ff4962;fill-opacity:1;fill-rule:nonzero;stroke:none;stroke-width:0.1"
         id="path34" /><path
         d="m 2596.59,2270.87 c -21.77,0 -39.42,-16.54 -39.42,-36.93 0,-4.55 0.92,-8.89 2.53,-12.91 l -7.43,-23.05 25.57,3.48 c 5.57,-2.83 11.96,-4.44 18.75,-4.44 21.77,0 39.41,16.53 39.41,36.92 0,20.39 -17.64,36.93 -39.41,36.93"
         style="fill:#f5f5f5;fill-opacity:1;fill-rule:nonzero;stroke:none;stroke-width:0.1"
         id="path36" /><path
         d="m 2484.01,2247.93 c 0,-3.94 3.59,-6.45 8.24,-7.88 3.14,0.89 5.91,3.76 5.91,7.43 0,3.58 -2.06,7.17 -7.07,7.17 -4.66,0 -7.08,-3.05 -7.08,-6.72 z m 15.32,-27.59 c 0,5.11 -3.76,8.15 -9.13,9.59 -4.48,-1.26 -7.08,-4.48 -7.08,-8.69 -0.09,-4.21 3.13,-8.15 8.23,-8.15 4.85,0 7.98,3.14 7.98,7.25 z m -30.1,-0.44 c 0,6.98 4.04,11.82 10.4,14.59 v 0.27 c -5.65,2.87 -8.43,7.62 -8.43,12.72 0,9.85 8.87,16.39 20.52,16.39 13.6,0 19.25,-7.88 19.25,-14.96 0,-5.01 -2.68,-9.94 -8.42,-12.8 v -0.27 c 5.64,-2.15 10.66,-6.99 10.66,-14.51 0,-10.57 -8.87,-17.64 -22.39,-17.64 -14.78,0 -21.59,8.32 -21.59,16.21"
         style="fill:#f5f5f5;fill-opacity:1;fill-rule:nonzero;stroke:none;stroke-width:0.1"
         id="path38" /><path
         d="m 1746,1987.24 c 0,-22 -18,-40 -40,-40 h -483.5 c -22,0 -40,18 -40,40 v 518 c 0,22 18,40 40,40 H 1706 c 22,0 40,-18 40,-40 v -518"
         style="fill:#a8ccfb;fill-opacity:1;fill-rule:nonzero;stroke:none;stroke-width:0.1"
         id="path40" /><path
         d="m 1702.68,2499.92 v -424 h -480 v 424 h 480"
         style="fill:#f0f0f7;fill-opacity:1;fill-rule:nonzero;stroke:none;stroke-width:0.1"
         id="path42" /><path
         d="m 1648.48,2075.92 h -425.8 v 134.16 l 89.24,89.24 c 31.12,31.12 82,31.12 113.12,0 l 101.68,-101.64 121.76,-121.76"
         style="fill:#85b7fb;fill-opacity:1;fill-rule:nonzero;stroke:none;stroke-width:0.1"
         id="path44" /><path
         d="m 1702.68,2184.76 v -108.84 h -297.72 l 121.76,121.76 24.96,24.96 c 31.12,31.08 82,31.08 113.12,0 l 37.88,-37.88"
         style="fill:#6ba9fb;fill-opacity:1;fill-rule:nonzero;stroke:none;stroke-width:0.1"
         id="path46" /><path
         d="m 1604,2411.9 c 0,-23.56 -19.1,-42.66 -42.67,-42.66 -23.56,0 -42.66,19.1 -42.66,42.66 0,23.57 19.1,42.67 42.66,42.67 23.57,0 42.67,-19.1 42.67,-42.67"
         style="fill:#f5bf35;fill-opacity:1;fill-rule:nonzero;stroke:none;stroke-width:0.1"
         id="path48" /><g
         id="g50"
         transform="scale(0.1)"><g
           id="g52"
           clip-path="url(#clipPath56)"><path
             d="m 12226.8,20132.4 h 2719.9 v 320 h -2719.9 z"
             style="fill:#808ffb;fill-opacity:1;fill-rule:nonzero;stroke:none"
             id="path58" /></g></g><path
         d="m 2401.32,445.24 c 0,0 -35.32,-24 -74.64,-33.32 -39.36,-9.36 -138.68,-0.68 -173.16,22 -1.96,4.28 -3.88,16.16 -4.96,31.16 -1.8,24.56 -1.36,57.44 4.96,79.2 0,0 61.16,22.96 73.16,22.28 12,-0.64 76,-20 76,-20 0,0 26.64,-13.32 61.32,-28.64 2.04,-0.88 3.96,-1.92 5.8,-3.04 29.64,-17.88 35.28,-61.48 31.52,-69.64"
         style="fill:#8a3eff;fill-opacity:1;fill-rule:nonzero;stroke:none;stroke-width:0.1"
         id="path60" /><path
         d="m 2401.32,445.24 c 0,0 -35.32,-24 -74.64,-33.32 -39.36,-9.36 -138.68,-0.68 -173.16,22 -1.96,4.28 -3.88,16.16 -4.96,31.16 38.76,-15.84 98.76,-23.16 116.76,-20.52 0.68,31.36 64.28,81.28 104.48,70.32 29.64,-17.88 35.28,-61.48 31.52,-69.64"
         style="fill:#292f52;fill-opacity:1;fill-rule:nonzero;stroke:none;stroke-width:0.1"
         id="path62" /><path
         d="m 2008.64,454.52 c -0.84,-11.04 -2.24,-21.16 -3.96,-29.28 0,0 -21.36,-9.32 -52,-20 -30.68,-10.68 -110,-12 -127.96,15.32 -3.32,13.8 -1.92,35.6 2.16,57.92 h 0.04 c 4,21.92 10.68,44.32 18.12,60.28 0,0 82.96,29.16 147.64,17.16 15.8,-19.4 18.72,-65.36 15.96,-101.4"
         style="fill:#8a3eff;fill-opacity:1;fill-rule:nonzero;stroke:none;stroke-width:0.1"
         id="path64" /><path
         d="m 2008.64,454.52 c -0.84,-11.04 -2.24,-21.16 -3.96,-29.28 0,0 -21.36,-9.32 -52,-20 -30.68,-10.68 -110,-12 -127.96,15.32 -3.32,13.8 -1.92,35.6 2.16,57.92 h 0.04 c 57.56,41.24 107.08,15.44 134.4,-30.56 6.68,-0.68 34,-0.68 47.32,6.6"
         style="fill:#292f52;fill-opacity:1;fill-rule:nonzero;stroke:none;stroke-width:0.1"
         id="path66" /><path
         d="m 1837.33,1451.24 c -3.33,-87.33 -21.33,-812 -7.33,-902 72,-58 156,-8 176,0 8,62 17.71,614 23.86,626 6.81,3.33 15.48,2.66 17.48,0 58,-215.34 82,-590.01 98,-626.01 36,-26.66 134.66,-18.66 157.33,-2.66 1.33,33.33 -22.67,562.66 -30.67,650.66 -8,88 -37,273.01 -37,273.01 0,0 -165.95,18.99 -205.14,18.99 -39.19,0 -192.53,-37.99 -192.53,-37.99"
         style="fill:#292f52;fill-opacity:1;fill-rule:nonzero;stroke:none;stroke-width:0.1"
         id="path68" /><path
         d="m 1914,1453.01 c -1,-50.77 -43.02,-126.84 -80.51,-138.81 0.45,18.04 3.84,137.04 3.84,137.04 l 76.67,1.77"
         style="fill:#3e4463;fill-opacity:1;fill-rule:nonzero;stroke:none;stroke-width:0.1"
         id="path70" /><path
         d="m 2150.5,1461.7 c 2.5,-61.46 66.86,-136.55 105.18,-131.51 -2.52,17.93 -20.68,140.05 -20.68,140.05 l -84.5,-8.54"
         style="fill:#3e4463;fill-opacity:1;fill-rule:nonzero;stroke:none;stroke-width:0.1"
         id="path72" /><path
         d="m 2283,1661.24 c 4.25,-53.87 -23,-60 -42,-73 -19,-13 -13,-52 -6,-118 -43,-34 -276,-85 -405,-16 3,19 5,71 2,94 -3,23 -14,36 -53,59 -39,23 2,270 19,291 17,21 122,87 177,95 0,0 84,5 118,0 34,-5 157,-63 190,-101 33,-38 -3,-193 0,-231"
         style="fill:#8a3eff;fill-opacity:1;fill-rule:nonzero;stroke:none;stroke-width:0.1"
         id="path74" /><path
         d="m 2200.54,1453.02 c 15.62,5.8 27.52,11.73 34.46,17.22 v 0 c 0,0 -13.65,-12.99 -34.46,-17.22"
         style="fill:#2f3063;fill-opacity:1;fill-rule:nonzero;stroke:none;stroke-width:0.1"
         id="path76" /><path
         d="m 2233.95,1480.01 c -0.22,2.04 -0.44,4.05 -0.65,6.03 l 0.01,-0.01 0.64,-6.02"
         style="fill:#b1a3f7;fill-opacity:1;fill-rule:nonzero;stroke:none;stroke-width:0.1"
         id="path78" /><path
         d="m 2200.51,1453.01 c -35.49,43.1 -120.51,170.89 -134.51,223.66 12.73,-15.97 95.51,-137.79 167.3,-190.63 0.21,-1.98 0.43,-3.99 0.65,-6.03 l 1.05,-9.77 c -6.94,-5.49 -18.84,-11.42 -34.46,-17.22 -0.01,-0.01 -0.02,-0.01 -0.03,-0.01"
         style="fill:#692cff;fill-opacity:1;fill-rule:nonzero;stroke:none;stroke-width:0.1"
         id="path80" /><path
         d="m 1837.26,1449.29 c -4.37,2.59 -7.26,4.95 -7.26,4.95 v 0 c 2.4,-1.29 4.83,-2.53 7.31,-3.73 -0.02,-0.39 -0.03,-0.8 -0.05,-1.22 m -7.26,4.95 c 0,0 1.66,27.81 2.62,50.66 0.26,0.25 0.51,0.51 0.77,0.76 -0.37,-20.24 -1.73,-40.89 -3.39,-51.42"
         style="fill:#b1a3f7;fill-opacity:1;fill-rule:nonzero;stroke:none;stroke-width:0.1"
         id="path82" /><path
         d="m 1837.28,1449.28 c -0.01,0.01 -0.01,0.01 -0.02,0.01 0.02,0.42 0.03,0.83 0.05,1.22 v 0 c -0.01,-0.31 -0.02,-0.73 -0.03,-1.23"
         style="fill:#1f2152;fill-opacity:1;fill-rule:nonzero;stroke:none;stroke-width:0.1"
         id="path84" /><path
         d="m 1855.02,1442.8 c -6.45,0.58 -12.97,3.66 -17.74,6.48 0.01,0.5 0.02,0.92 0.03,1.23 5.73,-2.79 11.63,-5.35 17.71,-7.71"
         style="fill:#2f3063;fill-opacity:1;fill-rule:nonzero;stroke:none;stroke-width:0.1"
         id="path86" /><path
         d="m 1855.02,1442.8 v 0 c -6.08,2.36 -11.98,4.92 -17.71,7.71 v 0 c -2.48,1.2 -4.91,2.44 -7.31,3.73 v 0 c 1.66,10.53 3.02,31.18 3.39,51.42 61.93,62.45 125.44,220.56 131.61,230.58 -7.67,-41.67 -85.63,-259.88 -109.98,-293.44"
         style="fill:#692cff;fill-opacity:1;fill-rule:nonzero;stroke:none;stroke-width:0.1"
         id="path88" /><path
         d="m 1904,1787.24 c 14.67,52.66 92.38,92.67 125.86,75.33 33.48,-17.33 15.85,-24.56 0,-35.61 -15.86,-11.06 -21.86,-89.72 -64.86,-90.72 -43,-1 -61,51 -61,51"
         style="fill:#ffa993;fill-opacity:1;fill-rule:nonzero;stroke:none;stroke-width:0.1"
         id="path90" /><path
         d="m 2122,1746.57 c 5.3,17.95 0,152 -3.33,156 -46.67,20 -98.67,6.67 -104.67,3.33 -6,-3.33 -2,-128.45 -2,-169.68 8.66,-6.66 83.38,-5.26 110,10.35"
         style="fill:#292f52;fill-opacity:1;fill-rule:nonzero;stroke:none;stroke-width:0.1"
         id="path92" /><path
         d="m 2140.17,1740.94 c -4.83,14.3 25.16,80.95 -26.17,81.96 -8.66,14.34 -24,53.21 -43.33,43.77 -19.33,-9.43 -74,-76.1 -56,-110.77 18,-34.66 55.63,-50 63.15,-72 7.52,-22 62.35,57.04 62.35,57.04"
         style="fill:#ffa993;fill-opacity:1;fill-rule:nonzero;stroke:none;stroke-width:0.1"
         id="path94" /><path
         d="m 2193,1787.24 c 0,0 4,-62 9,-90 -5,7 -48,45 -48,45 -64,-1 -88,-65.57 -88,-65.57 18,-22.57 176,-256.69 245,-208.43 105.46,73.75 -0.09,390.28 -23.27,416.86 0,0 -17.73,29.14 -68.25,53.24 -38.48,-23.1 -28.07,-129.3 -26.48,-151.1"
         style="fill:#8a6bff;fill-opacity:1;fill-rule:nonzero;stroke:none;stroke-width:0.1"
         id="path96" /><path
         d="m 1798,1898.24 c -65,-74 -132,-384 -17.84,-416.51 72.37,-20.61 176.84,241.51 184.84,254.51 0,0 -23,54 -73,55 -25,-27 -36,-38 -36,-38 l 10,39 c 10,49 6.23,134.41 -17.38,144.21 -28.75,-14.66 -50.62,-38.21 -50.62,-38.21"
         style="fill:#8a6bff;fill-opacity:1;fill-rule:nonzero;stroke:none;stroke-width:0.1"
         id="path98" /><path
         d="m 2202,1697.24 v 0 c 0,0 -9,44.66 -9,90 v 0 c 0,0 4,-62 9,-90"
         style="fill:#692cff;fill-opacity:1;fill-rule:nonzero;stroke:none;stroke-width:0.1"
         id="path100" /><path
         d="m 2261.33,1631.24 -59.33,66 v 0 0 c -5,28 -9,90 -9,90 9,-55.34 59.67,-100.67 68.33,-156"
         style="fill:#694bff;fill-opacity:1;fill-rule:nonzero;stroke:none;stroke-width:0.1"
         id="path102" /><path
         d="m 1791.33,1665.24 c 16.67,52 68.34,110.88 77.17,142.11 -2.5,-15.11 -12.5,-54.11 -12.5,-54.11 v 0 0 0 c -12,-14.67 -59.33,-78.67 -64.67,-88"
         style="fill:#694bff;fill-opacity:1;fill-rule:nonzero;stroke:none;stroke-width:0.1"
         id="path104" /><path
         d="m 2103.34,2051.24 c -1.73,-18.01 -3.34,-62.67 8,-78.67 -43.34,-38 -126.67,-30.67 -154.01,-4.67 6,21.34 6,65.34 0,79.34 -6,14 70.67,24.66 70.67,24.66 l 75.34,-20.66"
         style="fill:#ffa993;fill-opacity:1;fill-rule:nonzero;stroke:none;stroke-width:0.1"
         id="path106" /><path
         d="m 1895.08,2161.21 c -53.39,126.71 26.25,130.69 26.25,130.69 17.34,58.23 125.28,67.23 161.33,54.67 59.34,-20.67 100.27,-83.93 73.2,-181.03 0,0 -33.36,-145.55 -113.86,-145.3 -80.75,0.25 -146.92,140.97 -146.92,140.97"
         style="fill:#292f52;fill-opacity:1;fill-rule:nonzero;stroke:none;stroke-width:0.1"
         id="path108" /><path
         d="m 2171.99,2131.57 c 0,-30.85 -27.54,-39.67 -44.66,-39.67 -17.13,0 -12.17,27.55 -12.17,44.85 0,17.31 2.38,34.49 19.5,34.49 17.12,0 37.33,-8 37.33,-39.67"
         style="fill:#ffa993;fill-opacity:1;fill-rule:nonzero;stroke:none;stroke-width:0.1"
         id="path110" /><path
         d="m 1877.33,2125.88 c 0,-30.85 27.55,-39.67 44.67,-39.67 17.12,0 12.17,27.55 12.17,44.85 0,17.31 -2.38,34.48 -19.5,34.48 -17.13,0 -37.34,-8 -37.34,-39.66"
         style="fill:#ffa993;fill-opacity:1;fill-rule:nonzero;stroke:none;stroke-width:0.1"
         id="path112" /><path
         d="m 2062.07,1995.46 c -31.41,-14.22 -79.34,-12.44 -100.7,0 0.41,9.79 0.64,22.12 0,29.22 25.3,-8.11 100.7,-29.22 100.7,-29.22"
         style="fill:#ff7d71;fill-opacity:1;fill-rule:nonzero;stroke:none;stroke-width:0.1"
         id="path114" /><path
         d="m 1907.33,2156.57 c 0,-96 48,-163.33 134.67,-163.33 86.66,0 106.66,113.33 106.66,163.33 0,50 -80.66,107.33 -123.99,107.33 -105.34,0 -117.34,-107.33 -117.34,-107.33"
         style="fill:#ffb29e;fill-opacity:1;fill-rule:nonzero;stroke:none;stroke-width:0.1"
         id="path116" /><path
         d="m 1907.33,2131.57 c 35.34,22.33 44.64,59.06 52.67,63.67 46.5,26.66 78.75,-20.22 144,2.66 0,0 13.33,-41.12 44.66,-53.73 1.47,26.51 -32.28,71.77 -52.14,89.75 -19.86,17.98 -135.23,37.87 -156.54,-5.41 -21.31,-43.27 -32.65,-96.94 -32.65,-96.94"
         style="fill:#ff7d71;fill-opacity:1;fill-rule:nonzero;stroke:none;stroke-width:0.1"
         id="path118" /><path
         d="m 1907.33,2131.57 c 26,17 38.67,55 40.67,69.67 58.66,43.33 102.66,-12.67 160.66,4 4.68,-21.34 26,-52.8 40,-61.07 2.59,16.76 11.75,44.45 4.41,63.12 -7.33,18.67 -16.18,84.62 -131.62,87.95 -115.45,3.33 -132.78,-70.67 -130.12,-93.34 2.67,-22.66 16,-70.33 16,-70.33"
         style="fill:#292f52;fill-opacity:1;fill-rule:nonzero;stroke:none;stroke-width:0.1"
         id="path120" /><path
         d="m 2081,2125.49 c 0,-7.04 -3.36,-12.75 -7.5,-12.75 -4.14,0 -7.5,5.71 -7.5,12.75 0,7.04 3.36,12.75 7.5,12.75 4.14,0 7.5,-5.71 7.5,-12.75"
         style="fill:#292f52;fill-opacity:1;fill-rule:nonzero;stroke:none;stroke-width:0.1"
         id="path122" /><path
         d="m 1999.25,2125.49 c 0,-7.04 -3.36,-12.75 -7.5,-12.75 -4.14,0 -7.5,5.71 -7.5,12.75 0,7.04 3.36,12.75 7.5,12.75 4.14,0 7.5,-5.71 7.5,-12.75"
         style="fill:#292f52;fill-opacity:1;fill-rule:nonzero;stroke:none;stroke-width:0.1"
         id="path124" /><path
         d="m 2063.3,2171.58 c 0,0 0.04,0.18 0.13,0.5 0.11,0.31 0.23,0.85 0.49,1.36 0.49,1.09 1.31,2.54 2.6,3.85 0.63,0.69 1.36,1.4 2.22,1.94 0.83,0.63 1.78,1.2 2.79,1.67 1.04,0.42 2.13,0.87 3.29,1.08 1.16,0.26 2.36,0.4 3.59,0.42 1.21,0.01 2.43,-0.06 3.62,-0.33 1.2,-0.16 2.34,-0.59 3.41,-1.03 1.08,-0.37 2.03,-1.1 2.91,-1.68 0.91,-0.52 1.64,-1.28 2.28,-2 1.32,-1.33 2.07,-2.85 2.5,-3.96 0.44,-1.1 0.58,-1.82 0.57,-1.82 l 0.07,-0.32 c 0.03,-0.18 -0.09,-0.36 -0.27,-0.39 l -0.2,0.02 c 0,0 -0.44,0.21 -1.21,0.57 -0.76,0.38 -1.86,0.86 -3.23,1.32 -0.66,0.27 -1.4,0.53 -2.2,0.71 -0.8,0.19 -1.63,0.46 -2.53,0.55 -1.76,0.3 -3.68,0.47 -5.59,0.37 -3.83,0.04 -7.63,-0.81 -10.36,-1.75 -2.77,-0.88 -4.48,-1.77 -4.48,-1.77 -0.16,-0.08 -0.37,-0.02 -0.45,0.15 l -0.03,0.24 0.08,0.3"
         style="fill:#ff7167;fill-opacity:1;fill-rule:nonzero;stroke:none;stroke-width:0.1"
         id="path126" /><path
         d="m 1972.32,2171.6 c 0,0 0.14,0.71 0.59,1.75 0.43,1.02 1.16,2.37 2.26,3.61 0.55,0.64 1.17,1.31 1.9,1.84 0.74,0.54 1.5,1.2 2.4,1.6 1.75,0.94 3.84,1.52 6.04,1.71 2.19,0.15 4.53,-0.19 6.62,-0.99 2.08,-0.89 3.91,-2.15 5.11,-3.63 0.62,-0.71 1.06,-1.5 1.41,-2.17 0.37,-0.65 0.51,-1.42 0.65,-1.96 0.24,-1.14 0.21,-1.82 0.21,-1.82 l -0.01,-0.34 c -0.01,-0.18 -0.16,-0.32 -0.35,-0.32 l -0.17,0.06 c 0,0 -0.35,0.23 -0.98,0.64 -0.59,0.47 -1.58,0.88 -2.72,1.42 -1.18,0.46 -2.61,0.87 -4.19,1.09 -1.59,0.18 -3.3,0.21 -5,0.04 -3.43,-0.19 -6.83,-1.01 -9.31,-1.82 -2.49,-0.78 -4.1,-1.43 -4.1,-1.43 -0.16,-0.07 -0.35,0.01 -0.41,0.17 l -0.02,0.18 0.07,0.37"
         style="fill:#ff7167;fill-opacity:1;fill-rule:nonzero;stroke:none;stroke-width:0.1"
         id="path128" /><path
         d="m 2047.25,2096.33 c 0,0 0.18,-0.57 0.5,-1.55 0.3,-0.96 0.89,-2.32 1.51,-3.98 1.27,-3.32 3.06,-7.77 4.03,-12.7 0.41,-2.47 0.72,-5.1 -0.01,-7.77 -0.33,-1.33 -1.12,-2.66 -2.19,-3.54 -1.06,-0.9 -2.28,-1.32 -3.32,-1.48 -2.11,-0.34 -3.66,0.13 -4.75,0.31 -1.05,0.3 -1.64,0.51 -1.64,0.51 -0.33,0.12 -0.5,0.48 -0.38,0.81 0.09,0.26 0.31,0.42 0.57,0.43 h 0.05 c 0,0 0.59,0.03 1.61,0.02 0.98,0.05 2.47,0.12 3.86,0.64 1.42,0.55 2.38,1.43 2.65,3.18 0.31,1.71 0.06,3.95 -0.37,6.16 -0.89,4.46 -2.24,9.06 -2.87,12.66 -0.35,1.79 -0.45,3.34 -0.52,4.44 -0.07,1.13 0.02,1.7 0.02,1.7 l 0.01,0.06 c 0.05,0.35 0.38,0.59 0.73,0.54 0.24,-0.04 0.44,-0.22 0.51,-0.44"
         style="fill:#ff7167;fill-opacity:1;fill-rule:nonzero;stroke:none;stroke-width:0.1"
         id="path130" /><path
         d="m 2007.23,2046.77 c 0,0 1.01,-0.41 2.72,-1.23 0.86,-0.47 1.91,-0.81 3.03,-1.2 1.11,-0.41 2.37,-0.85 3.86,-1.23 1.44,-0.44 3.04,-0.8 4.73,-1.14 1.67,-0.43 3.52,-0.56 5.36,-0.91 1.87,-0.21 3.82,-0.4 5.79,-0.54 1.99,-0.13 4,-0.2 6.02,-0.17 2.03,-0.09 4.05,0.1 6.04,0.17 1.97,0.22 3.96,0.22 5.82,0.56 1.88,0.25 3.7,0.48 5.4,0.85 1.73,0.27 3.27,0.76 4.77,1.07 1.42,0.47 2.78,0.82 3.93,1.23 1.1,0.49 2.16,0.82 2.96,1.2 1.54,0.8 2.5,1.25 2.5,1.25 l 0.18,0.09 c 0.64,0.29 1.39,0.02 1.69,-0.61 0.22,-0.47 0.13,-1 -0.19,-1.36 0,0 -0.73,-0.85 -2.16,-2.34 -1.48,-1.35 -3.8,-3.1 -6.85,-4.68 -1.55,-0.66 -3.2,-1.61 -5.06,-2.15 -1.84,-0.66 -3.79,-1.31 -5.87,-1.73 -2.06,-0.53 -4.22,-0.8 -6.42,-1.14 -2.21,-0.15 -4.45,-0.42 -6.71,-0.38 -2.25,-0.07 -4.5,0.15 -6.72,0.33 -2.22,0.18 -4.38,0.66 -6.46,1.08 -2.06,0.54 -4.06,0.99 -5.88,1.77 -0.91,0.36 -1.8,0.7 -2.66,1.03 -0.82,0.43 -1.61,0.84 -2.38,1.23 -1.52,0.73 -2.88,1.62 -4.04,2.5 -1.2,0.81 -2.14,1.56 -2.76,2.24 -1.35,1.34 -2.1,2.14 -2.1,2.14 -0.48,0.53 -0.44,1.35 0.09,1.83 0.37,0.35 0.91,0.43 1.37,0.24"
         style="fill:#ff7167;fill-opacity:1;fill-rule:nonzero;stroke:none;stroke-width:0.1"
         id="path132" /><path
         d="m 1644.75,810.88 c -0.36,0 -0.73,0.03 -1.1,0.1 -5.4,1.01 -10.77,2.14 -16.06,3.37 0.38,-0.07 0.75,-0.11 1.12,-0.11 2.72,0 5.19,1.87 5.83,4.64 0.76,3.23 -1.25,6.45 -4.48,7.21 -2.51,0.58 -5.01,1.19 -7.49,1.83 0.08,-0.02 0.16,-0.03 0.25,-0.06 7.48,-1.91 15.23,-3.62 23.03,-5.08 3.26,-0.61 5.4,-3.74 4.8,-7 -0.54,-2.88 -3.06,-4.9 -5.9,-4.9"
         style="fill:#252b4f;fill-opacity:1;fill-rule:nonzero;stroke:none;stroke-width:0.1"
         id="path134" /><path
         d="m 1628.71,814.24 c -0.37,0 -0.74,0.04 -1.12,0.11 -2.6,0.6 -5.19,1.23 -7.75,1.89 -3.21,0.82 -5.15,4.09 -4.32,7.3 0.69,2.71 3.12,4.52 5.79,4.52 0.42,0 0.84,-0.05 1.26,-0.14 2.48,-0.64 4.98,-1.25 7.49,-1.83 3.23,-0.76 5.24,-3.98 4.48,-7.21 -0.64,-2.77 -3.11,-4.64 -5.83,-4.64"
         style="fill:#07091a;fill-opacity:1;fill-rule:nonzero;stroke:none;stroke-width:0.1"
         id="path136" /><path
         d="m 1725.68,803.79 c -7.14,0 -14.26,0.15 -21.17,0.44 -3.31,0.14 -5.88,2.94 -5.74,6.25 0.13,3.23 2.85,5.75 6.01,5.75 0.08,0 0.16,0 0.24,-0.01 6.72,-0.28 13.61,-0.42 20.62,-0.42 8.9,0 17.97,0.23 27.14,0.69 0.09,0.01 0.19,0.01 0.28,0.01 3.13,0 5.85,-2.48 6.01,-5.7 0.17,-3.3 -2.38,-6.12 -5.68,-6.29 -9.36,-0.47 -18.68,-0.72 -27.71,-0.72 m 87.48,6.75 c -2.93,0 -5.49,2.14 -5.93,5.12 -0.48,3.29 1.78,6.33 5.06,6.82 4.23,0.62 8.49,1.29 12.78,2.01 -0.03,-4.07 -0.05,-8.15 -0.08,-12.18 -3.67,-0.6 -7.32,-1.17 -10.95,-1.7 -0.29,-0.05 -0.59,-0.07 -0.88,-0.07"
         style="fill:#252b4f;fill-opacity:1;fill-rule:nonzero;stroke:none;stroke-width:0.1"
         id="path138" /><path
         d="m 1824.99,812.31 c 0.03,4.03 0.05,8.11 0.08,12.18 11.33,1.89 22.84,4.09 34.38,6.57 0.42,0.09 0.84,0.14 1.25,0.14 2.77,0 5.27,-1.93 5.88,-4.74 0.69,-3.24 -1.37,-6.43 -4.61,-7.13 -12.42,-2.67 -24.81,-5.02 -36.98,-7.02 m 94.29,21.67 c -2.61,0 -5,1.71 -5.76,4.34 -0.92,3.18 0.91,6.5 4.09,7.43 15.05,4.34 30.46,9.21 45.82,14.46 0.64,0.22 1.3,0.33 1.95,0.33 2.49,0 4.81,-1.58 5.67,-4.07 1.07,-3.13 -0.6,-6.54 -3.74,-7.61 -15.54,-5.32 -31.14,-10.25 -46.36,-14.64 -0.56,-0.16 -1.12,-0.24 -1.67,-0.24"
         style="fill:#07091a;fill-opacity:1;fill-rule:nonzero;stroke:none;stroke-width:0.1"
         id="path140" /><path
         d="m 2021.98,869.62 c -1.32,0 -2.6,0.44 -3.65,1.24 0.1,3.26 0.19,6.47 0.28,9.73 0.35,0.23 0.73,0.43 1.13,0.6 14.58,5.86 29.48,12.19 44.28,18.81 0.79,0.36 1.62,0.52 2.44,0.52 2.3,0 4.49,-1.32 5.49,-3.55 1.35,-3.02 -0.01,-6.57 -3.04,-7.92 -14.93,-6.68 -29.97,-13.07 -44.68,-19 -0.74,-0.29 -1.5,-0.43 -2.25,-0.43"
         style="fill:#252b4f;fill-opacity:1;fill-rule:nonzero;stroke:none;stroke-width:0.1"
         id="path142" /><path
         d="m 2018.33,870.86 c -0.82,0.63 -1.5,1.49 -1.91,2.52 -1.08,2.67 -0.09,5.65 2.19,7.21 -0.09,-3.26 -0.18,-6.47 -0.28,-9.73 m 102.76,43.5 c -2.21,0 -4.33,1.22 -5.38,3.32 -1.48,2.97 -0.27,6.57 2.69,8.05 14.1,7.04 28.48,14.49 42.75,22.17 0.9,0.48 1.87,0.71 2.83,0.71 2.14,0 4.21,-1.14 5.29,-3.15 1.57,-2.92 0.48,-6.56 -2.44,-8.13 -14.37,-7.73 -28.87,-15.25 -43.07,-22.33 -0.86,-0.43 -1.78,-0.64 -2.67,-0.64 m 95.59,51.83 c -2.06,0 -4.07,1.06 -5.18,2.97 -1.67,2.86 -0.71,6.54 2.15,8.21 13.64,7.97 27.53,16.32 41.29,24.84 0.98,0.61 2.07,0.9 3.15,0.9 2.01,0 3.97,-1.01 5.11,-2.85 1.74,-2.81 0.87,-6.51 -1.95,-8.26 -13.84,-8.57 -27.82,-16.98 -41.54,-24.99 -0.96,-0.56 -2,-0.82 -3.03,-0.82"
         style="fill:#07091a;fill-opacity:1;fill-rule:nonzero;stroke:none;stroke-width:0.1"
         id="path144" /><path
         d="m 2308.99,1023.67 c -1.94,0 -3.85,0.95 -5.01,2.69 -1.82,2.77 -1.06,6.49 1.7,8.32 13.09,8.64 26.52,17.73 39.93,27.02 1.03,0.72 2.22,1.07 3.4,1.07 1.9,0 3.78,-0.91 4.94,-2.59 1.89,-2.73 1.21,-6.46 -1.52,-8.35 -13.47,-9.33 -26.97,-18.47 -40.13,-27.17 -1.02,-0.67 -2.17,-0.99 -3.31,-0.99 m 89.25,62.15 c -1.85,0 -3.67,0.85 -4.85,2.45 -1.95,2.68 -1.37,6.43 1.3,8.39 12.79,9.34 25.79,19.05 38.66,28.84 1.09,0.83 2.36,1.23 3.63,1.23 1.81,0 3.6,-0.82 4.78,-2.37 2.01,-2.64 1.49,-6.41 -1.14,-8.41 -12.93,-9.84 -26,-19.59 -38.84,-28.98 -1.07,-0.78 -2.31,-1.15 -3.54,-1.15 m 86.41,66.03 c -1.76,0 -3.51,0.78 -4.69,2.26 -2.07,2.59 -1.64,6.37 0.95,8.43 12.35,9.85 24.95,20.07 37.47,30.39 1.11,0.92 2.47,1.37 3.81,1.37 1.73,0 3.45,-0.75 4.63,-2.19 2.11,-2.55 1.75,-6.33 -0.81,-8.44 -12.56,-10.36 -25.22,-20.63 -37.62,-30.51 -1.1,-0.88 -2.43,-1.31 -3.74,-1.31"
         style="fill:#252b4f;fill-opacity:1;fill-rule:nonzero;stroke:none;stroke-width:0.1"
         id="path146" /><path
         d="m 2585.79,1234.28 c -2.42,3.15 -4.86,6.38 -7.26,9.59 7.42,6.44 14.9,13 22.36,19.6 1.14,1.01 2.56,1.51 3.97,1.51 1.66,0 3.31,-0.69 4.49,-2.03 2.2,-2.48 1.97,-6.27 -0.51,-8.47 -7.69,-6.8 -15.4,-13.56 -23.05,-20.2"
         style="fill:#272d52;fill-opacity:1;fill-rule:nonzero;stroke:none;stroke-width:0.1"
         id="path148" /><path
         d="m 2568.43,1221.21 c -1.69,0 -3.37,0.71 -4.55,2.09 -2.17,2.51 -1.88,6.3 0.64,8.46 4.63,3.98 9.31,8.02 14.01,12.11 2.4,-3.21 4.84,-6.44 7.26,-9.59 -4.51,-3.92 -9,-7.8 -13.45,-11.62 -1.14,-0.98 -2.53,-1.45 -3.91,-1.45"
         style="fill:#252b4f;fill-opacity:1;fill-rule:nonzero;stroke:none;stroke-width:0.1"
         id="path150" /><path
         d="m 2649.96,1293.62 c -1.62,0 -3.24,0.65 -4.42,1.94 -2.24,2.44 -2.08,6.24 0.36,8.48 5.85,5.37 11.72,10.78 17.6,16.26 1.16,1.07 2.63,1.6 4.09,1.6 1.61,0 3.21,-0.64 4.39,-1.91 2.25,-2.43 2.12,-6.22 -0.31,-8.48 -5.9,-5.49 -11.79,-10.92 -17.65,-16.31 -1.16,-1.06 -2.61,-1.58 -4.06,-1.58"
         style="fill:#272d52;fill-opacity:1;fill-rule:nonzero;stroke:none;stroke-width:0.1"
         id="path152" /></g></g></svg>
